<svg width="32" height="32" viewBox="0 0 32 32" fill="none" xmlns="http://www.w3.org/2000/svg">
<g clip-path="url(#clip0)">
<path fill-rule="evenodd" clip-rule="evenodd" d="M15.9999 5.49605L14.5659 4.02205C11.1999 0.562051 5.02791 1.75605 2.79991 6.10605C1.75391 8.15205 1.51791 11.1061 3.42791 14.8761C5.26791 18.5061 9.09591 22.8541 15.9999 27.5901C22.9039 22.8541 26.7299 18.5061 28.5719 14.8761C30.4819 11.1041 30.2479 8.15205 29.1999 6.10605C26.9719 1.75605 20.7999 0.560051 17.4339 4.02005L15.9999 5.49605ZM15.9999 30.0001C-14.6661 9.73605 6.55791 -6.07995 15.6479 2.28605C15.7679 2.39605 15.8859 2.51005 15.9999 2.62805C16.1128 2.51016 16.2302 2.39674 16.3519 2.28805C25.4399 -6.08395 46.6659 9.73405 15.9999 30.0001Z" fill="#D90429"/>
</g>
<defs>
<clipPath id="clip0">
<rect width="32" height="32" fill="white"/>
</clipPath>
</defs>
</svg>
