<svg width="371" height="257" viewBox="0 0 371 257" fill="none" xmlns="http://www.w3.org/2000/svg">
<g filter="url(#filter0_d)">
<g clip-path="url(#clip0)">
<path d="M56.3179 68.7338L156.734 90.0779C158.041 90.3558 159.185 91.1416 159.913 92.2626C160.641 93.3835 160.893 94.7476 160.616 96.055L158.951 103.885L48.6766 80.4451L50.3408 72.6154C50.6187 71.308 51.4045 70.1646 52.5255 69.4367C53.6464 68.7088 55.0105 68.4559 56.3179 68.7338Z" fill="#3F3D56"/>
<path d="M155.022 88.7614C154.525 88.6582 154.015 88.6373 153.512 88.6998C153.488 88.0185 153.216 87.3693 152.747 86.8747C152.278 86.3802 151.644 86.0745 150.965 86.0155C150.286 85.9564 149.608 86.1481 149.061 86.5542C148.513 86.9603 148.133 87.5529 147.993 88.2199C147.99 88.2336 147.991 88.2469 147.988 88.2605C147.639 88.2203 147.287 88.2185 146.938 88.2551C146.924 87.8675 146.829 87.487 146.66 87.1378C146.492 86.7886 146.252 86.4782 145.957 86.2262C146.936 85.9282 147.79 85.3171 148.388 84.4868C150.626 84.9245 152.765 83.6945 153.188 81.7039C153.616 79.6905 152.127 77.6682 149.862 77.1867C149.365 77.0835 148.855 77.0626 148.352 77.1251C148.344 76.7488 148.26 76.378 148.104 76.0351C147.949 75.6922 147.726 75.3843 147.449 75.1299C147.171 74.8756 146.845 74.6802 146.49 74.5554C146.135 74.4306 145.758 74.3791 145.382 74.404C145.007 74.4288 144.64 74.5295 144.305 74.7C143.969 74.8704 143.671 75.1071 143.43 75.3957C143.188 75.6844 143.008 76.019 142.899 76.3793C142.79 76.7397 142.756 77.1184 142.797 77.4924C142.672 77.5451 142.553 77.6087 142.433 77.6717C142.012 77.1185 141.389 76.7533 140.701 76.6553C140.564 75.5743 140.052 74.5758 139.253 73.8348C138.454 73.0938 137.42 72.6575 136.332 72.6024C135.244 72.5472 134.171 72.8767 133.301 73.5332C132.432 74.1896 131.821 75.1311 131.576 76.1927C131.204 76.1439 130.828 76.1392 130.455 76.1786C130.448 76.016 130.428 75.8543 130.393 75.6954C130.82 75.4545 131.192 75.1265 131.485 74.7326C131.777 74.3388 131.983 73.888 132.09 73.4093C132.518 71.3959 131.029 69.3735 128.764 68.8921C128.267 68.7888 127.757 68.768 127.254 68.8305C127.246 68.4541 127.162 68.0833 127.007 67.7404C126.851 67.3975 126.628 67.0896 126.351 66.8353C126.073 66.581 125.747 66.3856 125.392 66.2608C125.037 66.136 124.66 66.0845 124.285 66.1093C123.909 66.1342 123.542 66.2349 123.207 66.4053C122.871 66.5758 122.574 66.8125 122.332 67.1011C122.09 67.3898 121.91 67.7244 121.801 68.0847C121.693 68.4451 121.658 68.8237 121.7 69.1978C121.041 69.4744 120.455 69.899 119.987 70.4388C119.52 70.9785 119.182 71.6189 119.002 72.31C118.956 72.3361 118.906 72.3544 118.862 72.383C118.986 72.1373 119.078 71.8772 119.138 71.6086C119.565 69.5953 118.076 67.5729 115.811 67.0914C115.315 66.9882 114.804 66.9674 114.301 67.0298C114.293 66.6535 114.209 66.2827 114.054 65.9398C113.899 65.5969 113.676 65.289 113.398 65.0347C113.121 64.7803 112.794 64.5849 112.439 64.4601C112.084 64.3354 111.707 64.2838 111.332 64.3087C110.956 64.3335 110.59 64.4342 110.254 64.6047C109.918 64.7751 109.621 65.0118 109.379 65.3005C109.138 65.5891 108.957 65.9237 108.848 66.2841C108.74 66.6444 108.705 67.0231 108.747 67.3972C108.053 67.6866 107.44 68.1402 106.96 68.7188C106.48 69.2974 106.147 69.9839 105.991 70.7193C105.835 71.4547 105.859 72.2171 106.062 72.9409C106.265 73.6648 106.641 74.3285 107.157 74.8752C106.86 75.3655 106.738 75.942 106.81 76.5108C106.285 76.7324 105.805 77.0473 105.394 77.4402C105.355 76.7922 105.091 76.1782 104.646 75.7048C104.202 75.2314 103.606 74.9285 102.962 74.8487C102.318 74.769 101.666 74.9173 101.12 75.268C100.574 75.6188 100.167 76.1498 99.9719 76.7688C99.652 76.477 99.2912 76.2336 98.9008 76.0463C99.7426 75.7159 100.471 75.1488 100.997 74.4136C103.235 74.8513 105.374 73.6213 105.797 71.6307C106.225 69.6173 104.736 67.5949 102.471 67.1135C101.974 67.0102 101.464 66.9894 100.961 67.0519C100.953 66.6755 100.869 66.3047 100.714 65.9618C100.558 65.6189 100.335 65.311 100.058 65.0567C99.7803 64.8024 99.4542 64.607 99.099 64.4822C98.7439 64.3574 98.3672 64.3059 97.9916 64.3307C97.6161 64.3556 97.2494 64.4563 96.9138 64.6267C96.5782 64.7972 96.2807 65.0339 96.0391 65.3225C95.7975 65.6112 95.6169 65.9458 95.5082 66.3061C95.3995 66.6665 95.365 67.0451 95.4067 67.4192C95.3396 67.4474 95.2767 67.4841 95.2111 67.5154C95.0717 67.4719 94.9388 67.4176 94.7927 67.3865C94.2961 67.2832 93.7859 67.2624 93.2825 67.3249C93.2799 67.2524 93.2651 67.1826 93.257 67.1113C93.4315 66.7243 93.5139 66.3022 93.4977 65.878C93.4815 65.4538 93.3671 65.0392 93.1637 64.6666C92.9602 64.2941 92.6731 63.9738 92.325 63.7309C91.9768 63.488 91.5771 63.3292 91.1573 63.2668C91.0604 62.5555 90.8004 61.8762 90.3974 61.2821C89.9944 60.688 89.4595 60.1952 88.8344 59.8421C88.2094 59.4891 87.5111 59.2855 86.7943 59.2471C86.0774 59.2088 85.3614 59.3368 84.7023 59.6211C84.0431 59.9054 83.4587 60.3384 82.9946 60.8861C82.5306 61.4338 82.1995 62.0815 82.0274 62.7784C81.8552 63.4753 81.8466 64.2026 82.0022 64.9034C82.1578 65.6042 82.4734 66.2595 82.9243 66.8181C82.6031 66.7874 82.2796 66.789 81.9588 66.823C81.9454 66.3557 81.8141 65.8995 81.577 65.4966C81.3399 65.0938 81.0046 64.7576 80.6026 64.5192C80.2005 64.2808 79.7446 64.148 79.2774 64.1333C78.8102 64.1185 78.3469 64.2222 77.9306 64.4347C77.6269 63.866 77.2009 63.3717 76.6831 62.9876C76.1653 62.6035 75.5688 62.339 74.9364 62.2134C74.4398 62.1101 73.9296 62.0893 73.4263 62.1517C73.4183 61.7754 73.3342 61.4046 73.179 61.0617C73.0238 60.7188 72.8007 60.4109 72.5232 60.1566C72.2457 59.9023 71.9196 59.7068 71.5645 59.5821C71.2093 59.4573 70.8326 59.4058 70.4571 59.4306C70.0815 59.4555 69.7148 59.5562 69.3792 59.7266C69.0437 59.8971 68.7461 60.1338 68.5045 60.4224C68.2629 60.711 68.0823 61.0456 67.9736 61.406C67.8649 61.7664 67.8304 62.145 67.8721 62.5191C67.1783 62.8087 66.5652 63.2623 66.0852 63.8409C65.6052 64.4195 65.2727 65.1059 65.1162 65.8413C65.1132 65.8554 65.1145 65.8692 65.1116 65.8833C64.4862 65.648 63.8105 65.5789 63.1504 65.6828C63.1424 65.3064 63.0583 64.9357 62.9031 64.5927C62.7479 64.2498 62.5248 63.9419 62.2473 63.6876C61.9698 63.4333 61.6437 63.2379 61.2885 63.1131C60.9334 62.9884 60.5567 62.9368 60.1811 62.9617C59.8056 62.9865 59.4389 63.0872 59.1033 63.2577C58.7678 63.4281 58.4702 63.6648 58.2286 63.9534C57.987 64.2421 57.8064 64.5767 57.6977 64.937C57.589 65.2974 57.5545 65.676 57.5962 66.0501C56.5908 66.4583 55.7603 67.206 55.249 68.1631C54.7378 69.1202 54.5783 70.2263 54.7981 71.2889C55.018 72.3515 55.6033 73.3034 56.4524 73.9791C57.3014 74.6548 58.3605 75.0115 59.4453 74.9872C59.4077 75.973 59.6851 76.9451 60.2373 77.7626C60.7895 78.5801 61.5878 79.2004 62.5163 79.5335C63.4449 79.8666 64.4554 79.8953 65.4014 79.6153C66.3473 79.3353 67.1795 78.7613 67.7771 77.9764C67.9825 78.8456 68.4342 79.637 69.0781 80.2559C69.722 80.8749 70.5307 81.2949 71.4073 81.4658C72.2839 81.6368 73.1911 81.5512 74.0204 81.2195C74.8496 80.8878 75.5655 80.324 76.0824 79.5957C76.621 79.7023 77.1742 79.7123 77.7164 79.6254C77.8341 80.5527 78.2291 81.4229 78.8495 82.122C79.47 82.8211 80.2871 83.3166 81.1938 83.5437C82.1005 83.7707 83.0547 83.7187 83.9314 83.3945C84.8081 83.0703 85.5665 82.4889 86.1074 81.7265C86.7746 81.8546 87.4621 81.8318 88.1194 81.6599C88.379 82.4833 88.8634 83.2179 89.5179 83.7809C90.1724 84.344 90.9711 84.7131 91.8241 84.8468C92.677 84.9805 93.5504 84.8734 94.3458 84.5376C95.1411 84.2018 95.827 83.6506 96.3261 82.9461C96.5719 82.992 96.821 83.0183 97.071 83.0247C97.2362 83.9242 97.6627 84.7551 98.2974 85.4136C98.932 86.0721 99.7466 86.529 100.639 86.7273C101.532 86.9255 102.464 86.8564 103.317 86.5284C104.171 86.2005 104.909 85.6282 105.44 84.8832C105.8 84.9492 106.166 84.9723 106.532 84.9521C107.394 85.4021 108.377 85.5638 109.337 85.4133C110.297 85.2629 111.184 84.8084 111.867 84.1165C111.345 85.1654 111.237 86.3727 111.566 87.4974C111.894 88.6222 112.635 89.5817 113.639 90.1847C114.644 90.7876 115.839 90.9896 116.986 90.7504C118.133 90.5112 119.148 89.8483 119.828 88.894C120.495 89.0221 121.182 88.9993 121.84 88.8274C122.099 89.6508 122.584 90.3854 123.238 90.9484C123.893 91.5115 124.691 91.8806 125.544 92.0143C126.397 92.148 127.271 92.0409 128.066 91.7051C128.862 91.3693 129.547 90.8181 130.046 90.1135C130.714 90.2416 131.401 90.2188 132.059 90.0469C132.258 90.6861 132.594 91.2742 133.043 91.7705C133.492 92.2667 134.045 92.6591 134.661 92.9203C135.277 93.1816 135.943 93.3055 136.612 93.2833C137.282 93.2612 137.938 93.0936 138.536 92.7921C138.509 93.6976 138.747 94.5911 139.222 95.3625C139.697 96.1339 140.387 96.7494 141.208 97.1331C142.028 97.5167 142.943 97.6517 143.84 97.5213C144.736 97.391 145.575 97.001 146.252 96.3996C146.71 96.935 147.284 97.3588 147.931 97.6387C148.577 97.9186 149.279 98.0471 149.983 98.0145C150.687 97.9819 151.374 97.789 151.991 97.4505C152.609 97.1121 153.142 96.637 153.548 96.0615C155.786 96.4992 157.925 95.2692 158.348 93.2786C158.776 91.2652 157.287 89.2429 155.022 88.7614ZM73.9658 69.5666C73.9563 69.5875 73.9482 69.6093 73.939 69.6305C73.906 69.6222 73.876 69.6083 73.8424 69.6012C73.7055 69.5756 73.5668 69.5605 73.4276 69.5558C73.4385 69.5409 73.452 69.5285 73.4627 69.5135C73.6293 69.5403 73.7973 69.558 73.9658 69.5666ZM112.364 76.1434C112.362 76.0875 112.349 76.0339 112.344 75.9787C113.143 75.6441 113.833 75.0947 114.338 74.3915C114.937 74.5157 115.557 74.5121 116.155 74.3809C116.754 74.2498 117.318 73.994 117.811 73.6302C117.739 73.7974 117.683 73.9711 117.645 74.149C117.59 74.4279 117.578 74.7137 117.61 74.9962C116.711 75.3754 115.954 76.0261 115.443 76.8571C114.534 76.2606 113.443 76.0076 112.364 76.1434L112.364 76.1434ZM139.587 82.2851C139.597 82.2289 139.617 82.1728 139.625 82.1165C139.741 82.1408 139.859 82.1576 139.977 82.1668C140.028 82.794 140.208 83.4041 140.503 83.9596C140.412 83.9654 140.318 83.9607 140.229 83.9713C140.206 83.354 139.981 82.7614 139.587 82.2851Z" fill="#F9A825"/>
<path d="M59.6004 74.1942C58.3077 73.9193 56.9725 73.9107 55.6764 74.1689C54.3803 74.4271 53.1504 74.9467 52.0617 75.696C50.973 76.4453 50.0485 77.4085 49.3444 78.5269C48.6403 79.6454 48.1715 80.8955 47.9666 82.2011L36.0999 168.375C35.7131 170.834 36.2843 173.349 37.696 175.4C39.1076 177.452 41.2522 178.884 43.688 179.401L123.26 196.315C125.695 196.833 128.237 196.397 130.361 195.097C132.485 193.797 134.029 191.732 134.677 189.328L158.886 105.778C159.23 104.502 159.31 103.169 159.121 101.861C158.933 100.553 158.48 99.2966 157.79 98.1693C157.101 97.042 156.188 96.0671 155.109 95.3041C154.03 94.541 152.807 94.0058 151.514 93.7311L59.6004 74.1942Z" fill="#3F3D56"/>
<path d="M69.5586 76.3109L64.0904 75.1486L42.0068 179.044L47.475 180.206L69.5586 76.3109Z" fill="#EF233C"/>
<path d="M85.0517 79.6041L79.5836 78.4418L57.5 182.337L62.9681 183.499L85.0517 79.6041Z" fill="#EF233C"/>
<path d="M100.545 82.8972L95.0767 81.7349L72.9931 185.63L78.4613 186.792L100.545 82.8972Z" fill="#EF233C"/>
<path d="M116.038 86.1904L110.57 85.0281L88.4863 188.923L93.9544 190.086L116.038 86.1904Z" fill="#EF233C"/>
<path d="M131.531 89.4836L126.063 88.3213L103.979 192.216L109.448 193.379L131.531 89.4836Z" fill="#EF233C"/>
<path d="M147.024 92.7767L141.556 91.6145L119.473 195.51L124.941 196.672L147.024 92.7767Z" fill="#EF233C"/>
<path d="M245.29 69.1461L244.14 62.8334L209.583 69.1262C208.801 69.2691 208.078 69.6414 207.508 70.1956C206.937 70.7498 206.544 71.4611 206.379 72.2392L199.079 106.579L205.357 107.913L212.32 75.158L245.29 69.1461Z" fill="#3F3D56"/>
<path d="M243.781 56.1624L236.936 54.7076L232.328 76.3859L239.173 77.8408L243.781 56.1624Z" fill="#EF233C"/>
<path d="M231.973 58.422L225.129 56.9671L220.521 78.6455L227.365 80.1004L231.973 58.422Z" fill="#EF233C"/>
<path d="M217.476 74.7196L212.325 75.1151L215.24 51.5864L222.084 53.0413L217.476 74.7196Z" fill="#EF233C"/>
<path d="M220.924 78.135L199.245 73.5271L197.79 80.3718L219.469 84.9797L220.924 78.135Z" fill="#EF233C"/>
<path d="M218.926 87.5507L197.248 82.9428L195.793 89.7875L217.471 94.3954L218.926 87.5507Z" fill="#EF233C"/>
<path d="M216.921 96.9649L195.243 92.357L193.788 99.2017L215.466 103.81L216.921 96.9649Z" fill="#EF233C"/>
<path d="M203.223 213.312L161.293 204.399L172.851 99.5208L234.182 112.557L203.223 213.312Z" fill="#3F3D56"/>
<path d="M239.109 111.816L168.937 96.9002L167.482 103.745L237.654 118.66L239.109 111.816Z" fill="#3F3D56"/>
<path d="M315.691 102.563C328.716 105.332 341.519 97.0175 344.287 83.9929C347.056 70.9682 338.741 58.1654 325.717 55.3969C312.692 52.6284 299.889 60.9427 297.121 73.9674C294.352 86.992 302.667 99.7949 315.691 102.563Z" fill="#3AD29F"/>
<path d="M336.319 82.2992L310.25 88.8799L312.715 77.2819L315.18 65.684L336.319 82.2992Z" fill="url(#paint0_linear)"/>
<path d="M334.9 81.9976L311.961 87.79L314.13 77.5828L316.3 67.3756L334.9 81.9976Z" fill="white"/>
<path opacity="0.2" d="M298.475 77.0851C299.51 72.2324 302.017 67.8173 305.654 64.4417C309.291 61.0661 313.88 58.8944 318.796 58.2226C323.712 57.5509 328.716 58.4119 333.125 60.6882C337.534 62.9645 341.133 66.5453 343.433 70.9423C342.336 67.8121 340.606 64.9417 338.351 62.5105C336.095 60.0792 333.362 58.1393 330.322 56.8121C327.283 55.4849 324.002 54.7988 320.686 54.7968C317.369 54.7947 314.088 55.4768 311.047 56.8003C308.006 58.1238 305.27 60.0603 303.012 62.4888C300.753 64.9173 299.019 67.7855 297.919 70.9143C296.819 74.0431 296.376 77.3652 296.618 80.673C296.86 83.9807 297.781 87.203 299.325 90.1385C297.838 85.95 297.544 81.431 298.475 77.0851Z" fill="white"/>
<path d="M290.545 200.501C290.27 200.443 289.983 200.496 289.747 200.649C289.511 200.802 289.346 201.042 289.287 201.317L283.348 229.259C283.29 229.534 283.343 229.821 283.496 230.056C283.65 230.292 283.89 230.457 284.165 230.516L332.266 240.74C332.541 240.798 332.827 240.745 333.063 240.592C333.299 240.439 333.464 240.199 333.523 239.924L339.463 211.982C339.521 211.707 339.467 211.42 339.314 211.185C339.161 210.949 338.92 210.784 338.645 210.725L290.545 200.501Z" fill="#3F3D56"/>
<path d="M295.396 204.108C294.884 203.999 294.349 204.099 293.91 204.384C293.471 204.669 293.163 205.117 293.053 205.629L288.542 226.851C288.434 227.364 288.533 227.898 288.819 228.338C289.104 228.777 289.552 229.085 290.064 229.194L327.414 237.133C327.926 237.242 328.461 237.142 328.9 236.857C329.339 236.572 329.648 236.124 329.757 235.612L334.268 214.39C334.376 213.877 334.277 213.343 333.992 212.903C333.706 212.464 333.259 212.156 332.746 212.047L295.396 204.108Z" fill="#FF6584"/>
<path d="M289.129 209.82L264.073 204.494L262.84 210.298L287.895 215.623L289.129 209.82Z" fill="#3F3D56"/>
<path d="M222.431 186.023C222.156 185.965 221.869 186.018 221.634 186.171C221.398 186.324 221.233 186.564 221.174 186.839L215.235 214.781C215.177 215.056 215.23 215.343 215.383 215.578C215.536 215.814 215.776 215.979 216.051 216.038L264.152 226.262C264.427 226.32 264.714 226.267 264.949 226.114C265.185 225.961 265.35 225.721 265.409 225.446L271.348 197.504C271.406 197.229 271.353 196.942 271.2 196.707C271.047 196.471 270.807 196.306 270.532 196.247L222.431 186.023Z" fill="#3F3D56"/>
<path d="M227.283 189.63C226.771 189.521 226.236 189.62 225.797 189.906C225.357 190.191 225.049 190.639 224.939 191.151L220.428 212.373C220.32 212.886 220.419 213.421 220.705 213.86C220.99 214.299 221.438 214.607 221.951 214.717L259.3 222.655C259.812 222.764 260.347 222.665 260.787 222.379C261.226 222.094 261.534 221.646 261.644 221.134L266.155 199.912C266.263 199.399 266.164 198.865 265.878 198.425C265.593 197.986 265.145 197.678 264.632 197.568L227.283 189.63Z" fill="#EF233C"/>
</g>
</g>
<g filter="url(#filter1_d)">
<path d="M1 175.5L343.352 248.269" stroke="#EDF2F4" stroke-width="8"/>
</g>
<defs>
<filter id="filter0_d" x="28" y="0" width="346.727" height="244.961" filterUnits="userSpaceOnUse" color-interpolation-filters="sRGB">
<feFlood flood-opacity="0" result="BackgroundImageFix"/>
<feColorMatrix in="SourceAlpha" type="matrix" values="0 0 0 0 0 0 0 0 0 0 0 0 0 0 0 0 0 0 127 0"/>
<feOffset dx="4" dy="4"/>
<feColorMatrix type="matrix" values="0 0 0 0 0 0 0 0 0 0 0 0 0 0 0 0 0 0 0.25 0"/>
<feBlend mode="normal" in2="BackgroundImageFix" result="effect1_dropShadow"/>
<feBlend mode="normal" in="SourceGraphic" in2="effect1_dropShadow" result="shape"/>
</filter>
<filter id="filter1_d" x="0.16835" y="171.587" width="348.015" height="84.5943" filterUnits="userSpaceOnUse" color-interpolation-filters="sRGB">
<feFlood flood-opacity="0" result="BackgroundImageFix"/>
<feColorMatrix in="SourceAlpha" type="matrix" values="0 0 0 0 0 0 0 0 0 0 0 0 0 0 0 0 0 0 127 0"/>
<feOffset dx="4" dy="4"/>
<feColorMatrix type="matrix" values="0 0 0 0 0 0 0 0 0 0 0 0 0 0 0 0 0 0 0.25 0"/>
<feBlend mode="normal" in2="BackgroundImageFix" result="effect1_dropShadow"/>
<feBlend mode="normal" in="SourceGraphic" in2="effect1_dropShadow" result="shape"/>
</filter>
<linearGradient id="paint0_linear" x1="322.052" y1="91.3886" x2="326.982" y2="68.1927" gradientUnits="userSpaceOnUse">
<stop stop-opacity="0.12"/>
<stop offset="0.55" stop-opacity="0.09"/>
<stop offset="1" stop-opacity="0.02"/>
</linearGradient>
<clipPath id="clip0">
<rect x="65.4241" width="312.124" height="180" transform="rotate(12 65.4241 0)" fill="white"/>
</clipPath>
</defs>
</svg>
