<svg width="456" height="300" viewBox="0 0 456 300" fill="none" xmlns="http://www.w3.org/2000/svg">
<g filter="url(#filter0_d)">
<g clip-path="url(#clip0)">
<path opacity="0.1" d="M312.83 39.7623V200.238C312.832 205.46 311.804 210.631 309.807 215.456C307.809 220.281 304.88 224.665 301.187 228.357C297.495 232.05 293.111 234.979 288.286 236.976C283.461 238.974 278.29 240.001 273.068 240H112.592C103.608 240.012 94.8853 236.97 87.8566 231.374C84.9476 229.056 82.3745 226.346 80.2113 223.321C75.4092 216.582 72.829 208.513 72.8302 200.238V39.7623C72.8302 38.6981 72.8717 37.6453 72.9547 36.6038C73.113 34.5696 73.4297 32.5509 73.9019 30.566C75.9731 21.862 80.9186 14.1105 87.9392 8.56417C94.9598 3.01781 103.645 0.00057916 112.592 0H273.068C282.015 0.00057916 290.701 3.01781 297.721 8.56417C304.742 14.1105 309.687 21.862 311.758 30.566C312.231 32.5509 312.547 34.5696 312.706 36.6038C312.789 37.6453 312.83 38.6981 312.83 39.7623Z" fill="#EF233C"/>
<path opacity="0.1" d="M195.849 126.415H312.83V132.453H195.849V174.34H312.83V180.377H195.849V240H189.811V180.377H72.8302V174.34H189.811V132.453H72.8302V126.415H189.811V84.5283H72.8302V78.4906H189.811V36.6038H72.9547C73.113 34.5696 73.4297 32.5509 73.9019 30.566H189.811V0H195.849V30.566H311.758C312.231 32.5509 312.547 34.5696 312.706 36.6038H195.849V78.4906H312.83V84.5283H195.849V126.415Z" fill="#EF233C"/>
<path opacity="0.1" d="M192.83 300C299.327 300 385.66 286.455 385.66 269.747C385.66 253.039 299.327 239.494 192.83 239.494C86.333 239.494 0 253.039 0 269.747C0 286.455 86.333 300 192.83 300Z" fill="#EF233C"/>
<path d="M340.642 258.872C345.914 258.872 350.189 258.049 350.189 257.034C350.189 256.019 345.914 255.196 340.642 255.196C335.369 255.196 331.094 256.019 331.094 257.034C331.094 258.049 335.369 258.872 340.642 258.872Z" fill="#EF233C"/>
<path d="M340.483 257.713C341.098 257.713 341.596 257.061 341.596 256.257C341.596 255.452 341.098 254.8 340.483 254.8C339.868 254.8 339.37 255.452 339.37 256.257C339.37 257.061 339.868 257.713 340.483 257.713Z" fill="#3F3D56"/>
<path d="M340.483 255.932C341.098 255.932 341.596 255.28 341.596 254.475C341.596 253.671 341.098 253.019 340.483 253.019C339.868 253.019 339.37 253.671 339.37 254.475C339.37 255.28 339.868 255.932 340.483 255.932Z" fill="#3F3D56"/>
<path d="M340.483 254.155C341.098 254.155 341.596 253.503 341.596 252.698C341.596 251.894 341.098 251.241 340.483 251.241C339.868 251.241 339.37 251.894 339.37 252.698C339.37 253.503 339.868 254.155 340.483 254.155Z" fill="#3F3D56"/>
<path d="M340.483 252.377C341.098 252.377 341.596 251.725 341.596 250.921C341.596 250.116 341.098 249.464 340.483 249.464C339.868 249.464 339.37 250.116 339.37 250.921C339.37 251.725 339.868 252.377 340.483 252.377Z" fill="#3F3D56"/>
<path d="M340.483 250.596C341.098 250.596 341.596 249.944 341.596 249.14C341.596 248.335 341.098 247.683 340.483 247.683C339.868 247.683 339.37 248.335 339.37 249.14C339.37 249.944 339.868 250.596 340.483 250.596Z" fill="#3F3D56"/>
<path d="M340.483 248.819C341.098 248.819 341.596 248.167 341.596 247.362C341.596 246.558 341.098 245.906 340.483 245.906C339.868 245.906 339.37 246.558 339.37 247.362C339.37 248.167 339.868 248.819 340.483 248.819Z" fill="#3F3D56"/>
<path d="M340.483 247.042C341.098 247.042 341.596 246.389 341.596 245.585C341.596 244.781 341.098 244.128 340.483 244.128C339.868 244.128 339.37 244.781 339.37 245.585C339.37 246.389 339.868 247.042 340.483 247.042Z" fill="#3F3D56"/>
<path d="M344.642 233.415C344.794 233.222 344.933 233.017 345.057 232.804L342.136 232.325L345.294 232.347C345.597 231.688 345.762 230.974 345.779 230.248C345.797 229.523 345.667 228.802 345.396 228.128L341.159 230.328L345.068 227.453C344.703 226.817 344.211 226.262 343.622 225.825C343.033 225.388 342.361 225.077 341.646 224.911C340.931 224.746 340.19 224.73 339.469 224.865C338.748 224.999 338.063 225.281 337.456 225.692C336.848 226.104 336.333 226.636 335.941 227.256C335.549 227.876 335.29 228.57 335.178 229.295C335.067 230.02 335.107 230.76 335.295 231.469C335.483 232.178 335.816 232.841 336.272 233.415C336.036 233.716 335.832 234.041 335.664 234.385L339.438 236.355L335.396 234.996C335.111 235.835 335.04 236.732 335.19 237.605C335.339 238.478 335.705 239.3 336.253 239.996C335.635 240.782 335.251 241.725 335.144 242.719C335.037 243.712 335.212 244.716 335.648 245.615C336.085 246.513 336.765 247.271 337.612 247.801C338.459 248.332 339.438 248.613 340.438 248.613C341.437 248.613 342.416 248.332 343.263 247.801C344.11 247.271 344.791 246.513 345.227 245.615C345.664 244.716 345.839 243.712 345.732 242.719C345.625 241.725 345.24 240.782 344.623 239.996C345.361 239.058 345.762 237.899 345.762 236.706C345.762 235.512 345.361 234.353 344.623 233.415H344.642Z" fill="#EF233C"/>
<path opacity="0.1" d="M335.132 236.706C335.128 237.899 335.527 239.058 336.264 239.996C335.646 240.782 335.262 241.725 335.155 242.718C335.048 243.712 335.223 244.716 335.66 245.614C336.096 246.513 336.777 247.271 337.624 247.801C338.471 248.331 339.45 248.613 340.449 248.613C341.448 248.613 342.427 248.331 343.274 247.801C344.121 247.271 344.802 246.513 345.239 245.614C345.675 244.716 345.85 243.712 345.743 242.718C345.636 241.725 345.252 240.782 344.634 239.996C345.355 239.091 335.132 236.109 335.132 236.706Z" fill="black"/>
<path d="M305.472 210.189H77.9245V262.453H305.472V210.189Z" fill="#46455B"/>
<path d="M79.434 156.038L57.9245 172.264L74.5283 187.358L83.9623 172.264L96.7925 156.038H79.434Z" fill="#46455B"/>
<path d="M301.698 175.66L298.679 172.264L279.434 161.321L297.17 160.943L324.717 172.264L313.396 179.434L301.698 175.66Z" fill="#46455B"/>
<path d="M77.9245 176.415L96.7924 156.038V202.83L83.9622 213.396L76.0377 202.453L77.9245 176.415Z" fill="#46455B"/>
<path d="M302.075 184.717L298.679 172.264L292.264 163.962L279.434 161.321V213.396H305.472L302.075 184.717Z" fill="#46455B"/>
<path d="M100.962 142.075H277.151C278.707 142.075 280.2 142.694 281.3 143.794C282.401 144.895 283.019 146.387 283.019 147.943V201.698H95.0943V147.943C95.0943 146.387 95.7126 144.895 96.813 143.794C97.9135 142.694 99.406 142.075 100.962 142.075Z" fill="#46455B"/>
<path d="M83.9623 213.396L96.7925 197.547H279.434L298.679 213.396H83.9623Z" fill="#46455B"/>
<path opacity="0.05" d="M83.9623 213.396L96.7925 197.547H279.434L298.679 213.396H83.9623Z" fill="black"/>
<path d="M83.9623 172.264H57.9245V262.453H83.9623V172.264Z" fill="#46455B"/>
<path opacity="0.05" d="M83.9623 172.264H57.9245V262.453H83.9623V172.264Z" fill="white"/>
<path d="M324.717 172.264H298.679V262.453H324.717V172.264Z" fill="#46455B"/>
<path opacity="0.05" d="M324.717 172.264H298.679V262.453H324.717V172.264Z" fill="white"/>
<path d="M166.038 155.472C182.71 155.472 196.226 137.648 196.226 115.66C196.226 93.6733 182.71 75.8491 166.038 75.8491C149.365 75.8491 135.849 93.6733 135.849 115.66C135.849 137.648 149.365 155.472 166.038 155.472Z" fill="#2F2E41"/>
<path d="M179.245 98.4905H145.66V145.283H179.245V98.4905Z" fill="#2F2E41"/>
<path opacity="0.1" d="M179.245 98.4905H145.66V145.283H179.245V98.4905Z" fill="black"/>
<path d="M148.098 125.932C147.047 127.212 145.691 128.206 144.154 128.822C142.617 129.438 140.949 129.656 139.306 129.457C139.155 131.804 140.747 133.864 142.253 135.672L154.038 149.811C154.084 149.923 154.16 150.021 154.258 150.092C154.356 150.164 154.472 150.207 154.593 150.217C154.714 150.227 154.835 150.204 154.943 150.15C155.052 150.095 155.143 150.012 155.208 149.91L173.208 132.834C171.411 133.589 169.287 132.393 168.302 130.71C167.317 129.026 167.219 127.004 167.128 125.049C166.997 122.131 166.872 119.215 166.751 116.302C166.721 115.653 166.657 114.936 166.177 114.498C165.804 114.218 165.359 114.049 164.894 114.011C162.053 113.525 153.196 110.993 151.555 113.981C150.8 115.343 151.14 118 150.8 119.54C150.291 121.823 149.57 124.098 148.098 125.932Z" fill="#FBBEBE"/>
<path opacity="0.1" d="M148.098 125.932C147.047 127.212 145.691 128.206 144.154 128.822C142.617 129.438 140.949 129.656 139.306 129.457C139.155 131.804 140.747 133.864 142.253 135.672L154.038 149.811C154.084 149.923 154.16 150.021 154.258 150.092C154.356 150.164 154.472 150.207 154.593 150.217C154.714 150.227 154.835 150.204 154.943 150.15C155.052 150.095 155.143 150.012 155.208 149.91L173.208 132.834C171.411 133.589 169.287 132.393 168.302 130.71C167.317 129.026 167.219 127.004 167.128 125.049C166.997 122.131 166.872 119.215 166.751 116.302C166.721 115.653 166.657 114.936 166.177 114.498C165.804 114.218 165.359 114.049 164.894 114.011C162.053 113.525 153.196 110.993 151.555 113.981C150.8 115.343 151.14 118 150.8 119.54C150.291 121.823 149.57 124.098 148.098 125.932Z" fill="black"/>
<path d="M161.132 123.019C170.927 123.019 178.868 115.078 178.868 105.283C178.868 95.4877 170.927 87.5471 161.132 87.5471C151.337 87.5471 143.396 95.4877 143.396 105.283C143.396 115.078 151.337 123.019 161.132 123.019Z" fill="#FBBEBE"/>
<path d="M154.717 140.996L151.872 132.026C150.74 128.434 149.132 124.362 145.547 123.204C143.283 122.479 140.842 123.143 138.483 122.943C133.894 122.547 129.426 118.898 125.136 120.57C119.853 122.623 119.898 130.736 115.208 133.921C115.208 141.502 117.657 148.543 118.981 156.004C120.306 163.464 120.687 171.517 117.23 178.268C115.766 181.128 113.672 183.619 112.109 186.426C109.548 191.056 108.501 196.371 109.113 201.626C129.143 201.878 149.176 201.938 169.211 201.808C169.026 199.211 167.868 196.653 167.679 194.057C167.566 193.273 167.628 192.474 167.86 191.717C168.302 190.585 169.426 189.909 170.389 189.174C171.678 188.18 172.77 186.954 173.608 185.558C174.943 183.336 175.577 180.774 176.196 178.253L183.698 147.687C184.592 144.045 185.46 140.072 183.906 136.66C182.2 132.913 178.109 130.966 174.332 129.325C172.068 128.332 169.464 127.328 167.162 128.241C165.275 128.996 164.091 130.804 162.898 132.441C160.591 135.667 157.836 138.548 154.717 140.996Z" fill="#F86D70"/>
<path opacity="0.1" d="M115.008 136.611C114.419 138.815 114.747 141.17 114.313 143.404C113.585 147.143 110.857 150.117 109.03 153.453C106.2 158.633 105.483 164.707 107.03 170.404C107.491 172.068 108.309 173.849 109.925 174.46C111.079 174.902 112.37 174.626 113.604 174.736C115.234 174.879 116.928 175.687 118.434 175.045C120.294 174.253 120.664 171.834 120.868 169.823C121.337 165.158 122.342 160.563 123.86 156.128C125.37 151.69 127.441 147.287 127.411 142.596C127.389 139.29 123.155 142.332 120.392 140.374C117.275 138.177 116.03 132.804 115.008 136.611Z" fill="black"/>
<path d="M114.253 136.234C113.664 138.438 113.992 140.792 113.558 143.026C112.83 146.766 110.102 149.74 108.275 153.075C105.445 158.255 104.728 164.33 106.275 170.026C106.736 171.691 107.555 173.472 109.17 174.083C110.325 174.524 111.615 174.249 112.849 174.358C114.479 174.502 116.174 175.309 117.679 174.668C119.54 173.875 119.909 171.457 120.113 169.445C120.583 164.781 121.587 160.186 123.106 155.751C124.615 151.313 126.687 146.909 126.657 142.219C126.634 138.913 125.181 135.26 122.419 133.302C119.302 131.106 115.275 132.426 114.253 136.234Z" fill="#F86D70"/>
<path d="M140.075 115.483C142.34 114.215 144.57 112.842 146.902 111.664C150.547 109.842 154.645 108.419 157.513 105.626C157.661 105.486 157.842 105.385 158.04 105.334C158.238 105.283 158.445 105.283 158.642 105.335C158.84 105.387 159.021 105.488 159.168 105.63C159.315 105.771 159.424 105.948 159.483 106.143C160.717 110.162 162.177 114.108 163.857 117.962C165.306 121.283 166.921 124.543 168.008 128C168.762 130.404 169.234 132.906 170.174 135.219C171.4 138.238 173.358 140.925 175.302 143.558C176.015 144.532 176.751 145.521 177.751 146.2C179.155 147.155 181.249 147.766 181.396 149.457C179.574 150.774 177.094 150.34 174.849 150.321C172.604 150.302 170.321 150.766 168.102 151.313C165.51 151.905 162.982 152.749 160.555 153.834C158.192 154.947 156.026 156.411 153.838 157.868L133.774 171.328C132.298 169.641 132.355 167.177 132.038 164.943C131.767 163.336 131.379 161.75 130.875 160.2L128.875 153.464C127.925 150.264 126.989 147.068 125.917 143.902C125.034 141.26 124.053 138.592 122.325 136.411C120.242 133.77 117.245 132.057 114.645 129.932C113.725 129.177 112.815 128.317 112.472 127.177C112.358 126.805 112.326 126.413 112.378 126.027C112.43 125.642 112.565 125.272 112.774 124.943C113.325 124.147 114.113 124.264 114.989 124.125C117.125 123.785 119.243 123.356 121.343 122.838C125.511 121.804 129.584 120.423 133.521 118.709C135.757 117.743 137.942 116.668 140.075 115.483Z" fill="#BBBDC8"/>
<path opacity="0.1" d="M140.898 118.275C142.887 117.173 144.819 115.966 146.853 114.947C150.038 113.355 153.608 112.117 156.109 109.69C156.238 109.566 156.396 109.477 156.569 109.432C156.742 109.387 156.923 109.387 157.096 109.432C157.269 109.477 157.427 109.566 157.556 109.69C157.684 109.814 157.779 109.969 157.83 110.14C158.906 113.645 160.18 117.087 161.645 120.449C162.909 123.347 164.317 126.192 165.257 129.207C165.906 131.302 166.325 133.472 167.143 135.506C168.211 138.147 169.925 140.483 171.615 142.781C172.192 143.663 172.914 144.442 173.751 145.083C174.981 145.917 176.808 146.449 176.932 147.928C175.343 149.06 173.181 148.683 171.223 148.683C169.233 148.723 167.256 149.015 165.34 149.551C163.08 150.066 160.877 150.803 158.762 151.751C156.722 152.778 154.763 153.959 152.902 155.283L135.396 167.007C134.109 165.536 134.162 163.373 133.887 161.434C133.652 160.027 133.314 158.64 132.875 157.283L131.128 151.407C130.298 148.615 129.468 145.826 128.547 143.064C127.792 140.758 126.925 138.434 125.415 136.528C123.596 134.23 120.985 132.732 118.713 130.868C117.913 130.215 117.117 129.46 116.826 128.468C116.727 128.143 116.699 127.801 116.745 127.465C116.79 127.129 116.908 126.807 117.091 126.521C117.57 125.823 118.26 125.924 119.023 125.804C120.887 125.509 122.735 125.132 124.566 124.672C128.202 123.772 131.755 122.568 135.189 121.072C137.138 120.231 139.042 119.299 140.898 118.275Z" fill="black"/>
<path d="M133.574 133.638C134.407 133.638 135.083 132.962 135.083 132.128C135.083 131.295 134.407 130.619 133.574 130.619C132.74 130.619 132.064 131.295 132.064 132.128C132.064 132.962 132.74 133.638 133.574 133.638Z" fill="#BBBDC8"/>
<path d="M149.668 126.185C150.502 126.185 151.177 125.509 151.177 124.675C151.177 123.842 150.502 123.166 149.668 123.166C148.834 123.166 148.159 123.842 148.159 124.675C148.159 125.509 148.834 126.185 149.668 126.185Z" fill="#BBBDC8"/>
<path d="M141.185 150.076C142.019 150.076 142.694 149.4 142.694 148.566C142.694 147.732 142.019 147.057 141.185 147.057C140.351 147.057 139.675 147.732 139.675 148.566C139.675 149.4 140.351 150.076 141.185 150.076Z" fill="#BBBDC8"/>
<path d="M157.279 142.623C158.113 142.623 158.789 141.947 158.789 141.113C158.789 140.28 158.113 139.604 157.279 139.604C156.446 139.604 155.77 140.28 155.77 141.113C155.77 141.947 156.446 142.623 157.279 142.623Z" fill="#BBBDC8"/>
<path d="M117.845 158.053C119.355 157.619 120.943 157.143 122.053 156.03C122.913 155.162 123.392 153.996 123.996 152.932C125.2 150.808 127.106 148.925 129.502 148.457C131.898 147.989 134.713 149.374 135.226 151.762C135.558 153.317 134.909 154.898 134.264 156.355C133.298 158.536 132.208 160.823 130.215 162.14C128.472 163.291 126.249 163.543 124.536 164.74C123.026 165.796 122.075 167.468 120.762 168.77C119.046 170.46 116.775 171.473 114.37 171.619C114.005 171.662 113.634 171.611 113.294 171.472C112.961 171.274 112.681 170.998 112.479 170.668C111.37 169.158 110.245 167.604 109.657 165.819C107.608 159.596 113.408 159.325 117.845 158.053Z" fill="#FBBEBE"/>
<path d="M158.049 158.883C157.54 155.842 157.472 152.525 155.592 150.079C154.019 148.038 151.404 147.004 148.83 146.83C148.075 146.777 147.189 146.853 146.751 147.472C146.502 147.908 146.402 148.415 146.468 148.913C146.627 152.778 148.069 156.48 150.566 159.434C151.506 160.536 152.596 161.54 153.253 162.83C153.826 163.943 154.038 165.215 154.57 166.347C155.264 167.823 156.457 168.989 157.37 170.347C158.665 172.293 159.336 174.587 159.294 176.925C160.291 175.298 160.17 173.264 160.264 171.359C160.389 168.675 162.268 167.208 161.049 165.019C159.83 162.83 158.491 161.543 158.049 158.883Z" fill="#FBBEBE"/>
<path opacity="0.1" d="M171.977 155.853C171.023 158.343 170.532 161.008 169.408 163.426C169.111 164.183 168.603 164.838 167.943 165.313C166.736 166.068 165.14 165.6 163.94 164.849C162.74 164.098 161.675 163.064 160.366 162.566C159.777 168.298 155.015 173.343 149.325 174.264C152.721 177.385 156.298 180.853 157.064 185.396C157.208 186.23 157.257 187.117 157.702 187.838C158.419 188.989 159.932 189.366 161.291 189.347C164.743 189.321 167.909 187.498 170.792 185.574C171.766 184.932 172.751 184.245 173.4 183.279C174.049 182.313 174.328 181.087 174.574 179.917C176.242 171.99 177.908 164.059 179.574 156.125C180.026 153.97 179.951 149.736 176.608 150.162C174.34 150.494 172.679 154.03 171.977 155.853Z" fill="black"/>
<path d="M172.732 155.853C171.777 158.343 171.287 161.008 170.162 163.426C169.866 164.183 169.357 164.838 168.698 165.313C167.491 166.068 165.894 165.6 164.694 164.849C163.494 164.098 162.43 163.064 161.121 162.566C160.532 168.298 155.77 173.343 150.079 174.264C153.475 177.385 157.053 180.853 157.819 185.396C157.962 186.23 158.011 187.117 158.457 187.838C159.174 188.989 160.687 189.366 162.045 189.347C165.498 189.321 168.664 187.498 171.547 185.574C172.521 184.932 173.506 184.245 174.155 183.279C174.804 182.313 175.083 181.087 175.328 179.917C176.996 171.99 178.663 164.059 180.328 156.125C180.781 153.97 180.706 149.736 177.362 150.162C175.094 150.494 173.434 154.03 172.732 155.853Z" fill="#F86D70"/>
<path d="M117.683 170.57C117.547 171.26 116.864 171.679 116.245 172.011C115.049 172.657 113.747 173.325 112.4 173.143C111.053 172.962 109.925 171.966 109.041 170.909C108.602 170.407 108.222 169.855 107.909 169.264C106.547 166.574 106.4 155.125 112.03 158.86C114.355 160.408 113.045 163.049 113.336 165.325C113.463 166.674 114.002 167.952 114.879 168.985C115.049 169.181 117.596 171.015 117.683 170.57Z" fill="#F86D70"/>
<path d="M165.849 101.132C175.123 101.132 182.641 97.5841 182.641 93.2075C182.641 88.8309 175.123 85.283 165.849 85.283C156.575 85.283 149.057 88.8309 149.057 93.2075C149.057 97.5841 156.575 101.132 165.849 101.132Z" fill="#2F2E41"/>
<path opacity="0.1" d="M166.604 98.4905C157.517 98.4905 150.125 95.0942 149.826 90.8301C149.344 91.53 149.082 92.3576 149.072 93.2074C149.072 97.5848 156.589 101.132 165.864 101.132C175.14 101.132 182.657 97.5848 182.657 93.2074C182.657 93.1169 182.657 93.0301 182.657 92.9433C180.487 96.1584 174.125 98.4905 166.604 98.4905Z" fill="black"/>
<path d="M239.623 154.717C262.548 154.717 281.132 137.822 281.132 116.981C281.132 96.1403 262.548 79.2454 239.623 79.2454C216.698 79.2454 198.113 96.1403 198.113 116.981C198.113 137.822 216.698 154.717 239.623 154.717Z" fill="#2F2E41"/>
<path opacity="0.1" d="M239.623 144.906C218.6 144.906 201.226 130.694 198.491 112.264C198.241 113.951 198.115 115.653 198.113 117.358C198.113 138.2 216.698 155.094 239.623 155.094C262.547 155.094 281.132 138.2 281.132 117.358C281.131 115.653 281.005 113.951 280.755 112.264C278.019 130.694 260.645 144.906 239.623 144.906Z" fill="black"/>
<path d="M238.868 145.283C249.914 145.283 258.868 133.203 258.868 118.302C258.868 103.401 249.914 91.3208 238.868 91.3208C227.822 91.3208 218.868 103.401 218.868 118.302C218.868 133.203 227.822 145.283 238.868 145.283Z" fill="#2F2E41"/>
<path opacity="0.1" d="M238.868 145.283C249.914 145.283 258.868 133.203 258.868 118.302C258.868 103.401 249.914 91.3208 238.868 91.3208C227.822 91.3208 218.868 103.401 218.868 118.302C218.868 133.203 227.822 145.283 238.868 145.283Z" fill="black"/>
<path d="M229.672 131.977C228.917 133.841 227.408 135.823 225.143 135.966C228.162 138.445 231.219 140.951 234.826 142.758C238.434 144.566 242.706 145.626 246.811 144.977C249.709 144.521 252.343 143.249 254.804 141.857C258.992 139.487 263.106 136.374 264.166 132.155C261.021 132.313 257.869 132.253 254.732 131.977C253.106 131.838 251.442 131.623 250.03 130.913C249.164 130.456 248.398 129.829 247.778 129.071C247.157 128.313 246.695 127.438 246.419 126.498C245.857 124.717 245.868 122.841 245.97 120.996C246.026 119.921 246.068 118.732 245.242 117.909C244.415 117.087 243.049 116.977 241.808 116.951C239.31 116.9 236.813 117.048 234.34 117.392C233.042 117.527 231.756 117.76 230.494 118.091C228.857 118.589 229.011 118.396 229.408 119.766C230.638 123.962 231.389 127.736 229.672 131.977Z" fill="#A0616A"/>
<path opacity="0.1" d="M229.672 131.977C228.917 133.841 227.408 135.823 225.143 135.966C228.162 138.445 231.219 140.951 234.826 142.758C238.434 144.566 242.706 145.626 246.811 144.977C249.709 144.521 252.343 143.249 254.804 141.857C258.992 139.487 263.106 136.374 264.166 132.155C261.021 132.313 257.869 132.253 254.732 131.977C253.106 131.838 251.442 131.623 250.03 130.913C249.164 130.456 248.398 129.829 247.778 129.071C247.157 128.313 246.695 127.438 246.419 126.498C245.857 124.717 245.868 122.841 245.97 120.996C246.026 119.921 246.068 118.732 245.242 117.909C244.415 117.087 243.049 116.977 241.808 116.951C239.31 116.9 236.813 117.048 234.34 117.392C233.042 117.527 231.756 117.76 230.494 118.091C228.857 118.589 229.011 118.396 229.408 119.766C230.638 123.962 231.389 127.736 229.672 131.977Z" fill="black"/>
<path d="M238.302 128.113C248.097 128.113 256.038 120.173 256.038 110.377C256.038 100.582 248.097 92.6416 238.302 92.6416C228.507 92.6416 220.566 100.582 220.566 110.377C220.566 120.173 228.507 128.113 238.302 128.113Z" fill="#A0616A"/>
<path d="M232.189 133.54C231.03 132.151 229.838 130.732 228.294 129.789C225.766 128.238 222.634 128.14 219.672 128.091C216.46 128.034 212.97 128.064 210.43 130.03C209.298 130.917 208.43 132.132 207.604 133.324L196.845 148.796C196.426 149.4 195.985 150.083 196.091 150.811C196.211 151.335 196.472 151.817 196.845 152.204L208.679 166.981C209.355 167.823 210.053 168.709 210.279 169.766C210.506 170.823 210.226 171.932 209.864 172.958C208.434 177.03 205.713 180.883 205.962 185.174C206.14 187.974 207.604 190.547 209.396 192.721C213.509 197.675 219.43 200.898 225.623 202.657C231.815 204.415 238.317 204.8 244.758 204.841C256.902 204.921 269.664 203.596 279.694 196.747L271.811 189.321C270.253 187.849 268.619 186.264 268.079 184.189C267.702 182.792 267.883 181.321 268.053 179.891C268.37 177.275 268.687 174.641 269.532 172.151C271.883 165.211 277.924 160.272 281.955 154.155C282.46 153.4 282.951 152.532 282.894 151.615C282.849 150.841 282.419 150.151 282 149.502C280.158 146.645 278.249 143.804 276.913 140.679C275.917 138.355 275.241 135.883 274.008 133.675C272.774 131.468 270.815 129.483 268.347 129.019C265.17 128.423 262.072 130.411 258.845 130.547C256.483 130.649 254.019 129.762 251.811 130.604C249.192 131.604 248.038 134.555 246.57 136.951C245.487 138.736 242.257 143.619 239.725 142.419C238.347 141.762 237.083 139.4 236.094 138.241L232.189 133.54Z" fill="#F98A8D"/>
<path d="M246.317 145.536C245.719 145.199 245.025 145.074 244.347 145.181C244.012 145.245 243.708 145.419 243.482 145.674C243.256 145.929 243.121 146.252 243.098 146.592L242.008 146.528C241.882 146.515 241.754 146.521 241.63 146.547C241.473 146.581 241.335 146.676 241.248 146.812C241.16 146.947 241.13 147.112 241.164 147.27C241.198 147.427 241.293 147.565 241.429 147.652C241.564 147.74 241.729 147.77 241.887 147.736C241.352 147.948 240.874 148.284 240.494 148.717C240.21 149.145 240.105 149.668 240.204 150.173C240.303 150.677 240.597 151.122 241.023 151.411C241.469 151.668 241.994 151.753 242.498 151.65C243.002 151.547 243.452 151.264 243.762 150.853C243.699 151.078 243.717 151.319 243.813 151.532C243.91 151.746 244.079 151.918 244.291 152.019C246.336 153.124 247.377 151.623 247.657 149.883C247.974 147.973 248.381 146.555 246.317 145.536Z" fill="#FFE9B3"/>
<path opacity="0.15" d="M246.317 145.536C245.719 145.199 245.025 145.074 244.347 145.181C244.012 145.245 243.708 145.419 243.482 145.674C243.256 145.929 243.121 146.252 243.098 146.592L242.008 146.528C241.882 146.515 241.754 146.521 241.63 146.547C241.473 146.581 241.335 146.676 241.248 146.812C241.16 146.947 241.13 147.112 241.164 147.27C241.198 147.427 241.293 147.565 241.429 147.652C241.564 147.74 241.729 147.77 241.887 147.736C241.352 147.948 240.874 148.284 240.494 148.717C240.21 149.145 240.105 149.668 240.204 150.173C240.303 150.677 240.597 151.122 241.023 151.411C241.469 151.668 241.994 151.753 242.498 151.65C243.002 151.547 243.452 151.264 243.762 150.853C243.699 151.078 243.717 151.319 243.813 151.532C243.91 151.746 244.079 151.918 244.291 152.019C246.336 153.124 247.377 151.623 247.657 149.883C247.974 147.973 248.381 146.555 246.317 145.536Z" fill="black"/>
<path d="M251.887 144.253C251.289 143.915 250.594 143.791 249.917 143.902C249.583 143.965 249.279 144.137 249.053 144.392C248.828 144.647 248.693 144.97 248.672 145.309L247.581 145.245C247.455 145.232 247.328 145.239 247.204 145.264C247.056 145.31 246.931 145.41 246.852 145.543C246.774 145.676 246.747 145.833 246.777 145.985C246.817 146.134 246.912 146.263 247.043 146.347C247.173 146.43 247.331 146.461 247.483 146.434C246.948 146.647 246.471 146.983 246.091 147.415C245.807 147.843 245.703 148.366 245.802 148.871C245.901 149.375 246.194 149.82 246.619 150.109C247.065 150.367 247.59 150.452 248.095 150.35C248.6 150.248 249.051 149.965 249.362 149.555C249.298 149.779 249.316 150.019 249.412 150.232C249.508 150.444 249.676 150.616 249.887 150.717C251.936 151.826 252.974 150.34 253.257 148.585C253.547 146.691 253.962 145.272 251.887 144.253Z" fill="#FFE9B3"/>
<path d="M256.43 144.902C255.834 144.565 255.14 144.442 254.464 144.551C254.129 144.613 253.824 144.785 253.598 145.04C253.372 145.295 253.237 145.618 253.215 145.959L252.125 145.894C251.999 145.881 251.871 145.887 251.747 145.913C251.6 145.96 251.475 146.059 251.396 146.192C251.317 146.325 251.29 146.482 251.321 146.634C251.361 146.784 251.456 146.913 251.586 146.996C251.717 147.079 251.874 147.11 252.026 147.083C251.491 147.294 251.013 147.631 250.634 148.064C250.349 148.492 250.245 149.015 250.344 149.52C250.443 150.025 250.737 150.47 251.162 150.759C251.608 151.016 252.133 151.102 252.637 151C253.142 150.898 253.592 150.615 253.902 150.204C253.838 150.429 253.857 150.669 253.953 150.882C254.05 151.094 254.219 151.266 254.43 151.366C256.475 152.476 257.513 150.97 257.796 149.234C258.091 147.359 258.491 145.921 256.43 144.902Z" fill="#FFE9B3"/>
<path opacity="0.15" d="M256.43 144.902C255.834 144.565 255.14 144.442 254.464 144.551C254.129 144.613 253.824 144.785 253.598 145.04C253.372 145.295 253.237 145.618 253.215 145.959L252.125 145.894C251.999 145.881 251.871 145.887 251.747 145.913C251.6 145.96 251.475 146.059 251.396 146.192C251.317 146.325 251.29 146.482 251.321 146.634C251.361 146.784 251.456 146.913 251.586 146.996C251.717 147.079 251.874 147.11 252.026 147.083C251.491 147.294 251.013 147.631 250.634 148.064C250.349 148.492 250.245 149.015 250.344 149.52C250.443 150.025 250.737 150.47 251.162 150.759C251.608 151.016 252.133 151.102 252.637 151C253.142 150.898 253.592 150.615 253.902 150.204C253.838 150.429 253.857 150.669 253.953 150.882C254.05 151.094 254.219 151.266 254.43 151.366C256.475 152.476 257.513 150.97 257.796 149.234C258.091 147.359 258.491 145.921 256.43 144.902Z" fill="black"/>
<path d="M267.547 147.547V188.083C267.546 188.341 267.443 188.588 267.261 188.77C267.079 188.953 266.831 189.056 266.574 189.057H234.936C234.678 189.056 234.431 188.953 234.249 188.77C234.066 188.588 233.963 188.341 233.962 188.083V147.547C233.962 147.385 234.002 147.226 234.079 147.084C234.155 146.941 234.266 146.82 234.402 146.731C234.537 146.643 234.692 146.589 234.853 146.575C235.014 146.562 235.176 146.588 235.325 146.653C236.13 147 236.933 147.321 237.736 147.615C238.868 148.03 240 148.391 241.132 148.698C242.264 149.004 243.396 149.256 244.528 149.453C245.66 149.649 246.792 149.8 247.925 149.89C249.057 149.981 250.189 150.019 251.321 149.996C252.453 149.973 253.585 149.909 254.717 149.785C255.849 149.66 256.981 149.475 258.113 149.238C259.245 149 260.377 148.721 261.509 148.377C262.389 148.109 263.272 147.811 264.151 147.479C264.83 147.226 265.506 146.951 266.185 146.657C266.333 146.592 266.495 146.565 266.655 146.579C266.816 146.593 266.971 146.646 267.106 146.734C267.241 146.823 267.352 146.943 267.429 147.085C267.506 147.227 267.547 147.386 267.547 147.547Z" fill="#BBBDC8"/>
<path d="M241.132 148.698V189.076H237.736V147.615C238.868 148.03 240 148.391 241.132 148.698Z" fill="white"/>
<path d="M247.925 149.887V189.057H244.528V149.434C245.66 149.653 246.792 149.796 247.925 149.887Z" fill="white"/>
<path d="M254.717 149.781V189.057H251.321V150C252.453 149.98 253.585 149.907 254.717 149.781Z" fill="white"/>
<path d="M261.509 148.374V189.057H258.113V149.245C259.245 149.009 260.377 148.718 261.509 148.374Z" fill="white"/>
<path opacity="0.1" d="M267.547 147.547V188.083C267.546 188.341 267.443 188.588 267.261 188.77C267.079 188.953 266.831 189.056 266.574 189.057H264.151V147.475C264.83 147.223 265.506 146.947 266.185 146.653C266.333 146.588 266.495 146.562 266.656 146.575C266.818 146.589 266.973 146.643 267.108 146.731C267.243 146.82 267.354 146.941 267.431 147.084C267.507 147.226 267.547 147.385 267.547 147.547Z" fill="black"/>
<path d="M242.796 143.604C242.2 143.267 241.506 143.143 240.83 143.253C240.495 143.315 240.19 143.487 239.964 143.742C239.738 143.997 239.603 144.32 239.581 144.66L238.491 144.596C238.365 144.583 238.237 144.589 238.113 144.615C237.966 144.662 237.841 144.761 237.762 144.894C237.683 145.027 237.656 145.184 237.687 145.336C237.727 145.485 237.822 145.615 237.952 145.698C238.083 145.781 238.24 145.812 238.392 145.785C237.857 145.996 237.379 146.333 237 146.766C236.715 147.194 236.611 147.717 236.71 148.222C236.809 148.726 237.103 149.172 237.528 149.46C237.974 149.717 238.499 149.803 239.003 149.701C239.507 149.599 239.957 149.316 240.268 148.906C240.204 149.131 240.223 149.371 240.319 149.584C240.416 149.796 240.585 149.968 240.796 150.068C242.842 151.174 243.879 149.672 244.162 147.936C244.457 146.042 244.864 144.623 242.796 143.604Z" fill="#FFE9B3"/>
<path d="M248.457 137.189C247.86 136.852 247.167 136.728 246.491 136.838C246.155 136.9 245.851 137.072 245.624 137.327C245.398 137.582 245.263 137.905 245.242 138.245L244.151 138.181C244.025 138.168 243.898 138.174 243.774 138.2C243.626 138.246 243.501 138.345 243.422 138.479C243.344 138.612 243.317 138.769 243.347 138.921C243.387 139.07 243.482 139.199 243.613 139.282C243.743 139.366 243.9 139.397 244.053 139.37C243.517 139.581 243.04 139.917 242.66 140.351C242.376 140.779 242.271 141.302 242.37 141.807C242.469 142.311 242.763 142.756 243.189 143.045C243.635 143.302 244.159 143.388 244.663 143.285C245.168 143.183 245.618 142.901 245.928 142.49C245.865 142.715 245.883 142.956 245.98 143.168C246.076 143.381 246.245 143.553 246.457 143.653C248.502 144.758 249.54 143.256 249.823 141.521C250.117 139.626 250.525 138.207 248.457 137.189Z" fill="#FFE9B3"/>
<path d="M252.302 145.902C252.75 145.381 253.006 144.724 253.03 144.038C253.037 143.696 252.929 143.362 252.724 143.088C252.519 142.815 252.228 142.618 251.898 142.528L252.174 141.472C252.214 141.35 252.233 141.222 252.23 141.094C252.224 140.935 252.155 140.785 252.038 140.677C251.922 140.568 251.767 140.511 251.608 140.517C251.448 140.523 251.298 140.592 251.19 140.709C251.082 140.826 251.024 140.981 251.03 141.14C250.927 140.574 250.69 140.041 250.34 139.585C249.974 139.224 249.48 139.021 248.966 139.021C248.452 139.021 247.958 139.224 247.592 139.585C247.252 139.971 247.064 140.468 247.064 140.983C247.064 141.498 247.252 141.995 247.592 142.381C247.384 142.275 247.144 142.247 246.916 142.301C246.688 142.355 246.487 142.487 246.347 142.676C244.864 144.464 246.136 145.777 247.785 146.393C249.589 147.057 250.902 147.736 252.302 145.902Z" fill="#FFE9B3"/>
<path d="M257.208 145.902C257.655 145.381 257.912 144.724 257.936 144.038C257.943 143.696 257.835 143.362 257.63 143.088C257.425 142.815 257.134 142.618 256.804 142.528L257.079 141.472C257.119 141.35 257.138 141.222 257.136 141.094C257.13 140.935 257.061 140.785 256.944 140.677C256.827 140.568 256.672 140.511 256.513 140.517C256.354 140.523 256.204 140.592 256.096 140.709C255.987 140.826 255.93 140.981 255.936 141.14C255.833 140.574 255.596 140.041 255.245 139.585C254.879 139.224 254.386 139.021 253.872 139.021C253.357 139.021 252.864 139.224 252.498 139.585C252.157 139.971 251.97 140.468 251.97 140.983C251.97 141.498 252.157 141.995 252.498 142.381C252.289 142.275 252.05 142.247 251.822 142.301C251.594 142.355 251.392 142.487 251.253 142.676C249.77 144.464 251.042 145.777 252.691 146.393C254.494 147.057 255.808 147.736 257.208 145.902Z" fill="#FFE9B3"/>
<path d="M260.279 149.128C260.625 148.535 260.758 147.841 260.657 147.162C260.597 146.826 260.428 146.52 260.175 146.291C259.922 146.062 259.6 145.924 259.26 145.898L259.34 144.811C259.359 144.686 259.359 144.559 259.34 144.434C259.304 144.279 259.208 144.144 259.074 144.06C258.939 143.975 258.776 143.947 258.621 143.983C258.466 144.018 258.331 144.114 258.246 144.249C258.162 144.384 258.134 144.547 258.17 144.702C257.962 144.165 257.631 143.684 257.204 143.298C256.778 143.009 256.256 142.899 255.751 142.992C255.245 143.086 254.796 143.374 254.502 143.796C254.24 144.24 254.149 144.764 254.246 145.27C254.344 145.776 254.622 146.229 255.03 146.543C254.806 146.478 254.565 146.494 254.351 146.588C254.137 146.683 253.963 146.85 253.86 147.06C252.728 149.094 254.238 150.151 255.958 150.457C257.826 150.755 259.245 151.181 260.279 149.128Z" fill="#FFE9B3"/>
<path d="M245.185 143.091C245.531 142.497 245.664 141.804 245.562 141.125C245.503 140.789 245.333 140.482 245.081 140.253C244.828 140.024 244.506 139.886 244.166 139.86L244.245 138.774C244.264 138.649 244.264 138.521 244.245 138.396C244.21 138.241 244.114 138.107 243.979 138.022C243.844 137.937 243.682 137.91 243.526 137.945C243.371 137.981 243.237 138.077 243.152 138.211C243.067 138.346 243.04 138.509 243.075 138.664C242.868 138.127 242.537 137.646 242.109 137.26C241.684 136.971 241.162 136.862 240.656 136.955C240.15 137.048 239.702 137.337 239.408 137.759C239.146 138.202 239.055 138.726 239.152 139.232C239.249 139.738 239.528 140.191 239.936 140.506C239.711 140.44 239.471 140.456 239.257 140.551C239.043 140.645 238.869 140.812 238.766 141.023C237.634 143.057 239.143 144.113 240.864 144.419C242.732 144.717 244.151 145.143 245.185 143.091Z" fill="#FFE9B3"/>
<path d="M246.694 141.007C246.097 140.67 245.402 140.545 244.725 140.653C244.39 140.717 244.086 140.89 243.86 141.146C243.634 141.401 243.499 141.724 243.475 142.064L242.385 142C242.259 141.986 242.132 141.993 242.008 142.019C241.85 142.053 241.712 142.148 241.625 142.284C241.537 142.419 241.507 142.584 241.542 142.741C241.576 142.899 241.671 143.037 241.806 143.124C241.942 143.211 242.107 143.241 242.264 143.207C241.729 143.42 241.252 143.756 240.872 144.189C240.587 144.617 240.483 145.14 240.582 145.644C240.681 146.149 240.975 146.594 241.4 146.883C241.846 147.139 242.371 147.224 242.875 147.121C243.38 147.019 243.829 146.735 244.14 146.324C244.076 146.55 244.094 146.791 244.191 147.004C244.287 147.217 244.456 147.39 244.668 147.49C246.713 148.596 247.755 147.094 248.034 145.355C248.351 143.445 248.759 142.026 246.694 141.007Z" fill="#FFE9B3"/>
<path opacity="0.15" d="M246.694 141.007C246.097 140.67 245.402 140.545 244.725 140.653C244.39 140.717 244.086 140.89 243.86 141.146C243.634 141.401 243.499 141.724 243.475 142.064L242.385 142C242.259 141.986 242.132 141.993 242.008 142.019C241.85 142.053 241.712 142.148 241.625 142.284C241.537 142.419 241.507 142.584 241.542 142.741C241.576 142.899 241.671 143.037 241.806 143.124C241.942 143.211 242.107 143.241 242.264 143.207C241.729 143.42 241.252 143.756 240.872 144.189C240.587 144.617 240.483 145.14 240.582 145.644C240.681 146.149 240.975 146.594 241.4 146.883C241.846 147.139 242.371 147.224 242.875 147.121C243.38 147.019 243.829 146.735 244.14 146.324C244.076 146.55 244.094 146.791 244.191 147.004C244.287 147.217 244.456 147.39 244.668 147.49C246.713 148.596 247.755 147.094 248.034 145.355C248.351 143.445 248.759 142.026 246.694 141.007Z" fill="black"/>
<path d="M262.925 142.306C262.327 141.968 261.632 141.844 260.955 141.955C260.62 142.018 260.315 142.19 260.089 142.445C259.863 142.7 259.728 143.022 259.706 143.362L258.619 143.298C258.493 143.285 258.366 143.292 258.242 143.317C258.094 143.363 257.969 143.463 257.89 143.596C257.811 143.729 257.785 143.886 257.815 144.038C257.855 144.187 257.95 144.316 258.081 144.4C258.211 144.483 258.368 144.514 258.521 144.487C257.986 144.7 257.509 145.036 257.128 145.468C256.845 145.896 256.741 146.419 256.84 146.924C256.939 147.428 257.232 147.873 257.657 148.162C258.102 148.419 258.627 148.505 259.131 148.403C259.636 148.301 260.085 148.018 260.396 147.608C260.333 147.833 260.351 148.073 260.448 148.285C260.544 148.498 260.713 148.67 260.925 148.77C262.97 149.876 264.011 148.374 264.291 146.634C264.581 144.743 264.989 143.325 262.925 142.306Z" fill="#FFE9B3"/>
<path opacity="0.15" d="M262.925 142.306C262.327 141.968 261.632 141.844 260.955 141.955C260.62 142.018 260.315 142.19 260.089 142.445C259.863 142.7 259.728 143.022 259.706 143.362L258.619 143.298C258.493 143.285 258.366 143.292 258.242 143.317C258.094 143.363 257.969 143.463 257.89 143.596C257.811 143.729 257.785 143.886 257.815 144.038C257.855 144.187 257.95 144.316 258.081 144.4C258.211 144.483 258.368 144.514 258.521 144.487C257.986 144.7 257.509 145.036 257.128 145.468C256.845 145.896 256.741 146.419 256.84 146.924C256.939 147.428 257.232 147.873 257.657 148.162C258.102 148.419 258.627 148.505 259.131 148.403C259.636 148.301 260.085 148.018 260.396 147.608C260.333 147.833 260.351 148.073 260.448 148.285C260.544 148.498 260.713 148.67 260.925 148.77C262.97 149.876 264.011 148.374 264.291 146.634C264.581 144.743 264.989 143.325 262.925 142.306Z" fill="black"/>
<path d="M253.113 135.891C252.516 135.553 251.821 135.429 251.143 135.54C250.809 135.603 250.504 135.775 250.278 136.03C250.052 136.285 249.917 136.607 249.894 136.947L248.808 136.883C248.682 136.87 248.554 136.876 248.43 136.902C248.283 136.948 248.158 137.048 248.079 137.181C248 137.314 247.973 137.471 248.004 137.623C248.044 137.772 248.139 137.901 248.269 137.985C248.4 138.068 248.557 138.099 248.709 138.072C248.175 138.285 247.698 138.621 247.317 139.053C247.033 139.481 246.93 140.004 247.028 140.508C247.127 141.013 247.421 141.458 247.845 141.747C248.291 142.004 248.816 142.09 249.32 141.988C249.824 141.885 250.274 141.603 250.585 141.193C250.521 141.418 250.54 141.658 250.636 141.87C250.733 142.083 250.902 142.255 251.113 142.355C253.158 143.46 254.2 141.959 254.479 140.219C254.77 138.328 255.177 136.91 253.113 135.891Z" fill="#FFE9B3"/>
<path opacity="0.15" d="M253.113 135.891C252.516 135.553 251.821 135.429 251.143 135.54C250.809 135.603 250.504 135.775 250.278 136.03C250.052 136.285 249.917 136.607 249.894 136.947L248.808 136.883C248.682 136.87 248.554 136.876 248.43 136.902C248.283 136.948 248.158 137.048 248.079 137.181C248 137.314 247.973 137.471 248.004 137.623C248.044 137.772 248.139 137.901 248.269 137.985C248.4 138.068 248.557 138.099 248.709 138.072C248.175 138.285 247.698 138.621 247.317 139.053C247.033 139.481 246.93 140.004 247.028 140.508C247.127 141.013 247.421 141.458 247.845 141.747C248.291 142.004 248.816 142.09 249.32 141.988C249.824 141.885 250.274 141.603 250.585 141.193C250.521 141.418 250.54 141.658 250.636 141.87C250.733 142.083 250.902 142.255 251.113 142.355C253.158 143.46 254.2 141.959 254.479 140.219C254.77 138.328 255.177 136.91 253.113 135.891Z" fill="black"/>
<path d="M245.566 133.627C244.968 133.289 244.274 133.165 243.596 133.276C243.261 133.338 242.957 133.511 242.731 133.766C242.505 134.02 242.37 134.343 242.347 134.683L241.26 134.619C241.134 134.606 241.007 134.612 240.883 134.638C240.736 134.684 240.61 134.783 240.532 134.917C240.453 135.05 240.426 135.207 240.457 135.359C240.497 135.508 240.591 135.637 240.722 135.72C240.853 135.804 241.01 135.835 241.162 135.808C240.627 136.021 240.15 136.357 239.77 136.789C239.486 137.217 239.382 137.74 239.481 138.244C239.58 138.749 239.874 139.194 240.298 139.483C240.744 139.74 241.268 139.826 241.773 139.723C242.277 139.621 242.727 139.339 243.038 138.928C242.974 139.153 242.992 139.393 243.089 139.606C243.186 139.819 243.355 139.991 243.566 140.091C245.611 141.196 246.653 139.694 246.932 137.955C247.223 136.064 247.63 134.645 245.566 133.627Z" fill="#FFE9B3"/>
<path opacity="0.15" d="M245.566 133.627C244.968 133.289 244.274 133.165 243.596 133.276C243.261 133.338 242.957 133.511 242.731 133.766C242.505 134.02 242.37 134.343 242.347 134.683L241.26 134.619C241.134 134.606 241.007 134.612 240.883 134.638C240.736 134.684 240.61 134.783 240.532 134.917C240.453 135.05 240.426 135.207 240.457 135.359C240.497 135.508 240.591 135.637 240.722 135.72C240.853 135.804 241.01 135.835 241.162 135.808C240.627 136.021 240.15 136.357 239.77 136.789C239.486 137.217 239.382 137.74 239.481 138.244C239.58 138.749 239.874 139.194 240.298 139.483C240.744 139.74 241.268 139.826 241.773 139.723C242.277 139.621 242.727 139.339 243.038 138.928C242.974 139.153 242.992 139.393 243.089 139.606C243.186 139.819 243.355 139.991 243.566 140.091C245.611 141.196 246.653 139.694 246.932 137.955C247.223 136.064 247.63 134.645 245.566 133.627Z" fill="black"/>
<path d="M253.868 132.117C253.27 131.78 252.576 131.656 251.898 131.766C251.563 131.829 251.259 132.001 251.033 132.256C250.807 132.511 250.672 132.834 250.649 133.174L249.562 133.109C249.436 133.096 249.309 133.103 249.185 133.128C249.037 133.175 248.912 133.274 248.834 133.407C248.755 133.54 248.728 133.698 248.759 133.849C248.799 133.999 248.893 134.128 249.024 134.211C249.155 134.294 249.312 134.325 249.464 134.298C248.929 134.511 248.452 134.847 248.072 135.279C247.788 135.708 247.684 136.231 247.783 136.735C247.882 137.239 248.175 137.684 248.6 137.974C249.046 138.231 249.57 138.316 250.075 138.214C250.579 138.112 251.029 137.829 251.34 137.419C251.276 137.644 251.294 137.884 251.391 138.097C251.488 138.31 251.657 138.481 251.868 138.581C253.913 139.687 254.955 138.185 255.234 136.445C255.525 134.555 255.932 133.136 253.868 132.117Z" fill="#FFE9B3"/>
<path opacity="0.15" d="M253.868 132.117C253.27 131.78 252.576 131.656 251.898 131.766C251.563 131.829 251.259 132.001 251.033 132.256C250.807 132.511 250.672 132.834 250.649 133.174L249.562 133.109C249.436 133.096 249.309 133.103 249.185 133.128C249.037 133.175 248.912 133.274 248.834 133.407C248.755 133.54 248.728 133.698 248.759 133.849C248.799 133.999 248.893 134.128 249.024 134.211C249.155 134.294 249.312 134.325 249.464 134.298C248.929 134.511 248.452 134.847 248.072 135.279C247.788 135.708 247.684 136.231 247.783 136.735C247.882 137.239 248.175 137.684 248.6 137.974C249.046 138.231 249.57 138.316 250.075 138.214C250.579 138.112 251.029 137.829 251.34 137.419C251.276 137.644 251.294 137.884 251.391 138.097C251.488 138.31 251.657 138.481 251.868 138.581C253.913 139.687 254.955 138.185 255.234 136.445C255.525 134.555 255.932 133.136 253.868 132.117Z" fill="black"/>
<path d="M256.887 134.381C256.289 134.044 255.594 133.92 254.917 134.03C254.582 134.093 254.278 134.265 254.052 134.52C253.826 134.775 253.691 135.098 253.668 135.438L252.581 135.374C252.455 135.361 252.328 135.367 252.204 135.393C252.056 135.439 251.931 135.538 251.852 135.671C251.774 135.804 251.747 135.962 251.777 136.113C251.817 136.263 251.912 136.392 252.043 136.475C252.173 136.558 252.331 136.589 252.483 136.562C251.948 136.775 251.471 137.112 251.091 137.543C250.807 137.972 250.703 138.495 250.802 138.999C250.901 139.503 251.194 139.948 251.619 140.238C252.065 140.495 252.589 140.58 253.094 140.478C253.598 140.376 254.048 140.093 254.358 139.683C254.295 139.908 254.313 140.148 254.41 140.361C254.507 140.574 254.676 140.745 254.887 140.845C256.932 141.951 257.974 140.449 258.253 138.709C258.543 136.819 258.951 135.4 256.887 134.381Z" fill="#FFE9B3"/>
<path opacity="0.15" d="M256.887 134.381C256.289 134.044 255.594 133.92 254.917 134.03C254.582 134.093 254.278 134.265 254.052 134.52C253.826 134.775 253.691 135.098 253.668 135.438L252.581 135.374C252.455 135.361 252.328 135.367 252.204 135.393C252.056 135.439 251.931 135.538 251.852 135.671C251.774 135.804 251.747 135.962 251.777 136.113C251.817 136.263 251.912 136.392 252.043 136.475C252.173 136.558 252.331 136.589 252.483 136.562C251.948 136.775 251.471 137.112 251.091 137.543C250.807 137.972 250.703 138.495 250.802 138.999C250.901 139.503 251.194 139.948 251.619 140.238C252.065 140.495 252.589 140.58 253.094 140.478C253.598 140.376 254.048 140.093 254.358 139.683C254.295 139.908 254.313 140.148 254.41 140.361C254.507 140.574 254.676 140.745 254.887 140.845C256.932 141.951 257.974 140.449 258.253 138.709C258.543 136.819 258.951 135.4 256.887 134.381Z" fill="black"/>
<path d="M238.396 142.306C237.799 141.968 237.104 141.844 236.426 141.955C236.092 142.018 235.787 142.19 235.561 142.445C235.335 142.7 235.2 143.022 235.177 143.362L234.091 143.298C233.965 143.285 233.837 143.292 233.713 143.317C233.566 143.363 233.441 143.463 233.362 143.596C233.283 143.729 233.256 143.886 233.287 144.038C233.327 144.187 233.422 144.316 233.552 144.4C233.683 144.483 233.84 144.514 233.992 144.487C233.458 144.7 232.981 145.036 232.6 145.468C232.316 145.896 232.213 146.419 232.311 146.924C232.41 147.428 232.704 147.873 233.128 148.162C233.574 148.419 234.099 148.505 234.603 148.403C235.107 148.301 235.557 148.018 235.868 147.608C235.804 147.833 235.823 148.073 235.919 148.285C236.016 148.498 236.185 148.67 236.396 148.77C238.442 149.876 239.483 148.374 239.762 146.634C240.053 144.743 240.46 143.325 238.396 142.306Z" fill="#FFE9B3"/>
<path opacity="0.15" d="M238.396 142.306C237.799 141.968 237.104 141.844 236.426 141.955C236.092 142.018 235.787 142.19 235.561 142.445C235.335 142.7 235.2 143.022 235.177 143.362L234.091 143.298C233.965 143.285 233.837 143.292 233.713 143.317C233.566 143.363 233.441 143.463 233.362 143.596C233.283 143.729 233.256 143.886 233.287 144.038C233.327 144.187 233.422 144.316 233.552 144.4C233.683 144.483 233.84 144.514 233.992 144.487C233.458 144.7 232.981 145.036 232.6 145.468C232.316 145.896 232.213 146.419 232.311 146.924C232.41 147.428 232.704 147.873 233.128 148.162C233.574 148.419 234.099 148.505 234.603 148.403C235.107 148.301 235.557 148.018 235.868 147.608C235.804 147.833 235.823 148.073 235.919 148.285C236.016 148.498 236.185 148.67 236.396 148.77C238.442 149.876 239.483 148.374 239.762 146.634C240.053 144.743 240.46 143.325 238.396 142.306Z" fill="black"/>
<path d="M260.283 137.023C259.685 136.685 258.991 136.561 258.313 136.672C257.978 136.734 257.674 136.907 257.448 137.162C257.222 137.416 257.087 137.739 257.064 138.079L255.977 138.015C255.851 138.002 255.724 138.008 255.6 138.034C255.453 138.08 255.327 138.179 255.249 138.313C255.17 138.446 255.143 138.603 255.174 138.755C255.214 138.904 255.308 139.033 255.439 139.116C255.57 139.2 255.727 139.231 255.879 139.204C255.344 139.417 254.867 139.753 254.487 140.185C254.203 140.613 254.099 141.136 254.198 141.64C254.297 142.145 254.591 142.59 255.015 142.879C255.461 143.136 255.985 143.222 256.49 143.119C256.994 143.017 257.444 142.735 257.755 142.324C257.691 142.549 257.709 142.789 257.806 143.002C257.903 143.215 258.072 143.387 258.283 143.487C260.328 144.592 261.37 143.09 261.649 141.351C261.94 139.46 262.347 138.041 260.283 137.023Z" fill="#FFE9B3"/>
<path opacity="0.15" d="M260.283 137.023C259.685 136.685 258.991 136.561 258.313 136.672C257.978 136.734 257.674 136.907 257.448 137.162C257.222 137.416 257.087 137.739 257.064 138.079L255.977 138.015C255.851 138.002 255.724 138.008 255.6 138.034C255.453 138.08 255.327 138.179 255.249 138.313C255.17 138.446 255.143 138.603 255.174 138.755C255.214 138.904 255.308 139.033 255.439 139.116C255.57 139.2 255.727 139.231 255.879 139.204C255.344 139.417 254.867 139.753 254.487 140.185C254.203 140.613 254.099 141.136 254.198 141.64C254.297 142.145 254.591 142.59 255.015 142.879C255.461 143.136 255.985 143.222 256.49 143.119C256.994 143.017 257.444 142.735 257.755 142.324C257.691 142.549 257.709 142.789 257.806 143.002C257.903 143.215 258.072 143.387 258.283 143.487C260.328 144.592 261.37 143.09 261.649 141.351C261.94 139.46 262.347 138.041 260.283 137.023Z" fill="black"/>
<path d="M267.453 140.796C266.855 140.459 266.16 140.335 265.483 140.445C265.148 140.508 264.844 140.681 264.618 140.935C264.392 141.19 264.257 141.513 264.234 141.853L263.147 141.789C263.021 141.776 262.894 141.782 262.77 141.808C262.622 141.854 262.497 141.953 262.418 142.086C262.34 142.219 262.313 142.377 262.343 142.528C262.384 142.678 262.478 142.807 262.609 142.89C262.74 142.973 262.897 143.004 263.049 142.977C262.514 143.19 262.037 143.527 261.657 143.958C261.373 144.387 261.269 144.91 261.368 145.414C261.467 145.918 261.76 146.363 262.185 146.653C262.631 146.91 263.155 146.995 263.66 146.893C264.164 146.791 264.614 146.508 264.925 146.098C264.861 146.323 264.879 146.563 264.976 146.776C265.073 146.989 265.242 147.16 265.453 147.26C267.498 148.366 268.54 146.864 268.819 145.125C269.109 143.234 269.517 141.815 267.453 140.796Z" fill="#FFE9B3"/>
<path opacity="0.15" d="M267.453 140.796C266.855 140.459 266.16 140.335 265.483 140.445C265.148 140.508 264.844 140.681 264.618 140.935C264.392 141.19 264.257 141.513 264.234 141.853L263.147 141.789C263.021 141.776 262.894 141.782 262.77 141.808C262.622 141.854 262.497 141.953 262.418 142.086C262.34 142.219 262.313 142.377 262.343 142.528C262.384 142.678 262.478 142.807 262.609 142.89C262.74 142.973 262.897 143.004 263.049 142.977C262.514 143.19 262.037 143.527 261.657 143.958C261.373 144.387 261.269 144.91 261.368 145.414C261.467 145.918 261.76 146.363 262.185 146.653C262.631 146.91 263.155 146.995 263.66 146.893C264.164 146.791 264.614 146.508 264.925 146.098C264.861 146.323 264.879 146.563 264.976 146.776C265.073 146.989 265.242 147.16 265.453 147.26C267.498 148.366 268.54 146.864 268.819 145.125C269.109 143.234 269.517 141.815 267.453 140.796Z" fill="black"/>
<path d="M261.415 132.494C260.817 132.157 260.123 132.033 259.445 132.143C259.11 132.206 258.806 132.379 258.58 132.633C258.354 132.888 258.219 133.211 258.196 133.551L257.109 133.487C256.983 133.474 256.856 133.48 256.732 133.506C256.585 133.552 256.459 133.651 256.381 133.784C256.302 133.917 256.275 134.075 256.306 134.226C256.346 134.376 256.44 134.505 256.571 134.588C256.702 134.671 256.859 134.702 257.011 134.675C256.477 134.888 256 135.225 255.619 135.656C255.335 136.085 255.231 136.608 255.33 137.112C255.429 137.616 255.723 138.061 256.147 138.351C256.593 138.608 257.117 138.693 257.622 138.591C258.126 138.489 258.576 138.206 258.887 137.796C258.823 138.021 258.841 138.261 258.938 138.474C259.035 138.687 259.204 138.858 259.415 138.958C261.46 140.064 262.502 138.562 262.781 136.823C263.072 134.932 263.479 133.513 261.415 132.494Z" fill="#FFE9B3"/>
<path opacity="0.15" d="M261.415 132.494C260.817 132.157 260.123 132.033 259.445 132.143C259.11 132.206 258.806 132.379 258.58 132.633C258.354 132.888 258.219 133.211 258.196 133.551L257.109 133.487C256.983 133.474 256.856 133.48 256.732 133.506C256.585 133.552 256.459 133.651 256.381 133.784C256.302 133.917 256.275 134.075 256.306 134.226C256.346 134.376 256.44 134.505 256.571 134.588C256.702 134.671 256.859 134.702 257.011 134.675C256.477 134.888 256 135.225 255.619 135.656C255.335 136.085 255.231 136.608 255.33 137.112C255.429 137.616 255.723 138.061 256.147 138.351C256.593 138.608 257.117 138.693 257.622 138.591C258.126 138.489 258.576 138.206 258.887 137.796C258.823 138.021 258.841 138.261 258.938 138.474C259.035 138.687 259.204 138.858 259.415 138.958C261.46 140.064 262.502 138.562 262.781 136.823C263.072 134.932 263.479 133.513 261.415 132.494Z" fill="black"/>
<path d="M266.694 141.581C267.04 140.988 267.173 140.294 267.072 139.615C267.012 139.279 266.843 138.973 266.59 138.744C266.337 138.515 266.016 138.377 265.675 138.351L265.755 137.264C265.774 137.139 265.774 137.012 265.755 136.887C265.737 136.81 265.705 136.737 265.659 136.673C265.613 136.609 265.555 136.554 265.489 136.512C265.422 136.471 265.348 136.442 265.27 136.429C265.192 136.416 265.113 136.418 265.036 136.436C264.959 136.453 264.886 136.486 264.822 136.532C264.758 136.577 264.703 136.635 264.661 136.702C264.62 136.769 264.591 136.843 264.578 136.921C264.565 136.998 264.567 137.078 264.585 137.155C264.377 136.617 264.047 136.137 263.619 135.751C263.194 135.462 262.671 135.352 262.166 135.445C261.66 135.538 261.211 135.827 260.917 136.249C260.655 136.693 260.564 137.217 260.661 137.723C260.759 138.228 261.037 138.681 261.445 138.996C261.221 138.931 260.98 138.947 260.766 139.041C260.552 139.136 260.378 139.303 260.275 139.513C259.143 141.547 260.653 142.604 262.374 142.909C264.242 143.208 265.66 143.634 266.694 141.581Z" fill="#FFE9B3"/>
<path d="M266.694 135.543C267.04 134.95 267.173 134.256 267.072 133.577C267.012 133.241 266.843 132.935 266.59 132.706C266.337 132.477 266.016 132.339 265.675 132.313L265.755 131.226C265.774 131.101 265.774 130.974 265.755 130.849C265.719 130.694 265.623 130.559 265.489 130.475C265.354 130.39 265.191 130.362 265.036 130.398C264.881 130.434 264.746 130.529 264.661 130.664C264.577 130.799 264.549 130.962 264.585 131.117C264.377 130.58 264.047 130.099 263.619 129.713C263.194 129.424 262.671 129.314 262.166 129.407C261.66 129.501 261.211 129.789 260.917 130.211C260.655 130.655 260.564 131.179 260.661 131.685C260.759 132.191 261.037 132.644 261.445 132.958C261.221 132.893 260.98 132.909 260.766 133.003C260.552 133.098 260.378 133.265 260.275 133.475C259.143 135.509 260.653 136.566 262.374 136.872C264.242 137.17 265.66 137.596 266.694 135.543Z" fill="#FFE9B3"/>
<path d="M260.279 143.468C260.625 142.874 260.758 142.181 260.657 141.502C260.597 141.166 260.428 140.859 260.175 140.631C259.922 140.402 259.6 140.263 259.26 140.238L259.34 139.151C259.359 139.026 259.359 138.899 259.34 138.774C259.304 138.618 259.208 138.484 259.074 138.399C258.939 138.315 258.776 138.287 258.621 138.323C258.466 138.358 258.331 138.454 258.246 138.589C258.162 138.723 258.134 138.886 258.17 139.041C257.962 138.504 257.631 138.023 257.204 137.638C256.778 137.349 256.256 137.239 255.751 137.332C255.245 137.425 254.796 137.714 254.502 138.136C254.24 138.579 254.149 139.103 254.246 139.609C254.344 140.115 254.622 140.568 255.03 140.883C254.806 140.817 254.565 140.833 254.351 140.928C254.137 141.022 253.963 141.19 253.86 141.4C252.728 143.434 254.238 144.49 255.958 144.796C257.826 145.094 259.245 145.521 260.279 143.468Z" fill="#FFE9B3"/>
<path d="M267.449 150.26C267.795 149.667 267.928 148.973 267.826 148.294C267.767 147.958 267.598 147.652 267.345 147.423C267.092 147.194 266.77 147.056 266.43 147.03L266.509 145.943C266.529 145.818 266.529 145.691 266.509 145.566C266.474 145.411 266.378 145.276 266.243 145.192C266.109 145.107 265.946 145.08 265.791 145.115C265.635 145.151 265.501 145.246 265.416 145.381C265.332 145.516 265.304 145.679 265.34 145.834C265.132 145.297 264.801 144.816 264.374 144.43C263.948 144.141 263.426 144.031 262.92 144.124C262.415 144.218 261.966 144.506 261.672 144.928C261.41 145.372 261.319 145.896 261.416 146.402C261.513 146.908 261.792 147.361 262.2 147.675C261.975 147.61 261.735 147.626 261.521 147.72C261.307 147.815 261.133 147.982 261.03 148.192C259.898 150.226 261.408 151.283 263.128 151.589C264.996 151.887 266.415 152.313 267.449 150.26Z" fill="#FFE9B3"/>
<path d="M253.864 152.902C254.21 152.309 254.343 151.615 254.242 150.936C254.182 150.6 254.013 150.294 253.76 150.065C253.507 149.836 253.185 149.698 252.845 149.672L252.925 148.585C252.944 148.46 252.944 148.333 252.925 148.208C252.889 148.052 252.793 147.918 252.658 147.833C252.524 147.749 252.361 147.721 252.206 147.757C252.051 147.792 251.916 147.888 251.831 148.023C251.747 148.157 251.719 148.32 251.755 148.476C251.547 147.938 251.216 147.457 250.789 147.072C250.363 146.783 249.841 146.673 249.335 146.766C248.83 146.859 248.381 147.148 248.087 147.57C247.825 148.013 247.734 148.537 247.831 149.043C247.929 149.549 248.207 150.002 248.615 150.317C248.39 150.251 248.15 150.267 247.936 150.362C247.722 150.457 247.548 150.624 247.445 150.834C246.313 152.868 247.823 153.925 249.543 154.23C251.411 154.528 252.83 154.955 253.864 152.902Z" fill="#FFE9B3"/>
<path d="M250.845 137.43C251.191 136.837 251.324 136.143 251.223 135.464C251.163 135.128 250.994 134.822 250.741 134.593C250.488 134.364 250.166 134.226 249.826 134.2L249.906 133.113C249.925 132.988 249.925 132.861 249.906 132.736C249.87 132.581 249.774 132.446 249.64 132.362C249.505 132.277 249.342 132.249 249.187 132.285C249.032 132.32 248.897 132.416 248.812 132.551C248.728 132.686 248.7 132.849 248.736 133.004C248.528 132.467 248.197 131.986 247.77 131.6C247.344 131.311 246.822 131.201 246.317 131.294C245.811 131.388 245.362 131.676 245.068 132.098C244.806 132.542 244.715 133.066 244.812 133.572C244.91 134.078 245.188 134.531 245.596 134.845C245.372 134.78 245.131 134.796 244.917 134.89C244.703 134.985 244.529 135.152 244.426 135.362C243.294 137.396 244.804 138.453 246.525 138.759C248.392 139.057 249.811 139.483 250.845 137.43Z" fill="#FFE9B3"/>
<path d="M258.77 135.543C259.116 134.95 259.249 134.256 259.147 133.577C259.088 133.241 258.918 132.935 258.666 132.706C258.413 132.477 258.091 132.339 257.751 132.313L257.83 131.226C257.849 131.101 257.849 130.974 257.83 130.849C257.795 130.694 257.699 130.559 257.564 130.475C257.429 130.39 257.266 130.362 257.111 130.398C256.956 130.434 256.822 130.529 256.737 130.664C256.652 130.799 256.625 130.962 256.66 131.117C256.453 130.58 256.122 130.099 255.694 129.713C255.269 129.424 254.747 129.314 254.241 129.407C253.735 129.501 253.287 129.789 252.992 130.211C252.731 130.655 252.64 131.179 252.737 131.685C252.834 132.191 253.113 132.644 253.521 132.958C253.296 132.893 253.056 132.909 252.841 133.003C252.627 133.098 252.454 133.265 252.351 133.475C251.219 135.509 252.728 136.566 254.449 136.872C256.317 137.17 257.736 137.596 258.77 135.543Z" fill="#FFE9B3"/>
<path d="M242.921 142.713C243.266 142.12 243.4 141.426 243.298 140.747C243.239 140.411 243.069 140.105 242.817 139.876C242.564 139.647 242.242 139.509 241.902 139.483L241.981 138.396C242 138.271 242 138.144 241.981 138.019C241.946 137.864 241.85 137.729 241.715 137.645C241.58 137.56 241.417 137.532 241.262 137.568C241.107 137.603 240.972 137.699 240.888 137.834C240.803 137.969 240.776 138.132 240.811 138.287C240.604 137.75 240.273 137.269 239.845 136.883C239.42 136.594 238.898 136.484 238.392 136.577C237.886 136.671 237.438 136.959 237.143 137.381C236.881 137.825 236.791 138.349 236.888 138.855C236.985 139.361 237.264 139.813 237.672 140.128C237.447 140.063 237.206 140.079 236.992 140.173C236.778 140.268 236.605 140.435 236.502 140.645C235.37 142.679 236.879 143.736 238.6 144.042C240.468 144.34 241.887 144.766 242.921 142.713Z" fill="#FFE9B3"/>
<path d="M236.909 160.023C238.872 159.864 240.808 159.362 242.777 159.389C245.355 159.423 247.834 160.355 250.181 161.419C250.87 161.685 251.503 162.079 252.045 162.581C252.432 163.027 252.714 163.555 252.869 164.124C253.025 164.694 253.05 165.291 252.943 165.872C252.723 167.033 252.262 168.136 251.592 169.11C250.906 170.2 250.057 171.276 248.86 171.751C248.191 171.982 247.489 172.103 246.781 172.11C243.826 172.272 240.815 172.11 238.011 171.162C236.574 170.672 235.211 169.985 233.804 169.404C229.317 167.547 224.464 166.815 219.698 165.879C219.456 165.85 219.225 165.761 219.026 165.619C218.034 164.762 220.189 161.676 220.694 160.811C221.547 159.343 222.321 159.185 224.049 159.143C228.366 159.034 232.581 160.291 236.909 160.023Z" fill="#A0616A"/>
<path d="M270.483 170.464C269.117 169.792 267.891 168.864 266.536 168.166C264.83 167.288 262.954 166.79 261.038 166.706C259.796 166.649 258.445 166.815 257.543 167.672C256.257 168.894 256.411 170.973 256.834 172.698C257.475 175.283 258.766 178.019 261.245 178.996C262.219 179.322 263.237 179.496 264.264 179.513C268.857 179.83 273.638 180.117 277.894 178.381C278.206 178.284 278.474 178.079 278.649 177.804C278.834 177.426 278.649 176.973 278.46 176.592C277.781 175.226 276.706 172.362 275.392 171.509C274.17 170.69 272.008 171.211 270.483 170.464Z" fill="#A0616A"/>
<path opacity="0.1" d="M281.275 149.913C283.791 153.904 285.859 158.16 287.442 162.604C287.884 163.697 288.139 164.856 288.196 166.034C288.196 167.343 287.74 168.611 287.26 169.849C285.733 173.81 283.962 177.671 281.955 181.411C281.351 182.543 280.66 183.725 279.464 184.347C278.208 185.004 276.66 184.902 275.223 184.725C271.62 184.33 268.047 183.698 264.528 182.83C266.743 182.902 268.743 181.242 269.766 179.434C270.789 177.626 271.015 175.559 271.185 173.54C271.34 172.453 271.294 171.346 271.049 170.276C270.906 169.723 270.631 169.213 270.249 168.79C269.867 168.366 269.388 168.041 268.853 167.842C268.751 166.857 269.691 166.03 270.66 165.577C271.63 165.125 272.732 164.872 273.521 164.193C274.683 163.196 274.849 161.532 274.468 160.121C274.087 158.71 273.257 157.434 272.668 156.079C271.842 154.193 276.106 152.208 276.275 150.17C276.313 149.71 275.989 150.547 276.275 150.17C276.562 149.793 278.343 151.102 278.747 150.925C281.4 149.777 279.808 147.581 281.275 149.913Z" fill="black"/>
<path d="M282.098 149.913C284.613 153.905 286.682 158.16 288.268 162.604C288.712 163.696 288.968 164.856 289.023 166.034C289.023 167.343 288.566 168.611 288.091 169.849C286.562 173.809 284.79 177.67 282.785 181.411C282.181 182.543 281.491 183.725 280.294 184.347C279.038 185.004 277.487 184.902 276.053 184.725C272.449 184.331 268.875 183.698 265.355 182.83C267.566 182.902 269.57 181.242 270.589 179.434C271.608 177.626 271.842 175.558 272.011 173.54C272.165 172.452 272.119 171.346 271.875 170.275C271.731 169.724 271.456 169.214 271.074 168.791C270.692 168.367 270.213 168.042 269.679 167.842C269.574 166.857 270.517 166.03 271.487 165.577C272.457 165.125 273.558 164.872 274.347 164.192C275.506 163.196 275.672 161.532 275.291 160.121C274.909 158.709 274.079 157.434 273.491 156.079C272.667 154.19 272.322 152.126 272.487 150.072C272.495 149.602 272.633 149.143 272.887 148.747C273.168 148.41 273.53 148.151 273.94 147.992C276.604 146.86 280.63 147.581 282.098 149.913Z" fill="#F98A8D"/>
<path opacity="0.1" d="M201.434 146.17C198.985 148.434 196.457 150.826 195.264 153.947C194.615 155.649 194.4 157.483 194.189 159.294C193.834 162.381 193.513 165.687 194.943 168.442C196.528 171.46 199.849 173.079 202.966 174.449C204.044 174.955 205.161 175.374 206.306 175.702C207.806 176.037 209.335 176.224 210.872 176.26L226.604 177.136C224.551 175.068 223.238 171.83 223.517 168.928C223.77 166.336 225.026 163.958 226.291 161.691C226.947 160.521 227.691 159.291 228.902 158.713C223.776 157.58 218.506 157.249 213.279 157.732C212.928 157.762 212.525 157.774 212.294 157.494C212.18 157.319 212.127 157.111 212.143 156.902C212.143 154.558 213.894 152.611 214.619 150.385C215.777 146.815 211.834 148.774 208.287 147.547C204.74 146.321 202.158 142.487 201.434 146.17Z" fill="black"/>
<path d="M200.302 146.17C197.853 148.434 195.325 150.826 194.132 153.947C193.483 155.649 193.268 157.483 193.057 159.294C192.702 162.381 192.381 165.687 193.811 168.441C195.396 171.46 198.717 173.079 201.834 174.449C202.912 174.955 204.029 175.374 205.174 175.702C206.674 176.037 208.203 176.224 209.74 176.26L225.472 177.136C223.419 175.068 222.106 171.83 222.385 168.928C222.638 166.336 223.894 163.958 225.158 161.691C225.815 160.521 226.558 159.291 227.77 158.713C222.644 157.58 217.374 157.249 212.147 157.732C211.796 157.762 211.392 157.774 211.162 157.494C211.048 157.319 210.994 157.111 211.011 156.902C211.011 154.558 212.762 152.611 213.487 150.385C214.645 146.815 212.63 142.46 209.079 141.226C205.528 139.992 201.026 142.487 200.302 146.17Z" fill="#F98A8D"/>
<path d="M239.811 105.66C250.336 105.66 258.868 102.112 258.868 97.7358C258.868 93.3592 250.336 89.8113 239.811 89.8113C229.287 89.8113 220.755 93.3592 220.755 97.7358C220.755 102.112 229.287 105.66 239.811 105.66Z" fill="#2F2E41"/>
<path opacity="0.1" d="M239.434 102.264C230.313 102.264 222.691 99.5963 220.819 96.0378C220.535 96.5592 220.383 97.1423 220.377 97.736C220.377 102.113 228.909 105.66 239.434 105.66C249.958 105.66 258.491 102.113 258.491 97.736C258.485 97.1423 258.333 96.5592 258.049 96.0378C256.177 99.5963 248.555 102.264 239.434 102.264Z" fill="black"/>
<path d="M265.189 103.06C264.591 102.723 263.896 102.599 263.219 102.709C262.884 102.772 262.58 102.945 262.354 103.2C262.127 103.454 261.992 103.777 261.97 104.117L260.883 104.053C260.757 104.04 260.63 104.046 260.506 104.072C260.358 104.118 260.233 104.217 260.154 104.35C260.076 104.483 260.049 104.641 260.079 104.792C260.119 104.942 260.214 105.071 260.345 105.154C260.475 105.237 260.632 105.269 260.785 105.242C260.25 105.455 259.773 105.791 259.392 106.223C259.109 106.651 259.005 107.174 259.104 107.678C259.203 108.182 259.496 108.627 259.921 108.917C260.367 109.174 260.891 109.259 261.395 109.157C261.9 109.055 262.35 108.772 262.66 108.362C262.597 108.587 262.615 108.827 262.712 109.04C262.808 109.253 262.977 109.425 263.189 109.525C265.234 110.63 266.275 109.128 266.555 107.389C266.845 105.498 267.253 104.079 265.189 103.06Z" fill="#FFE9B3"/>
<path opacity="0.15" d="M265.189 103.06C264.591 102.723 263.896 102.599 263.219 102.709C262.884 102.772 262.58 102.945 262.354 103.2C262.127 103.454 261.992 103.777 261.97 104.117L260.883 104.053C260.757 104.04 260.63 104.046 260.506 104.072C260.358 104.118 260.233 104.217 260.154 104.35C260.076 104.483 260.049 104.641 260.079 104.792C260.119 104.942 260.214 105.071 260.345 105.154C260.475 105.237 260.632 105.269 260.785 105.242C260.25 105.455 259.773 105.791 259.392 106.223C259.109 106.651 259.005 107.174 259.104 107.678C259.203 108.182 259.496 108.627 259.921 108.917C260.367 109.174 260.891 109.259 261.395 109.157C261.9 109.055 262.35 108.772 262.66 108.362C262.597 108.587 262.615 108.827 262.712 109.04C262.808 109.253 262.977 109.425 263.189 109.525C265.234 110.63 266.275 109.128 266.555 107.389C266.845 105.498 267.253 104.079 265.189 103.06Z" fill="black"/>
<path d="M283.302 131.74C282.704 131.402 282.009 131.278 281.332 131.389C280.997 131.451 280.693 131.624 280.467 131.879C280.241 132.134 280.106 132.456 280.083 132.796L278.996 132.732C278.87 132.719 278.743 132.725 278.619 132.751C278.471 132.797 278.346 132.896 278.268 133.03C278.189 133.163 278.162 133.32 278.192 133.472C278.233 133.621 278.327 133.75 278.458 133.833C278.589 133.917 278.746 133.948 278.898 133.921C278.363 134.134 277.886 134.47 277.506 134.902C277.222 135.33 277.118 135.853 277.217 136.357C277.316 136.862 277.609 137.307 278.034 137.596C278.48 137.853 279.004 137.939 279.509 137.836C280.013 137.734 280.463 137.452 280.774 137.041C280.71 137.266 280.728 137.507 280.825 137.719C280.922 137.932 281.091 138.104 281.302 138.204C283.347 139.309 284.389 137.808 284.668 136.068C284.958 134.177 285.366 132.758 283.302 131.74Z" fill="#FFE9B3"/>
<path opacity="0.15" d="M283.302 131.74C282.704 131.402 282.009 131.278 281.332 131.389C280.997 131.451 280.693 131.624 280.467 131.879C280.241 132.134 280.106 132.456 280.083 132.796L278.996 132.732C278.87 132.719 278.743 132.725 278.619 132.751C278.471 132.797 278.346 132.896 278.268 133.03C278.189 133.163 278.162 133.32 278.192 133.472C278.233 133.621 278.327 133.75 278.458 133.833C278.589 133.917 278.746 133.948 278.898 133.921C278.363 134.134 277.886 134.47 277.506 134.902C277.222 135.33 277.118 135.853 277.217 136.357C277.316 136.862 277.609 137.307 278.034 137.596C278.48 137.853 279.004 137.939 279.509 137.836C280.013 137.734 280.463 137.452 280.774 137.041C280.71 137.266 280.728 137.507 280.825 137.719C280.922 137.932 281.091 138.104 281.302 138.204C283.347 139.309 284.389 137.808 284.668 136.068C284.958 134.177 285.366 132.758 283.302 131.74Z" fill="black"/>
<path d="M304.434 162.306C303.836 161.968 303.142 161.844 302.464 161.955C302.129 162.018 301.825 162.19 301.599 162.445C301.373 162.7 301.238 163.022 301.215 163.362L300.128 163.298C300.002 163.285 299.875 163.292 299.751 163.317C299.603 163.363 299.478 163.463 299.4 163.596C299.321 163.729 299.294 163.886 299.325 164.038C299.365 164.187 299.459 164.316 299.59 164.4C299.721 164.483 299.878 164.514 300.03 164.487C299.495 164.7 299.018 165.036 298.638 165.468C298.354 165.896 298.25 166.419 298.349 166.924C298.448 167.428 298.741 167.873 299.166 168.162C299.612 168.419 300.136 168.505 300.641 168.403C301.145 168.301 301.595 168.018 301.906 167.608C301.842 167.833 301.86 168.073 301.957 168.285C302.054 168.498 302.223 168.67 302.434 168.77C304.479 169.876 305.521 168.374 305.8 166.634C306.091 164.743 306.498 163.325 304.434 162.306Z" fill="#FFE9B3"/>
<path opacity="0.15" d="M304.434 162.306C303.836 161.968 303.142 161.844 302.464 161.955C302.129 162.018 301.825 162.19 301.599 162.445C301.373 162.7 301.238 163.022 301.215 163.362L300.128 163.298C300.002 163.285 299.875 163.292 299.751 163.317C299.603 163.363 299.478 163.463 299.4 163.596C299.321 163.729 299.294 163.886 299.325 164.038C299.365 164.187 299.459 164.316 299.59 164.4C299.721 164.483 299.878 164.514 300.03 164.487C299.495 164.7 299.018 165.036 298.638 165.468C298.354 165.896 298.25 166.419 298.349 166.924C298.448 167.428 298.741 167.873 299.166 168.162C299.612 168.419 300.136 168.505 300.641 168.403C301.145 168.301 301.595 168.018 301.906 167.608C301.842 167.833 301.86 168.073 301.957 168.285C302.054 168.498 302.223 168.67 302.434 168.77C304.479 169.876 305.521 168.374 305.8 166.634C306.091 164.743 306.498 163.325 304.434 162.306Z" fill="black"/>
<path d="M271.977 94.7886C272.323 94.1953 272.456 93.5018 272.355 92.8226C272.295 92.4868 272.126 92.1803 271.873 91.9514C271.62 91.7225 271.299 91.5842 270.958 91.5584L271.038 90.4717C271.057 90.3466 271.057 90.2194 271.038 90.0943C271.002 89.9392 270.907 89.8045 270.772 89.7199C270.637 89.6354 270.474 89.6078 270.319 89.6434C270.164 89.6789 270.029 89.7746 269.945 89.9094C269.86 90.0442 269.832 90.2071 269.868 90.3622C269.66 89.825 269.33 89.3441 268.902 88.9584C268.477 88.6694 267.954 88.5595 267.449 88.6528C266.943 88.746 266.494 89.0348 266.2 89.4566C265.938 89.9002 265.847 90.4242 265.944 90.9301C266.042 91.436 266.321 91.8889 266.728 92.2037C266.504 92.1381 266.263 92.1541 266.049 92.2487C265.835 92.3433 265.661 92.5104 265.558 92.7207C264.426 94.7547 265.936 95.8113 267.657 96.1169C269.525 96.415 270.943 96.8415 271.977 94.7886Z" fill="#FFE9B3"/>
<path d="M269.713 81.5811C270.059 80.9878 270.192 80.2943 270.091 79.6151C270.031 79.2793 269.862 78.9727 269.609 78.7439C269.356 78.515 269.034 78.3767 268.694 78.3509L268.774 77.2641C268.793 77.1391 268.793 77.0118 268.774 76.8868C268.738 76.7317 268.642 76.597 268.508 76.5124C268.373 76.4279 268.21 76.4003 268.055 76.4358C267.9 76.4714 267.765 76.5671 267.68 76.7019C267.596 76.8367 267.568 76.9996 267.604 77.1547C267.396 76.6175 267.065 76.1366 266.638 75.7509C266.212 75.4618 265.69 75.352 265.185 75.4452C264.679 75.5385 264.23 75.8273 263.936 76.249C263.674 76.6927 263.583 77.2167 263.68 77.7226C263.778 78.2285 264.056 78.6814 264.464 78.9962C264.24 78.9306 263.999 78.9466 263.785 79.0411C263.571 79.1357 263.397 79.3029 263.294 79.5132C262.162 81.5472 263.672 82.6038 265.392 82.9094C267.26 83.2075 268.679 83.6339 269.713 81.5811Z" fill="#FFE9B3"/>
<path d="M213.113 190.23C212.516 189.893 211.821 189.769 211.143 189.879C210.809 189.942 210.504 190.115 210.278 190.369C210.052 190.624 209.917 190.947 209.894 191.287L208.808 191.223C208.683 191.203 208.555 191.203 208.43 191.223C208.283 191.269 208.158 191.368 208.079 191.501C208 191.634 207.973 191.792 208.004 191.944C208.044 192.093 208.139 192.222 208.269 192.305C208.4 192.388 208.557 192.42 208.709 192.393C208.175 192.606 207.698 192.942 207.317 193.374C207.033 193.802 206.93 194.325 207.028 194.829C207.127 195.333 207.421 195.779 207.845 196.068C208.291 196.325 208.815 196.41 209.32 196.308C209.824 196.206 210.274 195.923 210.585 195.513C210.521 195.738 210.54 195.978 210.636 196.191C210.733 196.404 210.902 196.576 211.113 196.676C213.158 197.781 214.2 196.298 214.479 194.54C214.77 192.668 215.177 191.249 213.113 190.23Z" fill="#FFE9B3"/>
<path opacity="0.15" d="M213.113 190.23C212.516 189.893 211.821 189.769 211.143 189.879C210.809 189.942 210.504 190.115 210.278 190.369C210.052 190.624 209.917 190.947 209.894 191.287L208.808 191.223C208.683 191.203 208.555 191.203 208.43 191.223C208.283 191.269 208.158 191.368 208.079 191.501C208 191.634 207.973 191.792 208.004 191.944C208.044 192.093 208.139 192.222 208.269 192.305C208.4 192.388 208.557 192.42 208.709 192.393C208.175 192.606 207.698 192.942 207.317 193.374C207.033 193.802 206.93 194.325 207.028 194.829C207.127 195.333 207.421 195.779 207.845 196.068C208.291 196.325 208.815 196.41 209.32 196.308C209.824 196.206 210.274 195.923 210.585 195.513C210.521 195.738 210.54 195.978 210.636 196.191C210.733 196.404 210.902 196.576 211.113 196.676C213.158 197.781 214.2 196.298 214.479 194.54C214.77 192.668 215.177 191.249 213.113 190.23Z" fill="black"/>
<path d="M199.525 189.506C199.87 188.912 200.003 188.219 199.902 187.54C199.843 187.204 199.673 186.897 199.42 186.668C199.168 186.44 198.846 186.301 198.506 186.275L198.585 185.189C198.604 185.064 198.604 184.936 198.585 184.811C198.549 184.656 198.454 184.522 198.319 184.437C198.184 184.352 198.021 184.325 197.866 184.36C197.711 184.396 197.576 184.492 197.492 184.626C197.407 184.761 197.38 184.924 197.415 185.079C197.208 184.542 196.877 184.061 196.449 183.675C196.024 183.386 195.502 183.277 194.996 183.37C194.49 183.463 194.041 183.752 193.747 184.174C193.485 184.617 193.394 185.141 193.492 185.647C193.589 186.153 193.868 186.606 194.275 186.921C194.051 186.855 193.81 186.871 193.596 186.966C193.382 187.06 193.208 187.227 193.106 187.438C191.974 189.472 193.483 190.528 195.204 190.834C197.072 191.132 198.491 191.559 199.525 189.506Z" fill="#FFE9B3"/>
<path d="M217.638 168.751C217.984 168.158 218.117 167.464 218.015 166.785C217.956 166.449 217.786 166.143 217.534 165.914C217.281 165.685 216.959 165.547 216.619 165.521L216.698 164.434C216.717 164.309 216.717 164.182 216.698 164.057C216.663 163.902 216.567 163.767 216.432 163.682C216.297 163.598 216.134 163.57 215.979 163.606C215.824 163.641 215.689 163.737 215.605 163.872C215.52 164.007 215.493 164.169 215.528 164.325C215.321 163.787 214.99 163.307 214.562 162.921C214.137 162.632 213.615 162.522 213.109 162.615C212.603 162.708 212.155 162.997 211.86 163.419C211.598 163.863 211.508 164.387 211.605 164.892C211.702 165.398 211.981 165.851 212.389 166.166C212.164 166.101 211.923 166.116 211.709 166.211C211.495 166.306 211.322 166.473 211.219 166.683C210.087 168.717 211.596 169.774 213.317 170.079C215.185 170.377 216.604 170.804 217.638 168.751Z" fill="#FFE9B3"/>
<path d="M188.645 175.604C184.97 174.664 181.143 173.717 177.43 174.472C175.777 174.807 174.215 175.472 172.608 175.981C168.649 177.208 164.465 177.527 160.366 176.915C156.268 176.303 152.359 174.775 148.932 172.445C145.083 169.785 141.083 165.906 136.525 166.958C135.298 167.245 134.162 167.887 132.909 168.026C130.558 168.294 128.381 166.77 126.049 166.411C122.034 165.796 118.385 168.611 115.298 171.253L99.0226 185.181C97.7887 186.238 96.4302 187.634 96.7585 189.219C97.2604 191.547 100.826 191.86 101.743 194.068C102.408 195.649 101.309 197.49 99.8566 198.392C98.4038 199.294 96.6453 199.524 95.0151 200.072C92.552 200.897 90.3443 202.345 88.6065 204.276C86.8688 206.207 85.6602 208.554 85.0981 211.09C84.8113 212.441 84.7208 213.845 84.1887 215.121C83.6151 216.509 82.5773 217.649 81.8113 218.94C78.4604 224.562 80.6604 232.023 78.117 238.053C76.7698 241.253 74.0717 244.347 74.9245 247.709C75.7019 250.758 79.049 252.317 82.0943 253.124C82.4528 255.2 81.717 256.664 80.2075 258.155C92.8679 263.358 106.457 268.672 119.887 266.011C124.494 265.102 128.981 263.257 133.675 263.332C137.008 263.385 140.302 264.411 143.626 264.177C150.641 263.683 157.083 257.687 163.879 259.487C161.83 259.626 161.072 262.623 162.279 264.287C163.487 265.951 165.709 266.483 167.755 266.679C169.8 266.875 171.966 266.89 173.74 267.932C172.396 270.728 167.585 271.706 168.049 274.781C168.219 275.89 169.117 276.732 170.008 277.423C179.158 284.43 191.762 283.758 203.215 284.97C211.66 285.853 219.94 287.917 228.358 289.019C241.808 290.773 255.441 290.056 268.981 289.332C271.438 289.2 274.192 288.928 275.774 287.041C277.872 284.528 276.706 280.804 276.441 277.543C275.415 264.785 289.37 256.004 293.279 243.815C294.789 239.056 294.725 233.943 294.453 228.951C293.845 217.69 292.083 205.811 284.906 197.117C278.996 189.947 270.162 185.909 261.366 182.951C255.766 181.064 249.898 179.513 244.008 180.068C234.121 181 224.132 187.751 215.004 183.841C212.589 182.807 210.532 181.098 208.238 179.823C202.208 176.415 195.366 177.321 188.645 175.604Z" fill="#EF233C"/>
<g opacity="0.1">
<path opacity="0.1" d="M239.702 279.192C231.283 278.091 223.019 276.038 214.558 275.143C203.094 273.943 190.491 274.615 181.351 267.596C180.46 266.913 179.562 266.087 179.392 264.955C178.928 261.887 183.74 260.902 185.083 258.106C183.309 257.064 181.147 257.053 179.098 256.853C177.049 256.653 174.83 256.125 173.623 254.46C172.415 252.796 173.174 249.8 175.223 249.66C168.43 247.86 161.985 253.857 154.97 254.351C151.645 254.585 148.351 253.558 145.019 253.506C140.324 253.43 135.838 255.275 131.23 256.185C117.8 258.826 104.215 253.543 91.5509 248.328C93.0415 246.819 93.7849 245.374 93.4377 243.298C90.4 242.491 87.0528 240.932 86.2679 237.883C85.4151 234.521 88.1132 231.426 89.4604 228.226C92.0038 222.189 89.8037 214.736 93.1547 209.113C93.9094 207.823 94.9585 206.683 95.5321 205.294C96.0566 204.019 96.1547 202.615 96.4415 201.264C96.5652 200.673 96.7291 200.09 96.9321 199.521C96.2981 199.694 95.6566 199.853 95.0453 200.057C92.5822 200.882 90.3745 202.33 88.6367 204.261C86.899 206.192 85.6903 208.539 85.1283 211.075C84.8415 212.426 84.7509 213.83 84.2188 215.106C83.6453 216.494 82.6075 217.634 81.8415 218.925C78.4905 224.547 80.6905 232.008 78.1472 238.038C76.8 241.238 74.1019 244.332 74.9547 247.694C75.7321 250.743 79.0792 252.302 82.1245 253.109C82.483 255.185 81.7472 256.649 80.2377 258.14C92.9019 263.343 106.487 268.657 119.917 265.996C124.525 265.087 129.011 263.241 133.706 263.317C137.038 263.37 140.332 264.396 143.657 264.162C150.672 263.668 157.113 257.672 163.909 259.472C161.86 259.611 161.102 262.608 162.309 264.272C163.517 265.936 165.74 266.468 167.785 266.664C169.83 266.86 171.996 266.875 173.77 267.917C172.426 270.713 167.615 271.691 168.079 274.766C168.249 275.875 169.147 276.717 170.038 277.408C179.189 284.415 191.792 283.743 203.245 284.955C211.691 285.838 219.97 287.902 228.389 289.004C241.838 290.758 255.472 290.041 269.011 289.317C271.468 289.185 274.223 288.913 275.804 287.026C277.445 285.057 277.087 282.347 276.728 279.694C264.366 280.336 251.955 280.792 239.702 279.192Z" fill="black"/>
<path opacity="0.1" d="M101.2 193.223C102.693 191.894 104.444 190.887 106.343 190.264C107.974 189.736 109.74 189.483 111.185 188.585C112.63 187.687 113.74 185.842 113.072 184.26C112.155 182.068 108.589 181.74 108.087 179.411C107.857 178.34 108.404 177.355 109.166 176.502L99.0188 185.181C97.7849 186.238 96.4264 187.634 96.7547 189.219C97.1962 191.211 99.8604 191.743 101.2 193.223Z" fill="black"/>
</g>
<path d="M135.374 185.732C135.719 185.139 135.852 184.445 135.751 183.766C135.692 183.43 135.522 183.124 135.269 182.895C135.017 182.666 134.695 182.528 134.355 182.502L134.434 181.415C134.447 181.289 134.441 181.162 134.415 181.038C134.38 180.883 134.284 180.748 134.149 180.664C134.014 180.579 133.851 180.551 133.696 180.587C133.541 180.622 133.406 180.718 133.322 180.853C133.237 180.988 133.21 181.151 133.245 181.306C133.038 180.769 132.707 180.288 132.279 179.902C131.854 179.613 131.332 179.503 130.826 179.596C130.32 179.69 129.872 179.978 129.577 180.4C129.315 180.844 129.225 181.368 129.322 181.874C129.419 182.38 129.698 182.833 130.106 183.147C129.881 183.082 129.64 183.098 129.426 183.192C129.212 183.287 129.039 183.454 128.936 183.664C127.804 185.698 129.313 186.755 131.034 187.061C132.921 187.359 134.34 187.785 135.374 185.732Z" fill="#FFE9B3"/>
<path d="M190.468 258.94C190.814 258.346 190.947 257.653 190.845 256.974C190.786 256.638 190.616 256.331 190.364 256.102C190.111 255.874 189.789 255.735 189.449 255.71L189.528 254.623C189.547 254.498 189.547 254.37 189.528 254.245C189.493 254.09 189.397 253.956 189.262 253.871C189.127 253.786 188.965 253.759 188.809 253.794C188.654 253.83 188.52 253.926 188.435 254.061C188.351 254.195 188.323 254.358 188.358 254.513C188.151 253.976 187.82 253.495 187.392 253.11C186.967 252.82 186.445 252.711 185.939 252.804C185.433 252.897 184.985 253.186 184.691 253.608C184.429 254.051 184.338 254.575 184.435 255.081C184.532 255.587 184.811 256.04 185.219 256.355C184.994 256.289 184.754 256.305 184.54 256.4C184.326 256.494 184.152 256.662 184.049 256.872C182.917 258.906 184.426 259.962 186.147 260.268C188.015 260.566 189.434 260.993 190.468 258.94Z" fill="#FFE9B3"/>
<path d="M228.204 186.864C228.55 186.271 228.683 185.577 228.581 184.898C228.522 184.562 228.352 184.256 228.1 184.027C227.847 183.798 227.525 183.66 227.185 183.634L227.264 182.547C227.283 182.422 227.283 182.295 227.264 182.17C227.229 182.015 227.133 181.88 226.998 181.795C226.863 181.711 226.7 181.683 226.545 181.719C226.39 181.754 226.255 181.85 226.171 181.985C226.086 182.12 226.059 182.283 226.094 182.438C225.887 181.9 225.556 181.42 225.128 181.034C224.703 180.745 224.181 180.635 223.675 180.728C223.169 180.821 222.721 181.11 222.426 181.532C222.164 181.976 222.074 182.5 222.171 183.006C222.268 183.511 222.547 183.964 222.955 184.279C222.73 184.214 222.489 184.229 222.275 184.324C222.061 184.419 221.888 184.586 221.785 184.796C220.653 186.83 222.162 187.887 223.883 188.192C225.751 188.49 227.17 188.917 228.204 186.864Z" fill="#FFE9B3"/>
<path d="M235.302 186.034C235.929 185.756 236.443 185.273 236.758 184.664C236.909 184.359 236.954 184.012 236.885 183.679C236.817 183.345 236.64 183.044 236.381 182.823L237.079 181.985C237.169 181.889 237.243 181.78 237.298 181.66C237.361 181.514 237.362 181.348 237.303 181.2C237.244 181.052 237.128 180.934 236.981 180.872C236.835 180.809 236.669 180.807 236.521 180.867C236.373 180.926 236.255 181.042 236.192 181.189C236.34 180.632 236.354 180.049 236.234 179.487C236.059 179.003 235.7 178.607 235.235 178.386C234.77 178.165 234.237 178.136 233.751 178.306C233.279 178.511 232.899 178.882 232.681 179.348C232.464 179.814 232.424 180.344 232.57 180.838C232.427 180.653 232.223 180.525 231.995 180.475C231.766 180.425 231.528 180.458 231.321 180.566C229.215 181.551 229.811 183.279 231.034 184.54C232.355 185.917 233.253 187.091 235.302 186.034Z" fill="#FFE9B3"/>
<path d="M153.491 187.966C152.893 187.629 152.198 187.505 151.521 187.615C151.186 187.678 150.882 187.85 150.655 188.105C150.429 188.36 150.294 188.683 150.272 189.023L149.185 188.959C149.06 188.939 148.933 188.939 148.808 188.959C148.66 189.005 148.535 189.104 148.456 189.237C148.377 189.37 148.351 189.528 148.381 189.679C148.421 189.829 148.516 189.958 148.647 190.041C148.777 190.124 148.934 190.155 149.087 190.128C148.552 190.342 148.075 190.678 147.694 191.11C147.411 191.538 147.307 192.061 147.406 192.565C147.505 193.069 147.798 193.514 148.223 193.804C148.669 194.061 149.193 194.146 149.697 194.044C150.202 193.942 150.651 193.659 150.962 193.249C150.899 193.474 150.917 193.714 151.014 193.927C151.11 194.14 151.279 194.311 151.491 194.411C153.536 195.517 154.577 194.034 154.857 192.276C155.147 190.404 155.555 188.985 153.491 187.966Z" fill="#FFE9B3"/>
<path opacity="0.15" d="M153.491 187.966C152.893 187.629 152.198 187.505 151.521 187.615C151.186 187.678 150.882 187.85 150.655 188.105C150.429 188.36 150.294 188.683 150.272 189.023L149.185 188.959C149.06 188.939 148.933 188.939 148.808 188.959C148.66 189.005 148.535 189.104 148.456 189.237C148.377 189.37 148.351 189.528 148.381 189.679C148.421 189.829 148.516 189.958 148.647 190.041C148.777 190.124 148.934 190.155 149.087 190.128C148.552 190.342 148.075 190.678 147.694 191.11C147.411 191.538 147.307 192.061 147.406 192.565C147.505 193.069 147.798 193.514 148.223 193.804C148.669 194.061 149.193 194.146 149.697 194.044C150.202 193.942 150.651 193.659 150.962 193.249C150.899 193.474 150.917 193.714 151.014 193.927C151.11 194.14 151.279 194.311 151.491 194.411C153.536 195.517 154.577 194.034 154.857 192.276C155.147 190.404 155.555 188.985 153.491 187.966Z" fill="black"/>
<path d="M187.091 216.038C187.206 215.362 187.092 214.667 186.766 214.064C186.595 213.769 186.33 213.539 186.014 213.411C185.697 213.283 185.347 213.265 185.019 213.358L184.717 212.309C184.687 212.176 184.636 212.049 184.566 211.932C184.479 211.798 184.342 211.705 184.186 211.672C184.03 211.639 183.868 211.669 183.734 211.756C183.6 211.844 183.507 211.98 183.474 212.136C183.441 212.292 183.471 212.455 183.559 212.589C183.18 212.154 182.704 211.815 182.17 211.6C181.671 211.476 181.143 211.553 180.7 211.815C180.257 212.077 179.935 212.503 179.804 213C179.711 213.506 179.806 214.029 180.072 214.471C180.337 214.912 180.754 215.241 181.245 215.396C181.012 215.412 180.792 215.509 180.623 215.672C180.455 215.834 180.349 216.05 180.325 216.283C179.947 218.581 181.728 219.06 183.46 218.743C185.347 218.4 186.819 218.302 187.091 216.038Z" fill="#FFE9B3"/>
<path opacity="0.15" d="M187.091 216.038C187.206 215.362 187.092 214.667 186.766 214.064C186.595 213.769 186.33 213.539 186.014 213.411C185.697 213.283 185.347 213.265 185.019 213.358L184.717 212.309C184.687 212.176 184.636 212.049 184.566 211.932C184.479 211.798 184.342 211.705 184.186 211.672C184.03 211.639 183.868 211.669 183.734 211.756C183.6 211.844 183.507 211.98 183.474 212.136C183.441 212.292 183.471 212.455 183.559 212.589C183.18 212.154 182.704 211.815 182.17 211.6C181.671 211.476 181.143 211.553 180.7 211.815C180.257 212.077 179.935 212.503 179.804 213C179.711 213.506 179.806 214.029 180.072 214.471C180.337 214.912 180.754 215.241 181.245 215.396C181.012 215.412 180.792 215.509 180.623 215.672C180.455 215.834 180.349 216.05 180.325 216.283C179.947 218.581 181.728 219.06 183.46 218.743C185.347 218.4 186.819 218.302 187.091 216.038Z" fill="black"/>
<path d="M232.374 181.698C232.49 181.022 232.375 180.327 232.049 179.724C231.878 179.429 231.613 179.199 231.297 179.071C230.98 178.943 230.63 178.925 230.302 179.019L230 177.97C229.97 177.837 229.919 177.709 229.849 177.592C229.806 177.526 229.75 177.469 229.685 177.425C229.62 177.38 229.547 177.349 229.469 177.332C229.392 177.316 229.312 177.315 229.235 177.33C229.157 177.344 229.083 177.374 229.017 177.417C228.951 177.46 228.894 177.516 228.849 177.581C228.805 177.646 228.773 177.719 228.757 177.797C228.741 177.874 228.74 177.954 228.754 178.031C228.769 178.109 228.798 178.183 228.842 178.249C228.463 177.814 227.987 177.475 227.453 177.26C226.954 177.136 226.426 177.213 225.983 177.475C225.54 177.737 225.218 178.163 225.087 178.66C224.994 179.167 225.089 179.69 225.355 180.131C225.62 180.572 226.037 180.901 226.528 181.056C226.295 181.072 226.075 181.17 225.906 181.332C225.738 181.494 225.632 181.711 225.608 181.943C225.23 184.241 227.011 184.721 228.743 184.404C230.63 184.06 232.102 183.962 232.374 181.698Z" fill="#FFE9B3"/>
<path opacity="0.15" d="M232.374 181.698C232.49 181.022 232.375 180.327 232.049 179.724C231.878 179.429 231.613 179.199 231.297 179.071C230.98 178.943 230.63 178.925 230.302 179.019L230 177.97C229.97 177.837 229.919 177.709 229.849 177.592C229.806 177.526 229.75 177.469 229.685 177.425C229.62 177.38 229.547 177.349 229.469 177.332C229.392 177.316 229.312 177.315 229.235 177.33C229.157 177.344 229.083 177.374 229.017 177.417C228.951 177.46 228.894 177.516 228.849 177.581C228.805 177.646 228.773 177.719 228.757 177.797C228.741 177.874 228.74 177.954 228.754 178.031C228.769 178.109 228.798 178.183 228.842 178.249C228.463 177.814 227.987 177.475 227.453 177.26C226.954 177.136 226.426 177.213 225.983 177.475C225.54 177.737 225.218 178.163 225.087 178.66C224.994 179.167 225.089 179.69 225.355 180.131C225.62 180.572 226.037 180.901 226.528 181.056C226.295 181.072 226.075 181.17 225.906 181.332C225.738 181.494 225.632 181.711 225.608 181.943C225.23 184.241 227.011 184.721 228.743 184.404C230.63 184.06 232.102 183.962 232.374 181.698Z" fill="black"/>
</g>
</g>
<defs>
<filter id="filter0_d" x="0" y="0" width="455.66" height="300" filterUnits="userSpaceOnUse" color-interpolation-filters="sRGB">
<feFlood flood-opacity="0" result="BackgroundImageFix"/>
<feColorMatrix in="SourceAlpha" type="matrix" values="0 0 0 0 0 0 0 0 0 0 0 0 0 0 0 0 0 0 127 0"/>
<feOffset dx="70"/>
<feColorMatrix type="matrix" values="0 0 0 0 0 0 0 0 0 0 0 0 0 0 0 0 0 0 0.25 0"/>
<feBlend mode="normal" in2="BackgroundImageFix" result="effect1_dropShadow"/>
<feBlend mode="normal" in="SourceGraphic" in2="effect1_dropShadow" result="shape"/>
</filter>
<clipPath id="clip0">
<rect width="385.66" height="300" fill="white"/>
</clipPath>
</defs>
</svg>
