<svg width="422" height="255" viewBox="0 0 422 255" fill="none" xmlns="http://www.w3.org/2000/svg">
<g filter="url(#filter0_d)">
<g clip-path="url(#clip0)">
<path d="M416.102 195.09C416.11 196.764 415.452 198.374 414.272 199.564C413.092 200.754 411.486 201.428 409.808 201.436H132.907C132.077 201.432 131.255 201.264 130.489 200.943C129.723 200.622 129.028 200.153 128.444 199.564C127.859 198.975 127.397 198.276 127.083 197.509C126.769 196.741 126.61 195.919 126.614 195.09V6.34621C126.605 4.67185 127.263 3.06258 128.443 1.87244C129.624 0.682295 131.229 0.00875617 132.907 0H409.808C410.639 0.00431249 411.461 0.17188 412.227 0.493132C412.992 0.814384 413.687 1.28303 414.272 1.87231C414.856 2.4616 415.319 3.15998 415.633 3.92758C415.947 4.69519 416.106 5.51698 416.102 6.34604V6.34621V195.09Z" fill="#E6E6E6"/>
<path d="M412.835 191.999C412.835 193.627 412.187 195.188 411.034 196.338C409.881 197.489 408.317 198.136 406.686 198.136H136.219C134.588 198.136 133.024 197.489 131.871 196.338C130.718 195.188 130.07 193.627 130.07 191.999V9.52345C130.07 7.896 130.718 6.33521 131.871 5.18443C133.024 4.03365 134.588 3.38715 136.219 3.38715H406.698C408.327 3.39042 409.888 4.03836 411.038 5.18879C412.189 6.33921 412.835 7.89814 412.835 9.52345V191.999Z" fill="white"/>
<path d="M144.525 11.3096H398.668C399.636 11.3096 400.565 11.6933 401.249 12.3764C401.934 13.0594 402.318 13.9859 402.318 14.9518V185.863C402.318 186.829 401.934 187.755 401.249 188.438C400.565 189.122 399.636 189.505 398.668 189.505H144.525C143.557 189.505 142.629 189.122 141.944 188.438C141.26 187.755 140.875 186.829 140.875 185.863V14.9518C140.875 13.9859 141.26 13.0594 141.944 12.3764C142.629 11.6933 143.557 11.3096 144.525 11.3096Z" fill="#E6E6E6"/>
<path d="M147.742 15.4086H395.175C396.143 15.4086 397.072 15.7924 397.756 16.4754C398.441 17.1585 398.825 18.0849 398.825 19.0509V180.842C398.825 181.808 398.441 182.734 397.756 183.417C397.072 184.101 396.143 184.484 395.175 184.484H147.742C146.774 184.484 145.846 184.101 145.161 183.417C144.477 182.734 144.092 181.808 144.092 180.842V19.0509C144.092 18.0849 144.477 17.1585 145.161 16.4754C145.846 15.7924 146.774 15.4086 147.742 15.4086Z" fill="white"/>
<path d="M322.447 127.802C321.473 127.801 320.51 127.596 319.621 127.201C319.414 127.109 319.216 126.997 319.031 126.867L301.049 114.235C300.137 113.595 299.393 112.745 298.879 111.757C298.365 110.769 298.097 109.673 298.096 108.56V91.3333C298.097 90.2204 298.365 89.1238 298.879 88.1361C299.393 87.1483 300.137 86.2983 301.049 85.6577L319.031 73.0263C319.216 72.8958 319.414 72.7839 319.621 72.6922C320.68 72.2223 321.84 72.0239 322.996 72.1151C324.151 72.2063 325.266 72.5843 326.238 73.2146C327.21 73.8448 328.009 74.7075 328.562 75.7242C329.115 76.7409 329.404 77.8793 329.404 79.0361V120.857C329.404 122.698 328.671 124.464 327.366 125.766C326.062 127.068 324.292 127.8 322.447 127.8L322.447 127.802Z" fill="#3F3D56"/>
<path d="M282.202 131.189H232.049C221.816 131.18 213.524 124.58 213.513 116.435V83.4577C213.524 75.3132 221.816 68.7129 232.049 68.7045H282.333C292.493 68.7141 300.725 75.2671 300.737 83.3536V116.435C300.727 124.58 292.435 131.18 282.202 131.189Z" fill="#3F3D56"/>
<path d="M371.543 174.081C379.781 174.081 386.459 167.416 386.459 159.196C386.459 150.975 379.781 144.311 371.543 144.311C363.305 144.311 356.627 150.975 356.627 159.196C356.627 167.416 363.305 174.081 371.543 174.081Z" fill="#E6E6E6"/>
<path d="M379.291 158.929L367.401 152.079C367.354 152.052 367.301 152.037 367.246 152.037C367.192 152.037 367.139 152.052 367.092 152.079C367.045 152.106 367.006 152.145 366.979 152.191C366.952 152.238 366.938 152.291 366.938 152.345V166.046C366.938 166.1 366.952 166.153 366.979 166.2C367.006 166.247 367.045 166.286 367.092 166.313C367.139 166.34 367.192 166.354 367.246 166.354C367.301 166.354 367.354 166.34 367.401 166.313L379.291 159.462C379.338 159.435 379.376 159.397 379.404 159.35C379.431 159.303 379.445 159.25 379.445 159.196C379.445 159.142 379.431 159.088 379.404 159.042C379.376 158.995 379.338 158.956 379.291 158.929L367.401 152.079C367.354 152.052 367.301 152.037 367.246 152.037C367.192 152.037 367.139 152.052 367.092 152.079C367.045 152.106 367.006 152.145 366.979 152.191C366.952 152.238 366.938 152.291 366.938 152.345V166.046C366.938 166.1 366.952 166.153 366.979 166.2C367.006 166.247 367.045 166.286 367.092 166.313C367.139 166.34 367.192 166.354 367.246 166.354C367.301 166.354 367.354 166.34 367.401 166.313L379.291 159.462C379.338 159.435 379.376 159.397 379.404 159.35C379.431 159.303 379.445 159.25 379.445 159.196C379.445 159.142 379.431 159.088 379.404 159.042C379.376 158.995 379.338 158.956 379.291 158.929Z" fill="white"/>
<path d="M352.176 217.726C352.185 219.4 351.527 221.009 350.347 222.2C349.166 223.39 347.561 224.063 345.883 224.072H68.9819C68.1511 224.068 67.3293 223.9 66.5634 223.579C65.7975 223.258 65.1025 222.789 64.5181 222.2C63.9336 221.61 63.4713 220.912 63.1573 220.144C62.8434 219.377 62.684 218.555 62.6883 217.726V28.9818C62.6796 27.3075 63.3377 25.6982 64.5179 24.5081C65.6982 23.3179 67.3039 22.6444 68.9817 22.6356H345.883C346.713 22.6399 347.535 22.8075 348.301 23.1288C349.067 23.45 349.762 23.9186 350.346 24.5079C350.931 25.0972 351.393 25.7956 351.707 26.5632C352.021 27.3308 352.18 28.1526 352.176 28.9817V28.9818V217.726Z" fill="#E6E6E6"/>
<path d="M348.91 214.635C348.91 216.262 348.262 217.823 347.109 218.974C345.955 220.125 344.391 220.771 342.76 220.771H72.2937C70.6628 220.771 69.0987 220.125 67.9455 218.974C66.7923 217.823 66.1444 216.262 66.1444 214.635V32.159C66.1444 30.5316 66.7923 28.9708 67.9455 27.82C69.0987 26.6692 70.6628 26.0227 72.2937 26.0227H342.773C344.402 26.026 345.962 26.6739 347.113 27.8243C348.264 28.9748 348.91 30.5337 348.91 32.159V214.635Z" fill="white"/>
<path d="M80.5999 33.9452H334.743C335.711 33.9452 336.639 34.3289 337.324 35.012C338.008 35.695 338.393 36.6215 338.393 37.5875V208.499C338.393 209.465 338.008 210.391 337.324 211.074C336.639 211.757 335.711 212.141 334.743 212.141H80.5999C79.6318 212.141 78.7035 211.757 78.019 211.074C77.3345 210.391 76.9499 209.465 76.9499 208.499V37.5875C76.9499 36.6215 77.3345 35.695 78.019 35.012C78.7035 34.3289 79.6318 33.9452 80.5999 33.9452Z" fill="#E6E6E6"/>
<path d="M83.8167 38.0443H331.25C332.218 38.0443 333.146 38.428 333.831 39.1111C334.515 39.7942 334.9 40.7206 334.9 41.6866V203.478C334.9 204.444 334.515 205.37 333.831 206.053C333.146 206.736 332.218 207.12 331.25 207.12H83.8167C82.8487 207.12 81.9203 206.736 81.2359 206.053C80.5514 205.37 80.1668 204.444 80.1668 203.478V41.6866C80.1668 40.7206 80.5514 39.7942 81.2359 39.1111C81.9203 38.428 82.8487 38.0443 83.8167 38.0443Z" fill="white"/>
<path d="M258.521 150.437C257.547 150.437 256.585 150.232 255.695 149.836C255.488 149.745 255.291 149.633 255.106 149.502L237.123 136.871C236.211 136.23 235.467 135.38 234.953 134.393C234.439 133.405 234.171 132.308 234.171 131.195V113.969C234.171 112.856 234.439 111.759 234.953 110.772C235.467 109.784 236.211 108.934 237.123 108.293L255.106 95.6618C255.291 95.5313 255.488 95.4194 255.695 95.3277C256.754 94.8578 257.914 94.6594 259.07 94.7506C260.226 94.8418 261.34 95.2198 262.312 95.8501C263.284 96.4803 264.083 97.343 264.636 98.3597C265.189 99.3764 265.479 100.515 265.479 101.672V143.493C265.479 145.334 264.746 147.1 263.441 148.402C262.136 149.704 260.367 150.435 258.521 150.435L258.521 150.437Z" fill="#3F3D56"/>
<path d="M218.277 153.824H168.123C157.891 153.816 149.598 147.215 149.588 139.071V106.093C149.598 97.9488 157.891 91.3485 168.123 91.3401H218.408C228.567 91.3497 236.8 97.9027 236.812 105.989V139.071C236.801 147.215 228.509 153.816 218.277 153.824Z" fill="#3F3D56"/>
<path d="M307.618 196.716C315.856 196.716 322.534 190.052 322.534 181.831C322.534 173.611 315.856 166.946 307.618 166.946C299.38 166.946 292.701 173.611 292.701 181.831C292.701 190.052 299.38 196.716 307.618 196.716Z" fill="#E6E6E6"/>
<path d="M315.365 181.564L303.475 174.714C303.428 174.687 303.375 174.673 303.321 174.673C303.267 174.673 303.213 174.687 303.166 174.714C303.12 174.741 303.081 174.78 303.053 174.827C303.026 174.874 303.012 174.927 303.012 174.981V188.681C303.012 188.736 303.026 188.789 303.053 188.835C303.081 188.882 303.12 188.921 303.166 188.948C303.213 188.975 303.267 188.99 303.321 188.99C303.375 188.99 303.428 188.975 303.475 188.948L315.365 182.098C315.412 182.071 315.451 182.032 315.478 181.985C315.505 181.939 315.519 181.885 315.519 181.831C315.519 181.777 315.505 181.724 315.478 181.677C315.451 181.63 315.412 181.592 315.365 181.564L303.475 174.714C303.428 174.687 303.375 174.673 303.321 174.673C303.267 174.673 303.213 174.687 303.166 174.714C303.12 174.741 303.081 174.78 303.053 174.827C303.026 174.874 303.012 174.927 303.012 174.981V188.681C303.012 188.736 303.026 188.789 303.053 188.835C303.081 188.882 303.12 188.921 303.166 188.948C303.213 188.975 303.267 188.99 303.321 188.99C303.375 188.99 303.428 188.975 303.475 188.948L315.365 182.098C315.412 182.071 315.451 182.032 315.478 181.985C315.505 181.939 315.519 181.885 315.519 181.831C315.519 181.777 315.505 181.724 315.478 181.677C315.451 181.63 315.412 181.592 315.365 181.564Z" fill="white"/>
<path d="M289.488 243.654C289.497 245.328 288.838 246.937 287.658 248.128C286.478 249.318 284.872 249.991 283.194 250H6.29369C5.46288 249.996 4.64106 249.828 3.87515 249.507C3.10924 249.186 2.41424 248.717 1.82982 248.128C1.24541 247.538 0.783034 246.84 0.469092 246.072C0.155151 245.305 -0.00420635 244.483 0.000117124 243.654V54.9099C-0.00865632 53.2355 0.649465 51.6262 1.8297 50.4361C3.00994 49.246 4.61562 48.5724 6.29351 48.5637H283.194C284.025 48.568 284.847 48.7355 285.613 49.0568C286.379 49.378 287.074 49.8467 287.658 50.436C288.243 51.0253 288.705 51.7236 289.019 52.4912C289.333 53.2588 289.492 54.0806 289.488 54.9097V54.9099V243.654Z" fill="#E6E6E6"/>
<path d="M286.221 240.563C286.221 242.191 285.574 243.751 284.42 244.902C283.267 246.053 281.703 246.699 280.072 246.699H9.60543C7.97456 246.699 6.41048 246.053 5.25727 244.902C4.10407 243.751 3.45621 242.191 3.45621 240.563V58.0871C3.45621 56.4597 4.10407 54.8989 5.25727 53.7481C6.41048 52.5973 7.97456 51.9508 9.60543 51.9508H280.085C281.713 51.9541 283.274 52.602 284.425 53.7524C285.575 54.9029 286.221 56.4618 286.221 58.0871V240.563Z" fill="white"/>
<path d="M17.9116 59.8732H272.055C273.023 59.8732 273.951 60.257 274.636 60.94C275.32 61.6231 275.705 62.5495 275.705 63.5155V234.427C275.705 235.393 275.32 236.319 274.636 237.002C273.951 237.685 273.023 238.069 272.055 238.069H17.9116C16.9436 238.069 16.0152 237.685 15.3307 237.002C14.6462 236.319 14.2617 235.393 14.2617 234.427V63.5155C14.2617 62.5495 14.6462 61.6231 15.3307 60.94C16.0152 60.257 16.9436 59.8732 17.9116 59.8732Z" fill="#E6E6E6"/>
<path d="M21.1285 63.9724H268.561C269.041 63.9724 269.515 64.0666 269.958 64.2496C270.401 64.4326 270.803 64.7009 271.142 65.0391C271.481 65.3774 271.75 65.7789 271.934 66.2208C272.117 66.6627 272.211 67.1363 272.211 67.6146V229.406C272.211 229.884 272.117 230.358 271.934 230.8C271.75 231.242 271.481 231.643 271.142 231.981C270.803 232.319 270.401 232.588 269.958 232.771C269.515 232.954 269.041 233.048 268.561 233.048H21.1285C20.1605 233.048 19.2321 232.664 18.5476 231.981C17.8631 231.298 17.4786 230.372 17.4786 229.406V67.6146C17.4786 66.6486 17.8631 65.7222 18.5476 65.0391C19.2321 64.3561 20.1605 63.9724 21.1285 63.9724Z" fill="white"/>
<path d="M195.833 176.365C194.859 176.365 193.896 176.16 193.007 175.764C192.8 175.673 192.602 175.561 192.418 175.43L174.435 162.799C173.523 162.158 172.779 161.308 172.265 160.321C171.751 159.333 171.483 158.236 171.483 157.123V139.897C171.483 138.784 171.751 137.687 172.265 136.7C172.779 135.712 173.523 134.862 174.435 134.221L192.418 121.59C192.602 121.459 192.8 121.348 193.007 121.256C194.066 120.786 195.226 120.588 196.382 120.679C197.537 120.77 198.652 121.148 199.624 121.778C200.596 122.408 201.395 123.271 201.948 124.288C202.501 125.304 202.79 126.443 202.79 127.6V169.421C202.79 171.262 202.057 173.028 200.753 174.33C199.448 175.632 197.678 176.363 195.833 176.363L195.833 176.365Z" fill="#EF233C"/>
<path d="M155.589 179.752H105.435C95.2024 179.744 86.9101 173.144 86.8996 164.999V132.021C86.9101 123.877 95.2024 117.277 105.435 117.268H155.719C165.879 117.278 174.112 123.831 174.124 131.917V164.999C174.113 173.144 165.821 179.744 155.589 179.752Z" fill="#EF233C"/>
<path d="M244.929 222.644C253.167 222.644 259.846 215.98 259.846 207.759C259.846 199.539 253.167 192.874 244.929 192.874C236.691 192.874 230.013 199.539 230.013 207.759C230.013 215.98 236.691 222.644 244.929 222.644Z" fill="#3F3D56"/>
<path d="M252.677 207.493L240.787 200.642C240.74 200.615 240.687 200.601 240.633 200.601C240.578 200.601 240.525 200.615 240.478 200.642C240.431 200.669 240.392 200.708 240.365 200.755C240.338 200.802 240.324 200.855 240.324 200.909V214.61C240.324 214.664 240.338 214.717 240.365 214.764C240.392 214.81 240.431 214.849 240.478 214.876C240.525 214.903 240.578 214.918 240.633 214.918C240.687 214.918 240.74 214.903 240.787 214.876L252.677 208.026C252.724 207.999 252.763 207.96 252.79 207.913C252.817 207.867 252.831 207.813 252.831 207.759C252.831 207.705 252.817 207.652 252.79 207.605C252.763 207.558 252.724 207.52 252.677 207.493L240.787 200.642C240.74 200.615 240.687 200.601 240.633 200.601C240.578 200.601 240.525 200.615 240.478 200.642C240.431 200.669 240.392 200.708 240.365 200.755C240.338 200.802 240.324 200.855 240.324 200.909V214.61C240.324 214.664 240.338 214.717 240.365 214.764C240.392 214.81 240.431 214.849 240.478 214.876C240.525 214.903 240.578 214.918 240.633 214.918C240.687 214.918 240.74 214.903 240.787 214.876L252.677 208.026C252.724 207.999 252.763 207.96 252.79 207.913C252.817 207.867 252.831 207.813 252.831 207.759C252.831 207.705 252.817 207.652 252.79 207.605C252.763 207.558 252.724 207.52 252.677 207.493Z" fill="white"/>
</g>
</g>
<defs>
<filter id="filter0_d" x="0" y="0" width="421.102" height="255" filterUnits="userSpaceOnUse" color-interpolation-filters="sRGB">
<feFlood flood-opacity="0" result="BackgroundImageFix"/>
<feColorMatrix in="SourceAlpha" type="matrix" values="0 0 0 0 0 0 0 0 0 0 0 0 0 0 0 0 0 0 127 0"/>
<feOffset dx="5" dy="5"/>
<feColorMatrix type="matrix" values="0 0 0 0 0 0 0 0 0 0 0 0 0 0 0 0 0 0 0.25 0"/>
<feBlend mode="normal" in2="BackgroundImageFix" result="effect1_dropShadow"/>
<feBlend mode="normal" in="SourceGraphic" in2="effect1_dropShadow" result="shape"/>
</filter>
<clipPath id="clip0">
<rect width="416.102" height="250" fill="white"/>
</clipPath>
</defs>
</svg>
