<svg width="539" height="355" viewBox="0 0 539 355" fill="none" xmlns="http://www.w3.org/2000/svg">
<g filter="url(#filter0_d)">
<g clip-path="url(#clip0)">
<path d="M266.754 350C414.078 350 533.508 342.504 533.508 333.256C533.508 324.009 414.078 316.513 266.754 316.513C119.43 316.513 0 324.009 0 333.256C0 342.504 119.43 350 266.754 350Z" fill="#E6E6E6"/>
<path d="M407.708 0C407.205 0.000527548 406.723 0.200533 406.367 0.556124C406.011 0.911714 405.811 1.39384 405.811 1.89672V76.2456C405.811 76.7485 406.011 77.2306 406.367 77.5862C406.723 77.9418 407.205 78.1418 407.708 78.1423H494.549C495.051 78.1418 495.534 77.9418 495.889 77.5862C496.245 77.2306 496.445 76.7485 496.445 76.2456V1.89674C496.445 1.39386 496.245 0.911732 495.889 0.556142C495.534 0.200552 495.051 0.000547336 494.549 1.82091e-05L407.708 0Z" fill="#E6E6E6"/>
<path d="M419.751 44.751C419.563 44.7893 419.394 44.8917 419.272 45.0406C419.15 45.1895 419.084 45.3758 419.084 45.5681C419.084 45.7604 419.15 45.9468 419.272 46.0957C419.394 46.2446 419.563 46.3469 419.751 46.3853H483.286C483.474 46.3469 483.643 46.2446 483.765 46.0957C483.887 45.9468 483.953 45.7604 483.953 45.5681C483.953 45.3758 483.887 45.1895 483.765 45.0406C483.643 44.8917 483.474 44.7893 483.286 44.751H419.751Z" fill="white"/>
<path d="M418.971 54.4609C418.782 54.4993 418.613 54.6016 418.491 54.7505C418.369 54.8994 418.303 55.0858 418.303 55.2781C418.303 55.4704 418.369 55.6567 418.491 55.8057C418.613 55.9546 418.782 56.0569 418.971 56.0952H482.505C482.693 56.0569 482.862 55.9546 482.984 55.8057C483.106 55.6567 483.172 55.4704 483.172 55.2781C483.172 55.0858 483.106 54.8994 482.984 54.7505C482.862 54.6016 482.693 54.4993 482.505 54.4609H418.971Z" fill="white"/>
<path d="M419.751 64.1709C419.563 64.2093 419.394 64.3116 419.272 64.4605C419.15 64.6094 419.084 64.7958 419.084 64.9881C419.084 65.1803 419.15 65.3667 419.272 65.5156C419.394 65.6645 419.563 65.7668 419.751 65.8052H483.286C483.474 65.7668 483.643 65.6645 483.765 65.5156C483.887 65.3667 483.953 65.1803 483.953 64.9881C483.953 64.7958 483.887 64.6094 483.765 64.4605C483.643 64.3116 483.474 64.2093 483.286 64.1709H419.751Z" fill="white"/>
<path d="M419.751 12.337C419.563 12.3755 419.394 12.4778 419.272 12.6268C419.15 12.7757 419.084 12.9621 419.084 13.1544C419.084 13.3467 419.15 13.5331 419.272 13.6821C419.394 13.831 419.563 13.9334 419.751 13.9718H483.286C483.474 13.9334 483.643 13.831 483.765 13.6821C483.887 13.5331 483.953 13.3467 483.953 13.1544C483.953 12.9621 483.887 12.7757 483.765 12.6268C483.643 12.4778 483.474 12.3755 483.286 12.337H419.751Z" fill="white"/>
<path d="M418.97 22.047C418.782 22.0854 418.613 22.1878 418.491 22.3367C418.369 22.4857 418.303 22.6721 418.303 22.8644C418.303 23.0567 418.369 23.2431 418.491 23.392C418.613 23.541 418.782 23.6434 418.97 23.6818H482.505C482.693 23.6434 482.862 23.541 482.984 23.392C483.106 23.2431 483.172 23.0567 483.172 22.8644C483.172 22.6721 483.106 22.4857 482.984 22.3367C482.862 22.1878 482.693 22.0854 482.505 22.047H418.97Z" fill="white"/>
<path d="M419.751 31.7571C419.563 31.7955 419.394 31.8978 419.272 32.0468C419.15 32.1957 419.084 32.3822 419.084 32.5745C419.084 32.7668 419.15 32.9532 419.272 33.1021C419.394 33.2511 419.563 33.3534 419.751 33.3918H483.286C483.474 33.3534 483.643 33.2511 483.765 33.1021C483.887 32.9532 483.953 32.7668 483.953 32.5745C483.953 32.3822 483.887 32.1957 483.765 32.0468C483.643 31.8978 483.474 31.7955 483.286 31.7571H419.751Z" fill="white"/>
<path d="M368.892 30.4031C368.389 30.4036 367.907 30.6036 367.551 30.9592C367.196 31.3148 366.996 31.7969 366.995 32.2998V106.649C366.996 107.152 367.196 107.634 367.551 107.989C367.907 108.345 368.389 108.545 368.892 108.545H455.733C456.236 108.545 456.718 108.345 457.073 107.989C457.429 107.634 457.629 107.152 457.63 106.649V32.2998C457.629 31.7969 457.429 31.3148 457.073 30.9592C456.718 30.6036 456.236 30.4036 455.733 30.4031H368.892Z" fill="#EF233C"/>
<path d="M380.936 75.1541C380.747 75.1924 380.578 75.2947 380.456 75.4436C380.335 75.5925 380.268 75.7789 380.268 75.9712C380.268 76.1635 380.335 76.3498 380.456 76.4988C380.578 76.6477 380.747 76.75 380.936 76.7883H444.47C444.658 76.75 444.828 76.6477 444.949 76.4988C445.071 76.3498 445.138 76.1635 445.138 75.9712C445.138 75.7789 445.071 75.5925 444.949 75.4436C444.828 75.2947 444.658 75.1924 444.47 75.1541H380.936Z" fill="white"/>
<path d="M380.155 84.864C379.966 84.9024 379.797 85.0047 379.675 85.1536C379.554 85.3025 379.487 85.4889 379.487 85.6812C379.487 85.8734 379.554 86.0598 379.675 86.2087C379.797 86.3576 379.966 86.4599 380.155 86.4983H443.689C443.877 86.4599 444.047 86.3576 444.168 86.2087C444.29 86.0598 444.357 85.8734 444.357 85.6812C444.357 85.4889 444.29 85.3025 444.168 85.1536C444.047 85.0047 443.877 84.9024 443.689 84.864H380.155Z" fill="white"/>
<path d="M380.936 94.574C380.747 94.6123 380.578 94.7146 380.456 94.8636C380.335 95.0125 380.268 95.1988 380.268 95.3911C380.268 95.5834 380.335 95.7698 380.456 95.9187C380.578 96.0676 380.747 96.1699 380.936 96.2083H444.47C444.658 96.1699 444.828 96.0676 444.949 95.9187C445.071 95.7698 445.138 95.5834 445.138 95.3911C445.138 95.1988 445.071 95.0125 444.949 94.8636C444.828 94.7146 444.658 94.6123 444.47 94.574H380.936Z" fill="white"/>
<path d="M380.936 42.74C380.747 42.7784 380.578 42.8807 380.456 43.0297C380.335 43.1786 380.268 43.3651 380.268 43.5574C380.268 43.7497 380.335 43.9361 380.456 44.085C380.578 44.234 380.747 44.3363 380.936 44.3748H444.47C444.658 44.3363 444.828 44.234 444.949 44.085C445.071 43.9361 445.138 43.7497 445.138 43.5574C445.138 43.3651 445.071 43.1786 444.949 43.0297C444.828 42.8807 444.658 42.7784 444.47 42.74H380.936Z" fill="white"/>
<path d="M380.155 52.4502C379.966 52.4886 379.797 52.591 379.675 52.7399C379.554 52.8889 379.487 53.0753 379.487 53.2676C379.487 53.4599 379.554 53.6463 379.675 53.7952C379.797 53.9442 379.966 54.0465 380.155 54.085H443.689C443.878 54.0465 444.047 53.9442 444.169 53.7952C444.29 53.6463 444.357 53.4599 444.357 53.2676C444.357 53.0753 444.29 52.8889 444.169 52.7399C444.047 52.591 443.878 52.4886 443.689 52.4502H380.155Z" fill="white"/>
<path d="M380.936 62.1602C380.747 62.1986 380.578 62.3009 380.456 62.4499C380.335 62.5988 380.268 62.7852 380.268 62.9775C380.268 63.1699 380.335 63.3563 380.456 63.5052C380.578 63.6542 380.747 63.7565 380.936 63.7949H444.47C444.658 63.7565 444.828 63.6542 444.949 63.5052C445.071 63.3563 445.138 63.1699 445.138 62.9775C445.138 62.7852 445.071 62.5988 444.949 62.4499C444.828 62.3009 444.658 62.1986 444.47 62.1602H380.936Z" fill="white"/>
<path d="M491.57 307.756L492.025 316.404L501.583 315.493L500.673 306.846L491.57 307.756Z" fill="#FBBEBE"/>
<path d="M454.701 297.742L455.156 306.39L464.715 305.48L463.805 296.832L454.701 297.742Z" fill="#FBBEBE"/>
<path d="M498.17 190.096L463.577 196.013L461.301 258.826L452.198 298.88L466.763 305.252L480.873 265.653L485.88 230.605L489.521 265.653L489.977 309.804L512.28 308.439L506.948 221.98C506.262 210.859 503.272 200.001 498.17 190.096V190.096Z" fill="#2F2E41"/>
<path d="M492.935 313.218C492.935 313.218 489.749 309.576 489.749 310.942C489.749 312.307 487.928 325.507 487.928 325.507C487.928 325.507 500.218 329.148 500.218 331.424C500.218 333.7 517.969 337.341 517.514 332.79C517.059 328.238 501.583 310.942 501.583 310.942C501.583 310.942 495.211 310.032 492.935 313.218Z" fill="#2F2E41"/>
<path d="M456.621 303.259C456.621 303.259 455.651 298.519 454.976 299.706C454.301 300.893 446.194 311.468 446.194 311.468C446.194 311.468 455.079 320.707 453.954 322.686C452.829 324.664 466.461 336.603 468.315 332.421C470.169 328.239 465.264 305.555 465.264 305.555C465.264 305.555 460.174 301.614 456.621 303.259Z" fill="#2F2E41"/>
<path d="M455.923 139.92L481.122 142.329L489.521 119.44L465.398 113.628L455.923 139.92Z" fill="#2F2E41"/>
<path d="M476.549 135.248C483.588 135.248 489.294 129.542 489.294 122.504C489.294 115.465 483.588 109.759 476.549 109.759C469.511 109.759 463.805 115.465 463.805 122.504C463.805 129.542 469.511 135.248 476.549 135.248Z" fill="#FBBEBE"/>
<path d="M469.267 130.241C469.267 130.241 469.267 138.89 462.439 142.531C455.612 146.172 478.825 150.269 478.825 150.269L481.101 142.531C481.101 142.531 474.273 139.345 480.191 132.062L469.267 130.241Z" fill="#FBBEBE"/>
<path d="M480.191 140.255C480.191 140.255 471.854 145.419 464.871 140.789L461.984 140.255L453.336 142.076L449.239 157.552L464.715 196.241C464.715 196.241 491.57 200.792 497.032 190.779L493.846 149.814L485.197 139.345L480.191 140.255Z" fill="#575A89"/>
<path d="M484.287 140.71L499.307 119.772L497.942 117.497L478.37 107.483V101.111L508.866 109.304L510.93 112.574L492.935 151.634L484.287 140.71Z" fill="#575A89"/>
<path d="M454.246 142.531L453.336 142.076L430.578 141.166L447.874 126.145L442.412 119.318L416.467 138.89V143.441L453.336 158.917L454.246 142.531Z" fill="#575A89"/>
<path d="M442.184 121.366L445.371 119.545C445.371 119.545 452.198 110.442 454.929 114.083C457.66 117.724 448.557 124.552 448.557 124.552L443.55 126.373L442.184 121.366Z" fill="#FBBEBE"/>
<path d="M479.735 102.476L474.729 99.7454C474.729 99.7454 459.708 101.111 461.529 104.297C463.349 107.483 473.818 104.752 473.818 104.752L479.735 106.573V102.476Z" fill="#FBBEBE"/>
<path d="M466.765 110.203C466.765 110.203 460.915 112.153 460.618 119.854C460.588 121.086 460.725 122.316 461.024 123.511C461.354 124.907 461.565 127.911 459.012 131.837C457.303 134.429 455.741 137.115 454.335 139.883L454.317 139.919L460.742 140.722L462.108 130.072C462.77 124.909 464.189 119.871 466.319 115.121L466.364 115.022C466.364 115.022 469.175 120.242 474.797 120.242L472.789 118.234C472.789 118.234 481.624 121.849 484.836 121.849C484.836 121.849 487.246 123.455 484.836 125.864C482.427 128.274 477.608 133.896 480.419 138.313C483.23 142.73 480.82 143.935 480.82 143.935L485.238 141.526L487.246 140.321V141.927L497.687 140.723C497.687 140.723 500.498 140.321 494.474 133.494C494.474 133.494 492.883 130.843 493.579 128.557C494.151 126.819 494.301 124.97 494.018 123.163C492.668 115.635 487.374 100.668 466.765 110.203Z" fill="#2F2E41"/>
<path d="M100.455 117.638C100.14 117.638 99.838 117.763 99.6154 117.986C99.3928 118.208 99.2676 118.51 99.2673 118.825V209.529C99.2676 209.844 99.3927 210.146 99.6153 210.369C99.8379 210.591 100.14 210.716 100.455 210.717H307.508C307.822 210.716 308.124 210.591 308.347 210.369C308.569 210.146 308.695 209.844 308.695 209.529V118.825C308.695 118.51 308.569 118.208 308.347 117.986C308.124 117.763 307.822 117.638 307.508 117.638H100.455Z" fill="#E6E6E6"/>
<path d="M279.489 135.532H128.473C128.286 135.533 128.1 135.496 127.927 135.425C127.754 135.353 127.597 135.249 127.464 135.116C127.331 134.984 127.226 134.827 127.154 134.654C127.083 134.481 127.046 134.295 127.046 134.108C127.046 133.92 127.083 133.735 127.154 133.562C127.226 133.389 127.331 133.232 127.464 133.099C127.597 132.967 127.754 132.862 127.927 132.791C128.1 132.719 128.286 132.683 128.473 132.683H279.489C279.866 132.684 280.228 132.834 280.494 133.101C280.761 133.369 280.911 133.73 280.911 134.108C280.911 134.485 280.761 134.847 280.494 135.114C280.228 135.381 279.866 135.532 279.489 135.532Z" fill="white"/>
<path d="M279.489 146.93H128.473C128.095 146.93 127.733 146.78 127.466 146.513C127.199 146.245 127.049 145.883 127.049 145.505C127.049 145.127 127.199 144.765 127.466 144.498C127.733 144.231 128.095 144.081 128.473 144.081H279.489C279.867 144.081 280.229 144.231 280.496 144.498C280.764 144.765 280.914 145.127 280.914 145.505C280.914 145.883 280.764 146.245 280.496 146.513C280.229 146.78 279.867 146.93 279.489 146.93Z" fill="white"/>
<path d="M279.489 158.327H128.473C128.286 158.328 128.1 158.291 127.927 158.22C127.754 158.148 127.597 158.043 127.464 157.911C127.331 157.779 127.226 157.622 127.154 157.449C127.083 157.276 127.046 157.09 127.046 156.903C127.046 156.715 127.083 156.53 127.154 156.357C127.226 156.184 127.331 156.027 127.464 155.894C127.597 155.762 127.754 155.657 127.927 155.586C128.1 155.514 128.286 155.478 128.473 155.478H279.489C279.866 155.479 280.228 155.629 280.494 155.896C280.761 156.163 280.911 156.525 280.911 156.903C280.911 157.28 280.761 157.642 280.494 157.909C280.228 158.176 279.866 158.327 279.489 158.327Z" fill="white"/>
<path d="M279.489 169.638H128.473C128.095 169.638 127.733 169.488 127.466 169.221C127.199 168.954 127.049 168.592 127.049 168.214C127.049 167.836 127.199 167.474 127.466 167.206C127.733 166.939 128.095 166.789 128.473 166.789H279.489C279.867 166.789 280.229 166.939 280.496 167.206C280.764 167.474 280.914 167.836 280.914 168.214C280.914 168.592 280.764 168.954 280.496 169.221C280.229 169.488 279.867 169.638 279.489 169.638Z" fill="white"/>
<path d="M279.489 181.036H128.473C128.286 181.036 128.1 181 127.927 180.928C127.754 180.857 127.597 180.752 127.464 180.62C127.331 180.487 127.226 180.33 127.154 180.157C127.083 179.984 127.046 179.799 127.046 179.611C127.046 179.424 127.083 179.238 127.154 179.065C127.226 178.892 127.331 178.735 127.464 178.603C127.597 178.47 127.754 178.366 127.927 178.294C128.1 178.223 128.286 178.186 128.473 178.187H279.489C279.867 178.187 280.229 178.337 280.496 178.604C280.764 178.871 280.914 179.233 280.914 179.611C280.914 179.989 280.764 180.351 280.496 180.619C280.229 180.886 279.867 181.036 279.489 181.036Z" fill="white"/>
<path d="M241.157 190.52C241.049 190.52 240.945 190.563 240.869 190.639C240.793 190.715 240.75 190.819 240.75 190.927V201.711C240.75 201.819 240.793 201.922 240.869 201.998C240.945 202.075 241.049 202.118 241.157 202.118H278.88C278.988 202.118 279.091 202.075 279.168 201.998C279.244 201.922 279.287 201.819 279.287 201.711V190.927C279.287 190.819 279.244 190.715 279.168 190.639C279.091 190.563 278.988 190.52 278.88 190.52H241.157Z" fill="white"/>
<path d="M34.5142 210.51C34.5142 210.51 31.3996 247.96 30.7308 255.985C30.2723 261.015 29.1479 265.962 27.3872 270.697C26.5868 272.372 26.132 274.192 26.0497 276.047V310.153C26.0497 310.153 23.3747 310.153 24.0435 312.827C24.7122 315.502 25.3809 320.184 25.3809 320.184H35.412C35.412 320.184 34.7433 318.177 36.7495 317.509C38.7557 316.84 36.7495 311.49 36.7495 311.49L47.4493 271.366L63.4991 237.929C63.4991 237.929 72.8614 268.022 74.8676 271.366C74.8676 271.366 82.2237 308.815 83.5612 312.159C84.8987 315.502 85.5674 315.502 84.8987 316.84C84.2299 318.177 84.2299 319.515 84.8987 320.184C85.5674 320.852 98.2735 320.184 98.2735 320.184L94.9298 272.703L88.9111 215.86L58.1491 206.498L34.5142 210.51Z" fill="#2F2E41"/>
<path d="M32.7371 314.834C32.7371 314.834 29.3934 302.797 24.0434 312.159C18.6935 321.521 18.6935 324.865 18.6935 324.865C18.6935 324.865 9.99993 337.571 22.0372 336.234C34.0745 334.896 31.3996 328.877 31.3996 328.877C31.3996 328.877 36.0807 326.202 36.0807 324.196C36.0807 322.19 32.7371 314.834 32.7371 314.834Z" fill="#2F2E41"/>
<path d="M86.9049 313.496C86.9049 313.496 90.2486 301.459 95.5985 310.822C100.948 320.184 100.948 323.528 100.948 323.528C100.948 323.528 109.642 336.234 97.6047 334.896C85.5674 333.559 88.2423 327.54 88.2423 327.54C88.2423 327.54 83.5612 324.865 83.5612 322.859C83.5612 320.853 86.9049 313.496 86.9049 313.496Z" fill="#2F2E41"/>
<path d="M55.4742 120.231C55.4742 120.231 56.8116 128.925 52.7992 130.931C48.7868 132.937 61.4928 140.293 64.8365 140.293C68.1802 140.293 74.1988 133.606 74.1988 133.606C74.1988 133.606 70.8552 123.575 71.5239 121.568L55.4742 120.231Z" fill="#FFB9B9"/>
<path d="M62.8303 126.918C70.5863 126.918 76.8738 120.631 76.8738 112.875C76.8738 105.119 70.5863 98.8313 62.8303 98.8313C55.0743 98.8313 48.7868 105.119 48.7868 112.875C48.7868 120.631 55.0743 126.918 62.8303 126.918Z" fill="#FFB9B9"/>
<path d="M90.2486 141.631L73.5306 131.502C73.5306 131.502 64.0186 142.299 53.7277 130.262L36.0807 134.943L38.7557 180.417C38.7557 180.417 34.7432 198.473 36.0807 201.817C37.4182 205.161 32.737 206.498 34.0745 207.167C35.412 207.836 34.0745 212.517 34.0745 212.517C34.0745 212.517 60.1553 225.892 88.9111 215.861L86.2361 207.167C86.6002 206.031 86.6684 204.82 86.4344 203.65C86.2004 202.48 85.6718 201.389 84.8986 200.48C84.8986 200.48 87.5736 196.467 84.2299 193.123C84.2299 193.123 85.5674 187.105 82.2237 184.43L81.555 175.067L83.5612 170.386L90.2486 141.631Z" fill="#CFCCE0"/>
<path d="M55.6432 106.354C55.6432 106.354 53.9689 109.977 60.666 108.528C60.666 108.528 63.1774 109.977 63.1774 107.803C63.1774 107.803 66.526 111.427 67.3631 109.253C68.2002 107.079 69.8745 109.977 69.8745 109.977L71.5488 106.354L73.2231 108.528H79.083C79.083 108.528 80.7573 94.0346 60.666 95.484C40.5748 96.9333 50.4586 119.896 50.4586 119.896C50.4586 119.896 50.6204 115.775 52.2947 117.949C53.969 120.123 55.6432 106.354 55.6432 106.354Z" fill="#2F2E41"/>
<path d="M96.2672 168.38L96.9359 182.424C96.9359 182.424 99.6109 208.504 94.261 219.873V225.892C94.261 225.892 92.9235 241.273 86.2361 240.604C79.5487 239.935 88.2423 218.536 88.2423 218.536L86.9049 189.111L85.5674 172.393L96.2672 168.38Z" fill="#FFB9B9"/>
<path d="M82.8925 142.299L89.5635 141.215C94.369 145.833 97.6424 151.813 98.9422 158.349C100.948 169.049 101.617 171.055 101.617 171.055L85.5674 175.067L76.8738 158.349L82.8925 142.299Z" fill="#CFCCE0"/>
<path d="M54.8911 146.261C54.5763 146.261 54.2745 146.387 54.052 146.609C53.8294 146.832 53.7042 147.133 53.7039 147.448V238.153C53.7041 238.467 53.8293 238.769 54.0519 238.992C54.2745 239.214 54.5763 239.34 54.8911 239.34H261.944C262.259 239.34 262.561 239.214 262.783 238.992C263.006 238.769 263.131 238.467 263.131 238.153V147.448C263.131 147.133 263.006 146.832 262.783 146.609C262.561 146.387 262.259 146.261 261.944 146.261H54.8911Z" fill="#EF233C"/>
<path d="M233.926 164.156H82.9098C82.5324 164.155 82.1708 164.005 81.9043 163.737C81.6377 163.47 81.488 163.108 81.488 162.731C81.488 162.354 81.6377 161.992 81.9043 161.725C82.1708 161.458 82.5324 161.307 82.9098 161.306H233.926C234.303 161.306 234.666 161.456 234.933 161.724C235.2 161.991 235.35 162.353 235.35 162.731C235.35 163.109 235.2 163.471 234.933 163.738C234.666 164.006 234.303 164.156 233.926 164.156Z" fill="white"/>
<path d="M233.926 175.553H82.9098C82.5324 175.552 82.1708 175.402 81.9043 175.135C81.6377 174.868 81.488 174.506 81.488 174.129C81.488 173.751 81.6377 173.389 81.9043 173.122C82.1708 172.855 82.5324 172.705 82.9098 172.704H233.926C234.303 172.704 234.666 172.854 234.933 173.121C235.2 173.388 235.35 173.751 235.35 174.129C235.35 174.506 235.2 174.869 234.933 175.136C234.666 175.403 234.303 175.553 233.926 175.553Z" fill="white"/>
<path d="M233.926 186.95H82.9098C82.5324 186.95 82.1708 186.799 81.9043 186.532C81.6377 186.265 81.488 185.903 81.488 185.526C81.488 185.148 81.6377 184.786 81.9043 184.519C82.1708 184.252 82.5324 184.102 82.9098 184.101H233.926C234.113 184.101 234.298 184.137 234.472 184.209C234.645 184.28 234.802 184.385 234.935 184.517C235.067 184.65 235.173 184.807 235.244 184.98C235.316 185.153 235.353 185.338 235.353 185.526C235.353 185.713 235.316 185.899 235.244 186.072C235.173 186.245 235.067 186.402 234.935 186.534C234.802 186.667 234.645 186.771 234.472 186.843C234.298 186.914 234.113 186.951 233.926 186.95Z" fill="white"/>
<path d="M233.926 198.262H82.9098C82.5324 198.261 82.1708 198.111 81.9043 197.843C81.6377 197.576 81.488 197.214 81.488 196.837C81.488 196.46 81.6377 196.098 81.9043 195.831C82.1708 195.564 82.5324 195.413 82.9098 195.412H233.926C234.113 195.412 234.298 195.449 234.472 195.52C234.645 195.591 234.802 195.696 234.935 195.829C235.067 195.961 235.173 196.118 235.244 196.291C235.316 196.464 235.353 196.65 235.353 196.837C235.353 197.024 235.316 197.21 235.244 197.383C235.173 197.556 235.067 197.713 234.935 197.845C234.802 197.978 234.645 198.083 234.472 198.154C234.298 198.226 234.113 198.262 233.926 198.262Z" fill="white"/>
<path d="M233.926 209.659H82.9098C82.5319 209.659 82.1696 209.509 81.9024 209.242C81.6352 208.975 81.4851 208.612 81.4851 208.235C81.4851 207.857 81.6352 207.494 81.9024 207.227C82.1696 206.96 82.5319 206.81 82.9098 206.81H233.926C234.303 206.81 234.666 206.96 234.933 207.227C235.2 207.494 235.35 207.857 235.35 208.235C235.35 208.612 235.2 208.975 234.933 209.242C234.666 209.509 234.303 209.659 233.926 209.659Z" fill="white"/>
<path d="M195.593 219.143C195.485 219.143 195.382 219.186 195.306 219.262C195.229 219.339 195.186 219.442 195.186 219.55V230.334C195.186 230.442 195.229 230.545 195.306 230.622C195.382 230.698 195.485 230.741 195.593 230.741H233.317C233.425 230.741 233.528 230.698 233.604 230.622C233.681 230.545 233.723 230.442 233.724 230.334V219.55C233.723 219.442 233.681 219.339 233.604 219.262C233.528 219.186 233.425 219.143 233.317 219.143H195.593Z" fill="white"/>
<path d="M26.0497 160.355C26.0497 160.355 20.031 185.767 27.3871 185.767C34.7433 185.767 52.1305 157.012 52.1305 157.012C52.1305 157.012 70.1864 147.649 62.8303 144.306C55.4741 140.962 46.1118 149.655 46.1118 149.655L35.309 164.654L34.7433 157.012L26.0497 160.355Z" fill="#FFB9B9"/>
<path d="M40.0932 138.956L36.0807 134.943C36.0807 134.943 28.0559 139.624 27.3871 144.305C26.7184 148.987 23.3747 163.699 23.3747 163.699L35.7464 164.702L39.7588 158.683L40.0932 138.956Z" fill="#CFCCE0"/>
</g>
</g>
<defs>
<filter id="filter0_d" x="0" y="0" width="538.508" height="355" filterUnits="userSpaceOnUse" color-interpolation-filters="sRGB">
<feFlood flood-opacity="0" result="BackgroundImageFix"/>
<feColorMatrix in="SourceAlpha" type="matrix" values="0 0 0 0 0 0 0 0 0 0 0 0 0 0 0 0 0 0 127 0"/>
<feOffset dx="5" dy="5"/>
<feColorMatrix type="matrix" values="0 0 0 0 0 0 0 0 0 0 0 0 0 0 0 0 0 0 0.25 0"/>
<feBlend mode="normal" in2="BackgroundImageFix" result="effect1_dropShadow"/>
<feBlend mode="normal" in="SourceGraphic" in2="effect1_dropShadow" result="shape"/>
</filter>
<clipPath id="clip0">
<rect width="533.508" height="350" fill="white"/>
</clipPath>
</defs>
</svg>
