<svg width="261" height="305" viewBox="0 0 261 305" fill="none" xmlns="http://www.w3.org/2000/svg">
<g filter="url(#filter0_d)">
<g clip-path="url(#clip0)">
<path d="M237.983 51.9723L213.562 44.5887L212.06 77.9848L237.761 85.7316L237.983 51.9723Z" fill="#F5F5F5"/>
<path d="M66.0756 0V33.9816L212.06 77.9848L213.562 44.5887L66.0756 0Z" fill="#F5F5F5"/>
<path opacity="0.1" d="M237.983 51.9723L213.562 44.5887L212.06 77.9848L237.761 85.7316L237.983 51.9723Z" fill="black"/>
<path d="M237.983 115.938L213.562 108.554L212.06 141.95L237.761 149.698L237.983 115.938Z" fill="#3AD29F"/>
<path d="M66.0756 63.9656V97.9472L212.06 141.95L213.562 108.554L66.0756 63.9656Z" fill="#3AD29F"/>
<path opacity="0.1" d="M237.983 115.938L213.562 108.554L212.06 141.95L237.761 149.698L237.983 115.938Z" fill="black"/>
<path d="M219.771 127.709L223.769 133.706L231.765 123.711" stroke="white" stroke-width="7" stroke-miterlimit="10" stroke-linecap="round"/>
<g opacity="0.4">
<path opacity="0.4" d="M219.993 57.7468L227.989 71.7393" stroke="white" stroke-width="7" stroke-miterlimit="10" stroke-linecap="round"/>
<path opacity="0.4" d="M229.988 59.7457L219.993 69.7404" stroke="white" stroke-width="7" stroke-miterlimit="10" stroke-linecap="round"/>
</g>
<path d="M237.983 175.905L213.562 168.522L212.06 201.918L237.761 209.665L237.983 175.905Z" fill="#F5F5F5"/>
<path d="M66.0756 123.934V157.915L212.06 201.918L213.562 168.522L66.0756 123.934Z" fill="#F5F5F5"/>
<path opacity="0.1" d="M237.983 175.905L213.562 168.522L212.06 201.918L237.761 209.665L237.983 175.905Z" fill="black"/>
<g opacity="0.4">
<path opacity="0.4" d="M219.993 181.68L227.989 195.673" stroke="white" stroke-width="7" stroke-miterlimit="10" stroke-linecap="round"/>
<path opacity="0.4" d="M229.988 183.679L219.993 193.674" stroke="white" stroke-width="7" stroke-miterlimit="10" stroke-linecap="round"/>
</g>
<path opacity="0.3" d="M167.021 119.714C169.781 119.714 172.019 115.239 172.019 109.719C172.019 104.199 169.781 99.7242 167.021 99.7242C164.262 99.7242 162.024 104.199 162.024 109.719C162.024 115.239 164.262 119.714 167.021 119.714Z" fill="black"/>
<path opacity="0.1" d="M167.021 193.674C190.205 193.674 208.999 156.086 208.999 109.719C208.999 63.3518 190.205 25.7639 167.021 25.7639C143.838 25.7639 125.044 63.3518 125.044 109.719C125.044 156.086 143.838 193.674 167.021 193.674Z" fill="#EF233C"/>
<path opacity="0.1" d="M167.021 155.694C179.717 155.694 190.009 135.11 190.009 109.719C190.009 84.3274 179.717 63.7435 167.021 63.7435C154.326 63.7435 144.034 84.3274 144.034 109.719C144.034 135.11 154.326 155.694 167.021 155.694Z" fill="white"/>
<g opacity="0.5">
<path opacity="0.5" d="M2.22103 49.64H1.55472V53.4158H2.22103V49.64Z" fill="#47E6B1"/>
<path opacity="0.5" d="M3.77576 51.861V51.1947H4.05312e-06V51.861H3.77576Z" fill="#47E6B1"/>
</g>
<g opacity="0.5">
<path opacity="0.5" d="M238.514 233.723H237.848V237.499H238.514V233.723Z" fill="#47E6B1"/>
<path opacity="0.5" d="M240.069 235.945V235.278H236.293V235.945H240.069Z" fill="#47E6B1"/>
</g>
<g opacity="0.5">
<path opacity="0.5" d="M222.103 153.584H221.437V157.36H222.103V153.584Z" fill="#47E6B1"/>
<path opacity="0.5" d="M223.658 155.805V155.139H219.882V155.805H223.658Z" fill="#47E6B1"/>
</g>
<g opacity="0.5">
<path opacity="0.5" d="M193.674 230.432H193.008V234.208H193.674V230.432Z" fill="#47E6B1"/>
<path opacity="0.5" d="M195.229 232.653V231.987H191.453V232.653H195.229Z" fill="#47E6B1"/>
</g>
<g opacity="0.5">
<path opacity="0.5" d="M173.685 278.628H173.018V282.404H173.685V278.628Z" fill="#47E6B1"/>
<path opacity="0.5" d="M175.239 280.849V280.183H171.463V280.849H175.239Z" fill="#47E6B1"/>
</g>
<g opacity="0.5">
<path opacity="0.5" d="M30.6502 108.053H29.9839V111.829H30.6502V108.053Z" fill="#47E6B1"/>
<path opacity="0.5" d="M32.205 110.274V109.608H28.4292V110.274H32.205Z" fill="#47E6B1"/>
</g>
<path opacity="0.5" d="M40.3544 49.2637C40.1708 49.1837 40.023 49.039 39.9391 48.8571C39.8553 48.6752 39.8412 48.4689 39.8997 48.2773C39.9091 48.2479 39.9151 48.2176 39.9174 48.1868C39.9227 48.099 39.8997 48.0119 39.8516 47.9382C39.8035 47.8646 39.733 47.8084 39.6505 47.778C39.5681 47.7475 39.4779 47.7445 39.3936 47.7693C39.3092 47.7941 39.2351 47.8454 39.1821 47.9156C39.1639 47.9405 39.1487 47.9674 39.1368 47.9959C39.0569 48.1795 38.9122 48.3274 38.7303 48.4112C38.5484 48.4951 38.342 48.5091 38.1505 48.4507C38.1211 48.4412 38.0907 48.4353 38.06 48.4329C37.9722 48.4276 37.885 48.4507 37.8114 48.4987C37.7378 48.5468 37.6816 48.6173 37.6511 48.6998C37.6207 48.7823 37.6177 48.8724 37.6424 48.9567C37.6672 49.0411 37.7185 49.1153 37.7887 49.1682C37.8136 49.1864 37.8406 49.2016 37.8691 49.2135C38.0527 49.2934 38.2005 49.4381 38.2844 49.62C38.3682 49.8019 38.3823 50.0083 38.3238 50.1998C38.3144 50.2292 38.3084 50.2596 38.3061 50.2904C38.3008 50.3781 38.3238 50.4653 38.3719 50.5389C38.4199 50.6126 38.4904 50.6687 38.5729 50.6992C38.6554 50.7296 38.7455 50.7327 38.8299 50.7079C38.9143 50.6831 38.9884 50.6318 39.0414 50.5616C39.0596 50.5367 39.0748 50.5097 39.0866 50.4812C39.1666 50.2976 39.3113 50.1498 39.4932 50.066C39.6751 49.9821 39.8814 49.968 40.073 50.0265C40.1024 50.0359 40.1328 50.0419 40.1635 50.0442C40.2513 50.0496 40.3384 50.0265 40.4121 49.9784C40.4857 49.9304 40.5419 49.8599 40.5723 49.7774C40.6028 49.6949 40.6058 49.6048 40.5811 49.5204C40.5563 49.436 40.505 49.3619 40.4348 49.309C40.4098 49.2908 40.3829 49.2756 40.3544 49.2637Z" fill="#4D8AF0"/>
<path opacity="0.5" d="M190.318 15.8706C190.134 15.7906 189.987 15.6459 189.903 15.4641C189.819 15.2822 189.805 15.0758 189.863 14.8842C189.873 14.8549 189.879 14.8245 189.881 14.7937C189.886 14.706 189.863 14.6188 189.815 14.5452C189.767 14.4715 189.697 14.4153 189.614 14.3849C189.532 14.3545 189.441 14.3514 189.357 14.3762C189.273 14.401 189.199 14.4523 189.146 14.5225C189.127 14.5474 189.112 14.5744 189.1 14.6028C189.02 14.7865 188.876 14.9343 188.694 15.0181C188.512 15.102 188.306 15.116 188.114 15.0576C188.085 15.0482 188.054 15.0422 188.024 15.0399C187.936 15.0345 187.849 15.0576 187.775 15.1056C187.701 15.1537 187.645 15.2242 187.615 15.3067C187.584 15.3892 187.581 15.4793 187.606 15.5637C187.631 15.648 187.682 15.7222 187.752 15.7751C187.777 15.7933 187.804 15.8085 187.833 15.8204C188.016 15.9004 188.164 16.0451 188.248 16.227C188.332 16.4088 188.346 16.6152 188.287 16.8068C188.278 16.8361 188.272 16.8665 188.27 16.8973C188.264 16.9851 188.287 17.0722 188.335 17.1458C188.383 17.2195 188.454 17.2757 188.536 17.3061C188.619 17.3365 188.709 17.3396 188.793 17.3148C188.878 17.29 188.952 17.2387 189.005 17.1685C189.023 17.1436 189.038 17.1166 189.05 17.0882C189.13 16.9045 189.275 16.7567 189.457 16.6729C189.639 16.589 189.845 16.575 190.037 16.6334C190.066 16.6429 190.096 16.6488 190.127 16.6512C190.215 16.6565 190.302 16.6334 190.376 16.5854C190.449 16.5373 190.505 16.4668 190.536 16.3843C190.566 16.3018 190.569 16.2117 190.545 16.1273C190.52 16.043 190.469 15.9688 190.398 15.9159C190.373 15.8977 190.346 15.8825 190.318 15.8706Z" fill="#4D8AF0"/>
<path opacity="0.5" d="M5.97244 134.696C5.78882 134.616 5.64102 134.471 5.55717 134.289C5.47331 134.107 5.45926 133.901 5.51769 133.709C5.52715 133.68 5.5331 133.65 5.53544 133.619C5.54078 133.531 5.51772 133.444 5.46966 133.37C5.42159 133.297 5.35108 133.241 5.26858 133.21C5.18609 133.18 5.09599 133.177 5.01162 133.201C4.92726 133.226 4.85311 133.277 4.80018 133.348C4.78198 133.373 4.76678 133.4 4.75489 133.428C4.67492 133.612 4.53022 133.759 4.34834 133.843C4.16646 133.927 3.9601 133.941 3.76853 133.883C3.73916 133.873 3.70878 133.867 3.67801 133.865C3.59024 133.86 3.50309 133.883 3.42946 133.931C3.35582 133.979 3.29962 134.049 3.26919 134.132C3.23876 134.214 3.2357 134.305 3.26048 134.389C3.28526 134.473 3.33657 134.547 3.40678 134.6C3.43169 134.619 3.45866 134.634 3.48713 134.646C3.67075 134.726 3.81857 134.87 3.90242 135.052C3.98627 135.234 4.00032 135.44 3.94188 135.632C3.93243 135.661 3.92647 135.692 3.92414 135.722C3.91879 135.81 3.94187 135.897 3.98993 135.971C4.03799 136.045 4.10849 136.101 4.19099 136.131C4.27348 136.162 4.36358 136.165 4.44795 136.14C4.53232 136.115 4.60646 136.064 4.65939 135.994C4.6776 135.969 4.69281 135.942 4.70469 135.913C4.78466 135.73 4.92935 135.582 5.11123 135.498C5.29311 135.414 5.49949 135.4 5.69106 135.459C5.72043 135.468 5.75081 135.474 5.78157 135.476C5.86934 135.482 5.9565 135.459 6.03013 135.411C6.10376 135.363 6.15995 135.292 6.19038 135.21C6.22081 135.127 6.22387 135.037 6.19909 134.953C6.17431 134.868 6.12301 134.794 6.05279 134.741C6.02788 134.723 6.00091 134.708 5.97244 134.696Z" fill="#4D8AF0"/>
<path opacity="0.5" d="M11.9692 218.651C11.7856 218.571 11.6378 218.426 11.5539 218.244C11.4701 218.062 11.456 217.856 11.5145 217.664C11.5239 217.635 11.5299 217.605 11.5322 217.574C11.5376 217.486 11.5145 217.399 11.4664 217.325C11.4184 217.252 11.3479 217.195 11.2654 217.165C11.1829 217.135 11.0928 217.131 11.0084 217.156C10.924 217.181 10.8499 217.232 10.797 217.303C10.7788 217.327 10.7636 217.354 10.7517 217.383C10.6717 217.566 10.527 217.714 10.3451 217.798C10.1632 217.882 9.95688 217.896 9.76531 217.838C9.73594 217.828 9.70556 217.822 9.67479 217.82C9.58702 217.815 9.49987 217.838 9.42624 217.886C9.3526 217.934 9.2964 218.004 9.26597 218.087C9.23554 218.169 9.23248 218.259 9.25726 218.344C9.28204 218.428 9.33335 218.502 9.40356 218.555C9.42847 218.573 9.45544 218.589 9.48391 218.6C9.66753 218.68 9.81535 218.825 9.8992 219.007C9.98306 219.189 9.9971 219.395 9.93866 219.587C9.92921 219.616 9.92325 219.647 9.92092 219.677C9.91557 219.765 9.93865 219.852 9.98671 219.926C10.0348 219.999 10.1053 220.056 10.1878 220.086C10.2703 220.117 10.3604 220.12 10.4447 220.095C10.5291 220.07 10.6032 220.019 10.6562 219.949C10.6744 219.924 10.6896 219.897 10.7015 219.868C10.7814 219.685 10.9261 219.537 11.108 219.453C11.2899 219.369 11.4963 219.355 11.6878 219.413C11.7172 219.423 11.7476 219.429 11.7784 219.431C11.8661 219.437 11.9533 219.413 12.0269 219.365C12.1005 219.317 12.1567 219.247 12.1872 219.164C12.2176 219.082 12.2207 218.992 12.1959 218.907C12.1711 218.823 12.1198 218.749 12.0496 218.696C12.0247 218.678 11.9977 218.663 11.9692 218.651Z" fill="#4D8AF0"/>
<path opacity="0.5" d="M111.94 61.8557C112.676 61.8557 113.273 61.259 113.273 60.5231C113.273 59.7871 112.676 59.1904 111.94 59.1904C111.204 59.1904 110.607 59.7871 110.607 60.5231C110.607 61.259 111.204 61.8557 111.94 61.8557Z" fill="#F55F44"/>
<path opacity="0.5" d="M147.921 235.762C148.657 235.762 149.253 235.166 149.253 234.43C149.253 233.694 148.657 233.097 147.921 233.097C147.185 233.097 146.588 233.694 146.588 234.43C146.588 235.166 147.185 235.762 147.921 235.762Z" fill="#4D8AF0"/>
<path opacity="0.5" d="M229.877 97.8364C230.613 97.8364 231.209 97.2397 231.209 96.5038C231.209 95.7678 230.613 95.1711 229.877 95.1711C229.141 95.1711 228.544 95.7678 228.544 96.5038C228.544 97.2397 229.141 97.8364 229.877 97.8364Z" fill="#4D8AF0"/>
<path opacity="0.5" d="M253.864 157.804C254.6 157.804 255.196 157.207 255.196 156.472C255.196 155.736 254.6 155.139 253.864 155.139C253.128 155.139 252.531 155.736 252.531 156.472C252.531 157.207 253.128 157.804 253.864 157.804Z" fill="#47E6B1"/>
<path opacity="0.5" d="M164.578 6.55208C165.314 6.55208 165.911 5.95545 165.911 5.21946C165.911 4.48348 165.314 3.88684 164.578 3.88684C163.842 3.88684 163.246 4.48348 163.246 5.21946C163.246 5.95545 163.842 6.55208 164.578 6.55208Z" fill="#F55F44"/>
<path d="M96.7325 74.9878L106.736 75.3757L107.235 62.5143L97.2313 62.1264L96.7325 74.9878Z" fill="#EF233C"/>
<path d="M142.356 107.17C142.356 107.17 156.209 100.551 155.988 106.267C155.766 111.984 142.024 115.744 142.024 115.744L142.356 107.17Z" fill="#FFB9B9"/>
<path d="M134.756 155.536C134.756 155.536 141.292 171.533 143.706 183.076C146.121 194.619 149.799 210.505 145.068 221.771C140.338 233.037 126.889 266.149 126.75 269.721C126.612 273.294 127.902 276.922 125.044 276.811C122.186 276.7 106.633 271.804 106.001 269.632C105.37 267.461 111.308 261.967 111.308 261.967L125.97 216.021L110.672 186.088L99.6376 230.743L97.4764 286.476C97.4764 286.476 86.8693 283.202 85.3295 286.005C85.3295 286.005 80.5772 279.38 79.9735 276.495C79.3698 273.609 82.2178 218.618 82.2178 218.618C82.2178 218.618 72.4815 155.983 80.3413 156.288C88.2011 156.593 118.987 137.75 134.756 155.536Z" fill="#EF233C"/>
<path d="M125.155 273.953C125.155 273.953 132.405 289.978 133.092 290.72C133.779 291.462 138.503 298.801 134.931 298.663C131.358 298.524 122.922 294.619 116.713 288.653C110.504 282.688 102.318 272.352 103.06 271.665C103.802 270.978 108.887 269.029 108.887 269.029L125.155 273.953Z" fill="#575A89"/>
<path d="M96.1859 282.848C96.1859 282.848 96.6234 290.021 97.9416 292.935C99.2598 295.848 99.0935 300.135 95.5209 299.997C91.9483 299.858 82.7149 298.069 82.7149 298.069C82.7149 298.069 82.1666 293.754 82.9088 293.067C83.6511 292.38 86.814 284.632 85.468 282.433C84.1221 280.234 96.1859 282.848 96.1859 282.848Z" fill="#575A89"/>
<path d="M90.9005 50.0735C90.9005 50.0735 83.2842 61.9433 80.3153 64.6906C77.3463 67.4379 85.699 73.4865 85.699 73.4865L100.649 75.4975C100.649 75.4975 100.461 61.8938 101.23 60.4924C102 59.0911 90.9005 50.0735 90.9005 50.0735Z" fill="#FFB9B9"/>
<path d="M103.895 65.605C103.895 65.605 100.815 71.2103 97.9567 71.0995C95.0986 70.9887 80.3153 64.6906 79.6839 62.5193C79.0524 60.348 74.7871 78.0726 74.7871 78.0726L110.961 141.732L119.785 135.634L115.509 98.2573L111.998 78.0844L103.895 65.605Z" fill="#EF233C"/>
<path d="M78.3496 122.578C79.7926 125.596 80.6938 128.744 80.5688 131.967C80.5633 132.11 80.5577 132.253 80.545 132.395C80.2027 139.008 77.7665 146.657 76.8925 152.219C76.2583 156.209 76.4387 159.121 78.7737 159.806C84.4345 161.456 77.9483 162.636 99.8492 169.926C121.75 177.215 125.572 170.923 125.627 169.494C125.683 168.065 122.526 157.209 123.268 156.522C124.01 155.835 133.654 165.512 136.567 164.193C139.481 162.875 136.9 155.619 136.9 155.619C136.9 155.619 130.336 140.337 130.475 136.764C130.613 133.192 120.533 116.342 120.533 116.342L113.676 71.7091C113.676 71.7091 111.04 65.882 107.495 65.029C103.95 64.1759 101.009 66.2086 101.009 66.2086L106.941 79.3195L113.199 102.461L112.152 111.008C112.152 111.008 104.874 95.6981 100.094 89.788C95.3144 83.8778 85.123 69.8862 85.123 69.8862C85.123 69.8862 82.7437 61.858 84.5398 59.4588C86.3363 57.0525 77.0474 56.6923 73.0869 66.5571C70.9878 71.7854 67.5798 79.5821 65.4448 86.8414C63.5424 93.2724 62.6438 99.2843 64.5285 102.721C67.4092 107.97 74.6554 114.871 78.3496 122.578Z" fill="#575A89"/>
<path opacity="0.1" d="M64.5285 102.721C67.4092 107.971 74.6554 114.871 78.3496 122.578C79.3145 119.102 80.4916 115.505 80.4916 115.505C80.4916 115.505 85.0062 91.3497 71.652 85.1071C69.4392 84.8931 67.2262 85.5115 65.4449 86.8414C63.5424 93.2724 62.6438 99.2844 64.5285 102.721Z" fill="black"/>
<path d="M117.542 101.199L128.863 104.5L144.583 105.11L146.2 118.769L120.366 120.629C120.366 120.629 113.914 102.489 117.542 101.199Z" fill="#575A89"/>
<path d="M99.0805 147.125C99.0805 147.125 114.226 149.637 110.77 154.195C107.313 158.753 93.8952 153.961 93.8952 153.961L99.0805 147.125Z" fill="#FFB9B9"/>
<path opacity="0.1" d="M80.545 132.395C80.2027 139.008 77.7665 146.657 76.8925 152.219C81.7174 156.785 86.3057 160.813 88.0348 160.88C91.6074 161.019 97.3513 160.526 99.4672 161.324C101.583 162.121 102.824 148.573 102.824 148.573C102.824 148.573 101.561 144.23 95.9281 141.865C92.1259 140.265 84.8377 135.925 80.545 132.395Z" fill="black"/>
<path d="M71.8182 80.8199C71.8182 80.8199 59.7267 78.9198 60.3799 98.9819C61.0332 119.044 59.1054 131.85 63.9685 135.617C68.8316 139.383 84.6284 156.455 88.201 156.593C91.7737 156.732 97.5176 156.239 99.6334 157.036C101.749 157.834 102.99 144.286 102.99 144.286C102.99 144.286 101.727 139.943 96.0944 137.578C90.4613 135.213 77.1902 126.827 77.301 123.968C77.4118 121.11 80.6578 111.218 80.6578 111.218C80.6578 111.218 85.1725 87.0626 71.8182 80.8199Z" fill="#575A89"/>
<path d="M101.563 67.6495C110.251 67.6495 117.294 60.6063 117.294 51.9181C117.294 43.2299 110.251 36.1868 101.563 36.1868C92.8747 36.1868 85.8316 43.2299 85.8316 51.9181C85.8316 60.6063 92.8747 67.6495 101.563 67.6495Z" fill="#FFB9B9"/>
<path d="M112.155 29.3706C112.535 29.6975 112.989 29.9255 113.478 30.0343C113.723 30.0781 113.976 30.023 114.181 29.881C114.386 29.739 114.526 29.5218 114.572 29.2766C114.932 30.0231 115.338 30.8186 116.073 31.2016C116.807 31.5846 117.944 31.2634 118.05 30.4416C118.157 31.0656 118.433 31.6483 118.848 32.1266C119.304 32.5613 120.131 32.6711 120.529 32.1828C120.207 33.9415 120.406 35.7501 120.304 37.5351C120.203 39.3201 119.727 41.2125 118.379 42.3863C116.412 44.0981 113.454 43.6756 110.867 43.3513C110.476 43.2692 110.07 43.2914 109.69 43.4157C108.721 43.8284 108.765 45.1769 108.752 46.2298C108.673 48.0772 107.942 49.8368 106.689 51.1962C105.435 52.5556 103.741 53.4267 101.906 53.655C100.879 53.8135 99.8309 53.5578 98.9925 52.944C98.2579 52.3214 97.8827 51.3066 97.041 50.8389C95.6718 50.0781 94.0112 51.1877 93.0102 52.3924C92.0091 53.5971 91.0226 55.0791 89.4718 55.2996C87.4208 55.5913 85.8587 53.5011 85.0923 51.5765C84.0349 48.8789 83.5283 45.997 83.6024 43.1006C83.6765 40.2042 84.3297 37.352 85.5236 34.712C89.8061 25.3768 104.435 23.9003 112.155 29.3706Z" fill="#2F2E41"/>
</g>
</g>
<defs>
<filter id="filter0_d" x="0" y="0" width="260.196" height="305" filterUnits="userSpaceOnUse" color-interpolation-filters="sRGB">
<feFlood flood-opacity="0" result="BackgroundImageFix"/>
<feColorMatrix in="SourceAlpha" type="matrix" values="0 0 0 0 0 0 0 0 0 0 0 0 0 0 0 0 0 0 127 0"/>
<feOffset dx="5" dy="5"/>
<feColorMatrix type="matrix" values="0 0 0 0 0 0 0 0 0 0 0 0 0 0 0 0 0 0 0.25 0"/>
<feBlend mode="normal" in2="BackgroundImageFix" result="effect1_dropShadow"/>
<feBlend mode="normal" in="SourceGraphic" in2="effect1_dropShadow" result="shape"/>
</filter>
<clipPath id="clip0">
<rect width="255.196" height="300" fill="white"/>
</clipPath>
</defs>
</svg>
